<svg width="1340" height="750" viewBox="0 0 1340 750" fill="none" xmlns="http://www.w3.org/2000/svg">
<rect x="50.5" y="432.5" width="142" height="44" fill="#F1EBE7" stroke="#DACEC6"/>
<path d="M72.6506 449.818L75.6733 458.389H75.7926L78.8153 449.818H80.108L76.3693 460H75.0966L71.358 449.818H72.6506ZM81.5348 460V452.364H82.7081V460H81.5348ZM82.1314 451.091C81.9027 451.091 81.7055 451.013 81.5398 450.857C81.3774 450.701 81.2962 450.514 81.2962 450.295C81.2962 450.077 81.3774 449.889 81.5398 449.734C81.7055 449.578 81.9027 449.5 82.1314 449.5C82.3601 449.5 82.5556 449.578 82.718 449.734C82.8838 449.889 82.9666 450.077 82.9666 450.295C82.9666 450.514 82.8838 450.701 82.718 450.857C82.5556 451.013 82.3601 451.091 82.1314 451.091ZM88.0588 460.159C87.323 460.159 86.6883 459.997 86.1547 459.672C85.6243 459.344 85.215 458.886 84.9267 458.3C84.6416 457.71 84.4991 457.024 84.4991 456.241C84.4991 455.459 84.6416 454.77 84.9267 454.173C85.215 453.573 85.6161 453.106 86.1298 452.771C86.6468 452.433 87.2501 452.264 87.9395 452.264C88.3372 452.264 88.7299 452.33 89.1177 452.463C89.5055 452.596 89.8585 452.811 90.1767 453.109C90.4949 453.404 90.7484 453.795 90.9373 454.283C91.1262 454.77 91.2207 455.37 91.2207 456.082V456.58H85.3343V455.565H90.0275C90.0275 455.134 89.9413 454.75 89.769 454.412C89.6 454.074 89.358 453.807 89.0431 453.612C88.7316 453.416 88.3637 453.318 87.9395 453.318C87.4721 453.318 87.0678 453.434 86.7264 453.666C86.3883 453.895 86.1281 454.193 85.9458 454.561C85.7636 454.929 85.6724 455.323 85.6724 455.744V456.42C85.6724 456.997 85.7718 457.486 85.9707 457.887C86.1729 458.285 86.4529 458.588 86.8109 458.797C87.1689 459.002 87.5848 459.105 88.0588 459.105C88.367 459.105 88.6454 459.062 88.894 458.976C89.1459 458.886 89.363 458.754 89.5453 458.578C89.7276 458.399 89.8684 458.177 89.9679 457.912L91.1014 458.23C90.9821 458.615 90.7815 458.953 90.4998 459.244C90.2181 459.533 89.8701 459.758 89.4558 459.92C89.0415 460.08 88.5758 460.159 88.0588 460.159ZM94.7356 460L92.4089 452.364H93.6419L95.2924 458.21H95.372L97.0027 452.364H98.2555L99.8663 458.19H99.9458L101.596 452.364H102.829L100.503 460H99.3493L97.6788 454.134H97.5595L95.889 460H94.7356ZM111.42 460.159C110.704 460.159 110.088 459.99 109.571 459.652C109.054 459.314 108.656 458.848 108.378 458.255C108.099 457.662 107.96 456.984 107.96 456.222C107.96 455.446 108.103 454.762 108.388 454.168C108.676 453.572 109.077 453.106 109.591 452.771C110.108 452.433 110.711 452.264 111.4 452.264C111.937 452.264 112.421 452.364 112.852 452.562C113.283 452.761 113.636 453.04 113.911 453.398C114.186 453.756 114.357 454.173 114.423 454.651H113.25C113.16 454.303 112.961 453.994 112.653 453.726C112.348 453.454 111.937 453.318 111.42 453.318C110.963 453.318 110.562 453.437 110.217 453.676C109.876 453.911 109.609 454.245 109.417 454.675C109.228 455.103 109.133 455.605 109.133 456.182C109.133 456.772 109.226 457.286 109.412 457.723C109.601 458.161 109.866 458.5 110.207 458.742C110.552 458.984 110.956 459.105 111.42 459.105C111.725 459.105 112.002 459.052 112.251 458.946C112.499 458.84 112.71 458.688 112.882 458.489C113.054 458.29 113.177 458.051 113.25 457.773H114.423C114.357 458.223 114.193 458.629 113.931 458.991C113.672 459.349 113.329 459.634 112.902 459.846C112.478 460.055 111.984 460.159 111.42 460.159ZM119.241 460.159C118.551 460.159 117.946 459.995 117.426 459.667C116.909 459.339 116.505 458.88 116.213 458.29C115.925 457.7 115.78 457.01 115.78 456.222C115.78 455.426 115.925 454.732 116.213 454.138C116.505 453.545 116.909 453.085 117.426 452.756C117.946 452.428 118.551 452.264 119.241 452.264C119.93 452.264 120.533 452.428 121.05 452.756C121.571 453.085 121.975 453.545 122.263 454.138C122.555 454.732 122.701 455.426 122.701 456.222C122.701 457.01 122.555 457.7 122.263 458.29C121.975 458.88 121.571 459.339 121.05 459.667C120.533 459.995 119.93 460.159 119.241 460.159ZM119.241 459.105C119.764 459.105 120.195 458.971 120.533 458.702C120.871 458.434 121.122 458.081 121.284 457.643C121.446 457.206 121.528 456.732 121.528 456.222C121.528 455.711 121.446 455.236 121.284 454.795C121.122 454.354 120.871 453.998 120.533 453.726C120.195 453.454 119.764 453.318 119.241 453.318C118.717 453.318 118.286 453.454 117.948 453.726C117.61 453.998 117.36 454.354 117.197 454.795C117.035 455.236 116.954 455.711 116.954 456.222C116.954 456.732 117.035 457.206 117.197 457.643C117.36 458.081 117.61 458.434 117.948 458.702C118.286 458.971 118.717 459.105 119.241 459.105ZM125.665 449.818V460H124.492V449.818H125.665ZM128.987 449.818V460H127.814V449.818H128.987ZM134.338 460.159C133.602 460.159 132.968 459.997 132.434 459.672C131.904 459.344 131.494 458.886 131.206 458.3C130.921 457.71 130.778 457.024 130.778 456.241C130.778 455.459 130.921 454.77 131.206 454.173C131.494 453.573 131.895 453.106 132.409 452.771C132.926 452.433 133.529 452.264 134.219 452.264C134.616 452.264 135.009 452.33 135.397 452.463C135.785 452.596 136.138 452.811 136.456 453.109C136.774 453.404 137.028 453.795 137.217 454.283C137.406 454.77 137.5 455.37 137.5 456.082V456.58H131.614V455.565H136.307C136.307 455.134 136.221 454.75 136.048 454.412C135.879 454.074 135.637 453.807 135.322 453.612C135.011 453.416 134.643 453.318 134.219 453.318C133.751 453.318 133.347 453.434 133.006 453.666C132.668 453.895 132.407 454.193 132.225 454.561C132.043 454.929 131.952 455.323 131.952 455.744V456.42C131.952 456.997 132.051 457.486 132.25 457.887C132.452 458.285 132.732 458.588 133.09 458.797C133.448 459.002 133.864 459.105 134.338 459.105C134.646 459.105 134.925 459.062 135.173 458.976C135.425 458.886 135.642 458.754 135.825 458.578C136.007 458.399 136.148 458.177 136.247 457.912L137.381 458.23C137.261 458.615 137.061 458.953 136.779 459.244C136.497 459.533 136.149 459.758 135.735 459.92C135.321 460.08 134.855 460.159 134.338 460.159ZM142.387 460.159C141.671 460.159 141.055 459.99 140.538 459.652C140.021 459.314 139.623 458.848 139.344 458.255C139.066 457.662 138.927 456.984 138.927 456.222C138.927 455.446 139.069 454.762 139.354 454.168C139.643 453.572 140.044 453.106 140.558 452.771C141.075 452.433 141.678 452.264 142.367 452.264C142.904 452.264 143.388 452.364 143.819 452.562C144.25 452.761 144.603 453.04 144.878 453.398C145.153 453.756 145.324 454.173 145.39 454.651H144.217C144.127 454.303 143.928 453.994 143.62 453.726C143.315 453.454 142.904 453.318 142.387 453.318C141.93 453.318 141.529 453.437 141.184 453.676C140.843 453.911 140.576 454.245 140.384 454.675C140.195 455.103 140.1 455.605 140.1 456.182C140.1 456.772 140.193 457.286 140.379 457.723C140.567 458.161 140.833 458.5 141.174 458.742C141.519 458.984 141.923 459.105 142.387 459.105C142.692 459.105 142.969 459.052 143.217 458.946C143.466 458.84 143.676 458.688 143.849 458.489C144.021 458.29 144.144 458.051 144.217 457.773H145.39C145.324 458.223 145.16 458.629 144.898 458.991C144.639 459.349 144.296 459.634 143.869 459.846C143.444 460.055 142.951 460.159 142.387 460.159ZM150.426 452.364V453.358H146.469V452.364H150.426ZM147.622 450.534H148.795V457.812C148.795 458.144 148.844 458.393 148.94 458.558C149.039 458.721 149.165 458.83 149.317 458.886C149.473 458.939 149.637 458.966 149.81 458.966C149.939 458.966 150.045 458.959 150.128 458.946C150.211 458.929 150.277 458.916 150.327 458.906L150.565 459.96C150.486 459.99 150.375 460.02 150.232 460.05C150.09 460.083 149.909 460.099 149.69 460.099C149.359 460.099 149.034 460.028 148.716 459.886C148.401 459.743 148.139 459.526 147.93 459.234C147.725 458.943 147.622 458.575 147.622 458.131V450.534ZM152.191 460V452.364H153.364V460H152.191ZM152.788 451.091C152.559 451.091 152.362 451.013 152.196 450.857C152.034 450.701 151.952 450.514 151.952 450.295C151.952 450.077 152.034 449.889 152.196 449.734C152.362 449.578 152.559 449.5 152.788 449.5C153.016 449.5 153.212 449.578 153.374 449.734C153.54 449.889 153.623 450.077 153.623 450.295C153.623 450.514 153.54 450.701 153.374 450.857C153.212 451.013 153.016 451.091 152.788 451.091ZM158.616 460.159C157.926 460.159 157.321 459.995 156.801 459.667C156.284 459.339 155.88 458.88 155.588 458.29C155.3 457.7 155.155 457.01 155.155 456.222C155.155 455.426 155.3 454.732 155.588 454.138C155.88 453.545 156.284 453.085 156.801 452.756C157.321 452.428 157.926 452.264 158.616 452.264C159.305 452.264 159.908 452.428 160.425 452.756C160.946 453.085 161.35 453.545 161.638 454.138C161.93 454.732 162.076 455.426 162.076 456.222C162.076 457.01 161.93 457.7 161.638 458.29C161.35 458.88 160.946 459.339 160.425 459.667C159.908 459.995 159.305 460.159 158.616 460.159ZM158.616 459.105C159.139 459.105 159.57 458.971 159.908 458.702C160.246 458.434 160.497 458.081 160.659 457.643C160.821 457.206 160.903 456.732 160.903 456.222C160.903 455.711 160.821 455.236 160.659 454.795C160.497 454.354 160.246 453.998 159.908 453.726C159.57 453.454 159.139 453.318 158.616 453.318C158.092 453.318 157.661 453.454 157.323 453.726C156.985 453.998 156.735 454.354 156.572 454.795C156.41 455.236 156.329 455.711 156.329 456.222C156.329 456.732 156.41 457.206 156.572 457.643C156.735 458.081 156.985 458.434 157.323 458.702C157.661 458.971 158.092 459.105 158.616 459.105ZM165.04 455.406V460H163.867V452.364H165V453.557H165.1C165.279 453.169 165.551 452.857 165.915 452.622C166.28 452.384 166.75 452.264 167.327 452.264C167.844 452.264 168.297 452.37 168.684 452.582C169.072 452.791 169.374 453.109 169.589 453.537C169.805 453.961 169.912 454.498 169.912 455.148V460H168.739V455.227C168.739 454.627 168.583 454.16 168.272 453.825C167.96 453.487 167.533 453.318 166.989 453.318C166.614 453.318 166.28 453.399 165.985 453.562C165.693 453.724 165.463 453.961 165.294 454.273C165.125 454.584 165.04 454.962 165.04 455.406Z" fill="#68513F"/>
<path d="M51.053 301.135V299.758L55.832 299.515C60.908 299.245 64.931 299.056 67.901 298.948C70.871 298.786 72.788 298.705 73.652 298.705C79.7 298.705 84.317 299.731 87.503 301.783C90.689 303.835 92.282 306.886 92.282 310.936C92.282 314.932 89.366 318.226 83.534 320.818C91.85 323.086 96.008 327.757 96.008 334.831C96.062 337.099 95.522 339.205 94.388 341.149C93.308 343.039 91.769 344.686 89.771 346.09C87.827 347.44 85.532 348.493 82.886 349.249C80.294 350.005 77.54 350.329 74.624 350.221C71.816 350.221 69.008 350.221 66.2 350.221C63.392 350.167 60.584 350.14 57.776 350.14H52.025V348.844L57.128 347.872C58.154 347.656 58.883 347.278 59.315 346.738C59.747 346.144 59.963 345.064 59.963 343.498V304.294C59.963 303.862 59.936 303.511 59.882 303.241C59.882 302.917 59.747 302.647 59.477 302.431C59.261 302.215 58.91 302.053 58.424 301.945C57.938 301.837 57.236 301.729 56.318 301.621L51.053 301.135ZM66.605 321.304C67.469 321.466 69.71 321.547 73.328 321.547C75.11 321.547 76.73 321.277 78.188 320.737C79.7 320.143 80.996 319.36 82.076 318.388C83.21 317.416 84.074 316.255 84.668 314.905C85.262 313.555 85.559 312.07 85.559 310.45C85.559 307.21 84.452 304.78 82.238 303.16C80.078 301.486 76.892 300.649 72.68 300.649C70.574 300.649 68.549 300.892 66.605 301.378V321.304ZM66.605 323.734V341.878C66.605 345.982 69.764 348.034 76.082 348.034C77.756 348.034 79.376 347.71 80.942 347.062C82.508 346.414 83.885 345.55 85.073 344.47C86.315 343.39 87.287 342.121 87.989 340.663C88.691 339.205 89.042 337.693 89.042 336.127C89.042 331.753 87.719 328.54 85.073 326.488C82.427 324.436 78.323 323.41 72.761 323.41C71.843 323.41 70.844 323.437 69.764 323.491C68.738 323.545 67.685 323.626 66.605 323.734ZM131.019 329.809H108.42C108.258 330.889 108.177 331.969 108.177 333.049C108.177 335.155 108.474 337.099 109.068 338.881C109.662 340.609 110.499 342.094 111.579 343.336C112.713 344.578 114.063 345.55 115.629 346.252C117.249 346.954 119.031 347.305 120.975 347.305C122.865 347.305 124.593 346.927 126.159 346.171C127.725 345.415 129.426 344.173 131.262 342.445L131.586 344.389C127.752 349.087 122.865 351.436 116.925 351.436C114.981 351.436 113.145 351.004 111.417 350.14C109.743 349.276 108.285 348.115 107.043 346.657C105.801 345.145 104.829 343.39 104.127 341.392C103.425 339.34 103.074 337.126 103.074 334.75C103.074 332.374 103.452 330.16 104.208 328.108C105.018 326.056 106.125 324.274 107.529 322.762C108.933 321.196 110.58 319.981 112.47 319.117C114.36 318.253 116.439 317.821 118.707 317.821C120.435 317.821 122.028 318.118 123.486 318.712C124.944 319.252 126.213 320.062 127.293 321.142C128.427 322.168 129.291 323.437 129.885 324.949C130.533 326.407 130.911 328.027 131.019 329.809ZM108.825 328.108H121.137C122.865 328.108 124.134 328 124.944 327.784C125.808 327.514 126.024 326.65 125.592 325.192C125.16 323.788 124.404 322.519 123.324 321.385C122.298 320.251 120.732 319.684 118.626 319.684C116.034 319.684 113.874 320.44 112.146 321.952C110.472 323.464 109.365 325.516 108.825 328.108ZM151.321 351.031C149.107 351.031 147.163 350.653 145.489 349.897C143.815 349.087 142.411 348.007 141.277 346.657C140.197 345.307 139.387 343.714 138.847 341.878C138.307 340.042 138.037 338.071 138.037 335.965C138.037 333.103 138.523 330.592 139.495 328.432C140.467 326.218 141.736 324.382 143.302 322.924C144.868 321.466 146.65 320.359 148.648 319.603C150.646 318.847 152.671 318.469 154.723 318.469C155.695 318.469 156.64 318.577 157.558 318.793C158.476 319.009 159.286 319.252 159.988 319.522C160.798 319.792 161.554 320.116 162.256 320.494L166.711 318.226L167.44 318.469C167.44 322.681 167.44 326.893 167.44 331.105C167.494 335.317 167.521 339.529 167.521 343.741C167.521 345.901 168.439 346.927 170.275 346.819C170.707 346.819 171.058 346.765 171.328 346.657C171.652 346.495 171.949 346.333 172.219 346.171C172.489 345.955 172.732 345.739 172.948 345.523L173.758 345.928C173.38 346.9 172.894 347.764 172.3 348.52C171.814 349.168 171.193 349.762 170.437 350.302C169.681 350.788 168.763 351.031 167.683 351.031C165.955 351.031 164.713 350.464 163.957 349.33C163.201 348.196 162.823 346.603 162.823 344.551V342.202C162.445 343.336 161.932 344.443 161.284 345.523C160.69 346.549 159.934 347.494 159.016 348.358C158.098 349.168 156.991 349.816 155.695 350.302C154.453 350.788 152.995 351.031 151.321 351.031ZM162.904 333.211C162.904 329.323 162.202 326.299 160.798 324.139C159.448 321.925 157.045 320.818 153.589 320.818C152.401 320.818 151.159 321.061 149.863 321.547C148.567 322.033 147.379 322.816 146.299 323.896C145.219 324.922 144.328 326.272 143.626 327.946C142.924 329.62 142.573 331.618 142.573 333.94C142.573 335.776 142.816 337.531 143.302 339.205C143.788 340.825 144.463 342.283 145.327 343.579C146.245 344.821 147.352 345.82 148.648 346.576C149.998 347.278 151.51 347.629 153.184 347.629C154.534 347.629 155.803 347.305 156.991 346.657C158.179 345.955 159.205 345.01 160.069 343.822C160.933 342.58 161.608 341.149 162.094 339.529C162.634 337.855 162.904 336.046 162.904 334.102V333.211ZM177.715 319.36H188.083V340.258C188.083 342.85 188.515 344.686 189.379 345.766C190.297 346.846 191.998 347.386 194.482 347.386C198.154 347.386 201.529 346.009 204.607 343.255V323.734C204.607 323.194 204.499 322.762 204.283 322.438C204.121 322.114 203.77 321.871 203.23 321.709C202.744 321.493 202.015 321.304 201.043 321.142C200.071 320.98 198.775 320.818 197.155 320.656V319.36H209.872V343.174C209.872 344.146 209.926 344.929 210.034 345.523C210.142 346.063 210.385 346.468 210.763 346.738C211.195 346.954 211.762 347.116 212.464 347.224C213.22 347.278 214.246 347.305 215.542 347.305C215.542 347.521 215.542 347.737 215.542 347.953C215.596 348.115 215.623 348.304 215.623 348.52L204.607 351.436V345.28C202.177 347.332 199.99 348.898 198.046 349.978C196.156 351.004 194.239 351.517 192.295 351.517C189.541 351.517 187.3 350.518 185.572 348.52C183.844 346.522 182.98 343.876 182.98 340.582V323.653C182.98 322.627 182.629 321.925 181.927 321.547C181.279 321.169 179.875 320.818 177.715 320.494V319.36ZM230.009 311.098H230.981C230.981 312.556 230.981 314.014 230.981 315.472C231.035 316.876 231.062 318.307 231.062 319.765L242.078 319.522V322.438L231.062 322.762V339.286C231.062 342.526 231.278 344.983 231.71 346.657C232.196 348.277 233.492 349.033 235.598 348.925C237.218 348.817 239.351 348.061 241.997 346.657L242.726 347.791C241.592 349.087 240.269 350.032 238.757 350.626C237.299 351.166 235.22 351.436 232.52 351.436C231.17 351.436 230.063 351.301 229.199 351.031C228.335 350.707 227.66 350.167 227.174 349.411C226.688 348.601 226.364 347.548 226.202 346.252C226.04 344.956 225.959 343.282 225.959 341.23V322.924C225.203 322.924 224.474 322.951 223.772 323.005C223.07 323.005 222.341 323.005 221.585 323.005C220.829 323.005 220.451 322.816 220.451 322.438C220.451 322.006 220.802 321.628 221.504 321.304C223.88 320.278 225.554 319.171 226.526 317.983C227.066 317.335 227.633 316.444 228.227 315.31C228.821 314.176 229.415 312.772 230.009 311.098ZM259.519 358.402C258.547 360.994 257.386 362.911 256.036 364.153C254.74 365.449 253.336 366.097 251.824 366.097C250.798 366.097 250.015 365.773 249.475 365.125C248.935 364.477 248.665 363.775 248.665 363.019C248.665 362.371 248.881 361.804 249.313 361.318C249.745 360.832 250.42 360.589 251.338 360.589C251.986 360.589 252.553 360.643 253.039 360.751C253.525 360.859 253.984 360.967 254.416 361.075C254.848 361.183 255.172 361.237 255.388 361.237C255.658 361.237 255.928 361.102 256.198 360.832C256.36 360.67 256.495 360.535 256.603 360.427C256.765 360.373 256.927 360.211 257.089 359.941C257.251 359.725 257.44 359.374 257.656 358.888C257.926 358.402 258.223 357.673 258.547 356.701C259.249 354.703 259.6 353.38 259.6 352.732C259.6 351.868 259.33 350.788 258.79 349.492L248.908 323.329C248.476 322.087 247.774 321.331 246.802 321.061L243.805 320.17V318.874C247.207 319.144 250.204 319.279 252.796 319.279C255.388 319.279 257.818 319.144 260.086 318.874V320.17C259.492 320.278 258.79 320.386 257.98 320.494C257.224 320.548 256.522 320.683 255.874 320.899C255.226 321.061 254.713 321.331 254.335 321.709C253.957 322.087 253.903 322.627 254.173 323.329L262.354 346.414L269.887 325.516C270.157 324.76 270.265 323.95 270.211 323.086C270.211 322.168 269.752 321.574 268.834 321.304L264.298 320.17V318.874C266.728 319.144 268.942 319.279 270.94 319.279C272.992 319.279 275.368 319.144 278.068 318.874V320.17L275.476 320.899C274.72 321.115 274.072 321.574 273.532 322.276C272.992 322.924 272.344 324.274 271.588 326.326L259.519 358.402ZM337.683 321.709L347.565 343.579L360.606 310.207C361.74 307.291 362.307 305.131 362.307 303.727C362.307 302.323 361.632 301.486 360.282 301.216L356.961 300.568V299.272C357.501 299.434 359.553 299.515 363.117 299.515C366.681 299.515 368.922 299.434 369.84 299.272V300.568L367.41 301.297C366.6 301.567 365.979 301.945 365.547 302.431C365.115 302.917 364.683 303.754 364.251 304.942L346.674 351.922H344.973L334.362 328.675L323.103 351.922H321.402L303.339 307.129C302.853 305.995 302.448 305.077 302.124 304.375C301.854 303.619 301.557 303.052 301.233 302.674C300.963 302.242 300.666 301.918 300.342 301.702C300.072 301.486 299.694 301.297 299.208 301.135L296.859 300.568V299.272C298.209 299.434 300.72 299.515 304.392 299.515C308.118 299.515 310.953 299.434 312.897 299.272V300.568L309.09 301.297C308.658 301.405 308.442 301.648 308.442 302.026C308.442 302.782 309.036 304.618 310.224 307.534L324.885 344.47L333.309 326.407L324.885 307.048C324.345 305.86 323.886 304.915 323.508 304.213C323.13 303.457 322.779 302.89 322.455 302.512C322.185 302.08 321.915 301.783 321.645 301.621C321.375 301.459 321.078 301.351 320.754 301.297L316.785 300.568V299.272C318.297 299.434 321.456 299.515 326.262 299.515C331.014 299.515 334.011 299.434 335.253 299.272V300.568L330.555 301.459C330.069 301.567 329.826 301.864 329.826 302.35C329.826 302.998 330.42 304.699 331.608 307.453L336.549 319.198L342.948 304.942C343.38 304.078 343.434 303.241 343.11 302.431C342.84 301.621 342.3 301.162 341.49 301.054L338.736 300.568V299.272C340.086 299.434 342.624 299.515 346.35 299.515C350.022 299.515 352.398 299.434 353.478 299.272V300.568L349.671 301.297C347.835 301.675 346.431 302.917 345.459 305.023L337.683 321.709ZM390.681 350.464C389.817 350.356 388.656 350.275 387.198 350.221C385.74 350.167 383.931 350.14 381.771 350.14C379.611 350.14 377.802 350.167 376.344 350.221C374.886 350.275 373.725 350.356 372.861 350.464V349.168L377.397 348.277C379.071 347.953 379.908 346.981 379.908 345.361V329.08C379.908 327.784 379.584 326.839 378.936 326.245C378.288 325.651 376.992 325.138 375.048 324.706V323.572C378.882 322.6 381.69 320.656 383.472 317.74H384.768V345.604C384.768 346.414 384.876 347.008 385.092 347.386C385.362 347.764 385.848 348.034 386.55 348.196L390.681 349.168V350.464ZM381.771 301.054C382.689 301.054 383.526 301.405 384.282 302.107C385.038 302.809 385.416 303.619 385.416 304.537C385.416 305.401 385.011 306.184 384.201 306.886C383.445 307.534 382.581 307.858 381.609 307.858C380.691 307.858 379.908 307.534 379.26 306.886C378.612 306.238 378.288 305.455 378.288 304.537C378.288 303.619 378.639 302.809 379.341 302.107C380.043 301.405 380.853 301.054 381.771 301.054ZM405.061 311.098H406.033C406.033 312.556 406.033 314.014 406.033 315.472C406.087 316.876 406.114 318.307 406.114 319.765L417.13 319.522V322.438L406.114 322.762V339.286C406.114 342.526 406.33 344.983 406.762 346.657C407.248 348.277 408.544 349.033 410.65 348.925C412.27 348.817 414.403 348.061 417.049 346.657L417.778 347.791C416.644 349.087 415.321 350.032 413.809 350.626C412.351 351.166 410.272 351.436 407.572 351.436C406.222 351.436 405.115 351.301 404.251 351.031C403.387 350.707 402.712 350.167 402.226 349.411C401.74 348.601 401.416 347.548 401.254 346.252C401.092 344.956 401.011 343.282 401.011 341.23V322.924C400.255 322.924 399.526 322.951 398.824 323.005C398.122 323.005 397.393 323.005 396.637 323.005C395.881 323.005 395.503 322.816 395.503 322.438C395.503 322.006 395.854 321.628 396.556 321.304C398.932 320.278 400.606 319.171 401.578 317.983C402.118 317.335 402.685 316.444 403.279 315.31C403.873 314.176 404.467 312.772 405.061 311.098ZM426.713 305.347C426.713 304.645 426.632 304.051 426.47 303.565C426.362 303.079 426.092 302.674 425.66 302.35C425.282 301.972 424.688 301.648 423.878 301.378C423.122 301.108 422.069 300.838 420.719 300.568V299.596C423.041 299.488 426.011 298.516 429.629 296.68H431.573V325.273C435.569 320.305 439.889 317.821 444.533 317.821C444.965 317.821 445.397 317.848 445.829 317.902C446.315 317.956 446.774 318.037 447.206 318.145C449.312 318.739 450.986 319.954 452.228 321.79C453.47 323.572 454.091 325.921 454.091 328.837V346.333C454.091 346.873 454.199 347.305 454.415 347.629C454.631 347.899 455.198 348.142 456.116 348.358L459.68 349.168V350.464C458.006 350.356 456.494 350.275 455.144 350.221C453.848 350.167 452.741 350.14 451.823 350.14C450.905 350.14 449.798 350.167 448.502 350.221C447.206 350.275 445.721 350.356 444.047 350.464V349.168L447.368 348.277C448.07 348.061 448.556 347.818 448.826 347.548C449.15 347.278 449.312 346.684 449.312 345.766V328.999C449.312 326.731 448.637 324.922 447.287 323.572C445.937 322.222 444.209 321.547 442.103 321.547C439.997 321.547 438.161 322.087 436.595 323.167C435.029 324.193 433.355 325.84 431.573 328.108V345.766C431.573 346.414 431.654 346.873 431.816 347.143C432.032 347.413 432.464 347.629 433.112 347.791L438.62 349.168V350.464C437.756 350.356 436.568 350.275 435.056 350.221C433.598 350.167 431.789 350.14 429.629 350.14C427.469 350.14 425.633 350.167 424.121 350.221C422.663 350.275 421.502 350.356 420.638 350.464V349.168L425.012 348.277C425.714 348.115 426.173 347.953 426.389 347.791C426.605 347.575 426.713 347.143 426.713 346.495V305.347ZM481.569 350.464C480.705 350.356 479.544 350.275 478.086 350.221C476.628 350.167 474.819 350.14 472.659 350.14C470.499 350.14 468.69 350.167 467.232 350.221C465.774 350.275 464.613 350.356 463.749 350.464V349.168L468.285 348.277C469.959 347.953 470.796 346.981 470.796 345.361V329.08C470.796 327.784 470.472 326.839 469.824 326.245C469.176 325.651 467.88 325.138 465.936 324.706V323.572C469.77 322.6 472.578 320.656 474.36 317.74H475.656V345.604C475.656 346.414 475.764 347.008 475.98 347.386C476.25 347.764 476.736 348.034 477.438 348.196L481.569 349.168V350.464ZM472.659 301.054C473.577 301.054 474.414 301.405 475.17 302.107C475.926 302.809 476.304 303.619 476.304 304.537C476.304 305.401 475.899 306.184 475.089 306.886C474.333 307.534 473.469 307.858 472.497 307.858C471.579 307.858 470.796 307.534 470.148 306.886C469.5 306.238 469.176 305.455 469.176 304.537C469.176 303.619 469.527 302.809 470.229 302.107C470.931 301.405 471.741 301.054 472.659 301.054ZM524.623 350.383C519.007 350.059 513.391 350.059 507.775 350.383V349.087L512.23 348.439C513.418 348.277 514.012 347.224 514.012 345.28V331.591C514.012 328.567 513.499 326.137 512.473 324.301C511.447 322.465 509.449 321.547 506.479 321.547C503.023 321.547 499.648 323.194 496.354 326.488V346.171C496.354 347.035 497.002 347.629 498.298 347.953L503.077 349.087V350.383C502.321 350.329 501.43 350.275 500.404 350.221C499.378 350.167 498.244 350.14 497.002 350.14H494.329C490.495 350.14 487.579 350.221 485.581 350.383V349.087L489.874 348.277C490.954 348.115 491.494 347.305 491.494 345.847V329.809C491.494 328.135 491.143 327.001 490.441 326.407C489.793 325.813 488.605 325.381 486.877 325.111V323.653C490.279 322.843 493.006 320.413 495.058 316.363H496.354V323.653C498.406 321.871 500.674 320.467 503.158 319.441C505.642 318.361 507.829 317.821 509.719 317.821C515.929 317.821 519.034 321.52 519.034 328.918V345.037C519.034 346.063 519.169 346.846 519.439 347.386C519.709 347.926 520.249 348.277 521.059 348.439L524.623 349.087V350.383Z" fill="black"/>
<path d="M60.472 191.232C60.472 189.824 60.296 188.827 59.944 188.24C59.592 187.653 58.9173 187.272 57.92 187.096L51.936 186.04V184.632C53.872 184.691 56.16 184.691 58.8 184.632C61.4987 184.515 64.256 184.397 67.072 184.28C69.888 184.104 72.616 183.987 75.256 183.928C77.896 183.811 80.184 183.781 82.12 183.84C86.52 183.957 90.6267 184.661 94.44 185.952C98.2533 187.184 101.568 188.973 104.384 191.32C107.2 193.667 109.429 196.541 111.072 199.944C112.715 203.288 113.536 207.101 113.536 211.384C113.536 215.784 112.744 219.744 111.16 223.264C109.576 226.784 107.405 229.776 104.648 232.24C101.891 234.704 98.6347 236.581 94.88 237.872C91.184 239.163 87.1947 239.808 82.912 239.808L68.656 239.456H51.056V238.048L57.92 236.552C58.8587 236.376 59.504 235.995 59.856 235.408C60.2667 234.821 60.472 233.707 60.472 232.064V191.232ZM67.688 229.952C67.688 230.891 67.9227 231.829 68.392 232.768C68.92 233.648 69.6827 234.469 70.68 235.232C71.6773 235.936 72.9093 236.523 74.376 236.992C75.8427 237.403 77.544 237.608 79.48 237.608C82.824 237.608 86.0213 237.051 89.072 235.936C92.1813 234.821 94.88 233.179 97.168 231.008C99.5147 228.779 101.363 225.992 102.712 222.648C104.12 219.304 104.824 215.432 104.824 211.032C104.824 207.101 104.12 203.611 102.712 200.56C101.363 197.451 99.3973 194.84 96.816 192.728C94.2347 190.557 91.096 188.915 87.4 187.8C83.704 186.627 79.5387 186.04 74.904 186.04C71.736 186.04 69.7413 186.363 68.92 187.008C68.0987 187.653 67.688 189.061 67.688 191.232V229.952ZM139.451 240.072C138.512 239.955 137.251 239.867 135.667 239.808C134.083 239.749 132.117 239.72 129.771 239.72C127.424 239.72 125.459 239.749 123.875 239.808C122.291 239.867 121.029 239.955 120.091 240.072V238.664L125.019 237.696C126.837 237.344 127.747 236.288 127.747 234.528V216.84C127.747 215.432 127.395 214.405 126.691 213.76C125.987 213.115 124.579 212.557 122.467 212.088V210.856C126.632 209.8 129.683 207.688 131.619 204.52H133.027V234.792C133.027 235.672 133.144 236.317 133.379 236.728C133.672 237.139 134.2 237.432 134.963 237.608L139.451 238.664V240.072ZM129.771 186.392C130.768 186.392 131.677 186.773 132.499 187.536C133.32 188.299 133.731 189.179 133.731 190.176C133.731 191.115 133.291 191.965 132.411 192.728C131.589 193.432 130.651 193.784 129.595 193.784C128.597 193.784 127.747 193.432 127.043 192.728C126.339 192.024 125.987 191.173 125.987 190.176C125.987 189.179 126.368 188.299 127.131 187.536C127.893 186.773 128.773 186.392 129.771 186.392ZM166.249 214.376C166.015 213.437 165.575 212.499 164.929 211.56C164.284 210.621 163.551 209.8 162.729 209.096C161.967 208.333 161.145 207.747 160.265 207.336C159.385 206.867 158.593 206.632 157.889 206.632C153.607 206.632 151.465 208.597 151.465 212.528C151.465 214.112 152.169 215.461 153.577 216.576C154.985 217.632 157.127 218.688 160.001 219.744C166.631 222.325 169.945 225.904 169.945 230.48C169.945 232.123 169.623 233.619 168.977 234.968C168.332 236.259 167.452 237.373 166.337 238.312C165.223 239.192 163.903 239.896 162.377 240.424C160.911 240.893 159.356 241.128 157.713 241.128C153.548 241.128 150.087 240.365 147.329 238.84L146.449 228.896H147.945C148.356 230.48 148.943 231.917 149.705 233.208C150.468 234.44 151.319 235.525 152.257 236.464C153.196 237.344 154.193 238.048 155.249 238.576C156.364 239.045 157.449 239.28 158.505 239.28C160.617 239.28 162.319 238.693 163.609 237.52C164.9 236.347 165.545 234.821 165.545 232.944C165.545 229.541 162.788 226.843 157.273 224.848C153.401 223.381 150.615 221.856 148.913 220.272C147.271 218.629 146.449 216.488 146.449 213.848C146.449 211.032 147.593 208.803 149.881 207.16C152.169 205.459 155.015 204.608 158.417 204.608C161.996 204.608 164.988 205.312 167.393 206.72L167.921 214.376H166.249ZM207.806 235.496C206.281 237.432 204.345 238.869 201.998 239.808C199.651 240.688 197.363 241.128 195.134 241.128C192.377 241.128 189.883 240.659 187.654 239.72C185.483 238.723 183.606 237.403 182.022 235.76C180.497 234.117 179.323 232.211 178.502 230.04C177.681 227.869 177.27 225.611 177.27 223.264C177.27 220.507 177.681 217.984 178.502 215.696C179.323 213.408 180.526 211.443 182.11 209.8C183.753 208.157 185.747 206.896 188.094 206.016C190.499 205.077 193.257 204.608 196.366 204.608C199.593 204.608 202.203 205.107 204.198 206.104C206.251 207.043 207.278 208.275 207.278 209.8C207.278 210.621 207.014 211.355 206.486 212C205.958 212.587 205.371 212.909 204.726 212.968C203.905 213.027 203.171 212.733 202.526 212.088C201.881 211.384 201.147 210.621 200.326 209.8C199.563 208.979 198.625 208.245 197.51 207.6C196.454 206.896 195.075 206.544 193.374 206.544C191.555 206.544 190.001 207.013 188.71 207.952C187.419 208.891 186.334 210.093 185.454 211.56C184.633 213.027 184.017 214.699 183.606 216.576C183.254 218.395 183.078 220.272 183.078 222.208C183.078 224.261 183.401 226.256 184.046 228.192C184.75 230.069 185.718 231.741 186.95 233.208C188.182 234.616 189.649 235.731 191.35 236.552C193.11 237.373 195.046 237.784 197.158 237.784C199.505 237.725 201.353 237.315 202.702 236.552C204.051 235.789 205.371 234.704 206.662 233.296L207.806 235.496ZM231.928 241.128C229.346 241.128 226.941 240.688 224.712 239.808C222.482 238.869 220.546 237.608 218.904 236.024C217.261 234.381 215.941 232.445 214.944 230.216C214.005 227.987 213.536 225.552 213.536 222.912C213.536 220.213 214.005 217.749 214.944 215.52C215.941 213.291 217.29 211.384 218.992 209.8C220.693 208.157 222.688 206.896 224.976 206.016C227.322 205.077 229.874 204.608 232.632 204.608C235.448 204.608 238 205.107 240.288 206.104C242.576 207.043 244.541 208.363 246.184 210.064C247.885 211.707 249.176 213.672 250.056 215.96C250.994 218.189 251.464 220.565 251.464 223.088C251.464 225.611 250.965 227.987 249.968 230.216C249.029 232.387 247.68 234.293 245.92 235.936C244.218 237.52 242.165 238.781 239.76 239.72C237.354 240.659 234.744 241.128 231.928 241.128ZM219.872 223.616C219.872 228.544 221.016 232.416 223.304 235.232C225.592 238.048 228.584 239.456 232.28 239.456C234.098 239.456 235.8 239.075 237.384 238.312C238.968 237.491 240.317 236.376 241.432 234.968C242.605 233.501 243.514 231.771 244.16 229.776C244.805 227.723 245.128 225.464 245.128 223C245.128 220.536 244.834 218.277 244.248 216.224C243.661 214.171 242.81 212.411 241.696 210.944C240.581 209.477 239.232 208.333 237.648 207.512C236.064 206.691 234.304 206.28 232.368 206.28C228.496 206.28 225.445 207.747 223.216 210.68C220.986 213.613 219.872 217.925 219.872 223.616ZM288.489 212.088L276.169 241.92H274.937L261.649 211.912C260.945 210.504 260.388 209.595 259.977 209.184C259.566 208.773 258.921 208.48 258.041 208.304L254.433 207.512V206.104C255.724 206.28 258.98 206.368 264.201 206.368C269.422 206.368 272.825 206.28 274.409 206.104V207.512L268.953 208.392C267.838 208.568 267.281 209.037 267.281 209.8C267.281 210.504 267.809 212.088 268.865 214.552L277.401 234.176L285.409 214.288C285.996 212.939 286.289 211.824 286.289 210.944C286.289 209.36 285.086 208.392 282.681 208.04L279.249 207.512V206.104C280.012 206.28 282.828 206.368 287.697 206.368C292.566 206.368 295.676 206.28 297.025 206.104V207.512L292.097 208.216C291.158 208.333 290.484 208.627 290.073 209.096C289.662 209.507 289.134 210.504 288.489 212.088ZM330.091 217.632H305.539C305.363 218.805 305.275 219.979 305.275 221.152C305.275 223.44 305.598 225.552 306.243 227.488C306.888 229.365 307.798 230.979 308.971 232.328C310.203 233.677 311.67 234.733 313.371 235.496C315.131 236.259 317.067 236.64 319.179 236.64C321.232 236.64 323.11 236.229 324.811 235.408C326.512 234.587 328.36 233.237 330.355 231.36L330.707 233.472C326.542 238.576 321.232 241.128 314.779 241.128C312.667 241.128 310.672 240.659 308.795 239.72C306.976 238.781 305.392 237.52 304.043 235.936C302.694 234.293 301.638 232.387 300.875 230.216C300.112 227.987 299.731 225.581 299.731 223C299.731 220.419 300.142 218.013 300.963 215.784C301.843 213.555 303.046 211.619 304.571 209.976C306.096 208.275 307.886 206.955 309.939 206.016C311.992 205.077 314.251 204.608 316.715 204.608C318.592 204.608 320.323 204.931 321.907 205.576C323.491 206.163 324.87 207.043 326.043 208.216C327.275 209.331 328.214 210.709 328.859 212.352C329.563 213.936 329.974 215.696 330.091 217.632ZM305.979 215.784H319.355C321.232 215.784 322.611 215.667 323.491 215.432C324.43 215.139 324.664 214.2 324.195 212.616C323.726 211.091 322.904 209.712 321.731 208.48C320.616 207.248 318.915 206.632 316.627 206.632C313.811 206.632 311.464 207.453 309.587 209.096C307.768 210.739 306.566 212.968 305.979 215.784ZM336.395 240.072V238.664L340.795 237.872C341.969 237.579 342.702 237.139 342.995 236.552C343.347 235.965 343.523 234.909 343.523 233.384V216.488C343.523 215.315 343.259 214.464 342.731 213.936C342.262 213.408 341.177 212.968 339.475 212.616L337.099 212.088L337.275 210.768C339.563 209.947 341.47 209.008 342.995 207.952C344.521 206.837 345.87 205.048 347.043 202.584H348.627C348.745 204.168 348.833 205.899 348.891 207.776C348.95 209.595 348.979 211.56 348.979 213.672C350.153 211.501 351.766 209.477 353.819 207.6C355.873 205.605 357.662 204.608 359.187 204.608C360.654 204.608 361.769 205.019 362.531 205.84C363.353 206.661 363.763 207.659 363.763 208.832C363.763 209.947 363.441 210.797 362.795 211.384C362.15 211.971 361.358 212.264 360.419 212.264C359.481 212.264 358.454 212.029 357.339 211.56C356.283 211.091 355.374 210.856 354.611 210.856C353.966 210.856 353.291 211.179 352.587 211.824C351.942 212.411 351.355 213.144 350.827 214.024C350.299 214.904 349.859 215.813 349.507 216.752C349.155 217.632 348.979 218.365 348.979 218.952V233.56C348.979 235.085 349.214 236.112 349.683 236.64C350.211 237.109 351.297 237.461 352.939 237.696L359.715 238.664V240.072C358.131 239.955 356.371 239.867 354.435 239.808C352.499 239.749 350.417 239.72 348.187 239.72H347.043C344.99 239.72 343.083 239.749 341.323 239.808C339.563 239.867 337.921 239.955 336.395 240.072ZM391.688 182.872C392.099 181.347 392.51 180.584 392.92 180.584C393.39 180.584 393.918 181.171 394.504 182.344C395.15 183.517 395.707 184.221 396.176 184.456C396.646 184.632 397.555 184.72 398.904 184.72H432.96C434.016 184.72 434.838 184.72 435.424 184.72C436.07 184.661 436.568 184.544 436.92 184.368C437.331 184.192 437.654 183.957 437.888 183.664C438.182 183.312 438.475 182.813 438.768 182.168C439.179 181.053 439.678 180.496 440.264 180.496C441.027 180.496 441.408 181.083 441.408 182.256L441.232 196.16C441.232 196.629 441.144 197.011 440.968 197.304C440.851 197.539 440.646 197.627 440.352 197.568C440.118 197.451 439.854 197.157 439.56 196.688C439.267 196.16 439.003 195.309 438.768 194.136C438.475 192.904 438.152 191.877 437.8 191.056C437.507 190.176 437.067 189.472 436.48 188.944C435.894 188.416 435.102 188.035 434.104 187.8C433.166 187.507 431.963 187.36 430.496 187.36H419.496V232.68C419.496 234.264 419.672 235.32 420.024 235.848C420.435 236.376 421.256 236.787 422.488 237.08L429.352 238.576V239.984C426.243 239.808 421.227 239.72 414.304 239.72C407.44 239.72 403.304 239.808 401.896 239.984V238.576L408.056 237.344C409.758 236.992 410.872 236.493 411.4 235.848C411.928 235.144 412.192 234.059 412.192 232.592V187.36H401.368C400.312 187.301 399.403 187.36 398.64 187.536C397.936 187.712 397.232 188.093 396.528 188.68C395.824 189.267 395.062 190.088 394.24 191.144C393.419 192.141 392.422 193.461 391.248 195.104C390.486 196.219 389.899 196.923 389.488 197.216C389.078 197.509 388.784 197.539 388.608 197.304C388.491 197.011 388.462 196.541 388.52 195.896C388.638 195.192 388.784 194.429 388.96 193.608L391.688 182.872ZM450.933 191.056C450.933 190.293 450.845 189.648 450.669 189.12C450.551 188.592 450.258 188.152 449.789 187.8C449.378 187.389 448.733 187.037 447.853 186.744C447.031 186.451 445.887 186.157 444.421 185.864V184.808C446.943 184.691 450.17 183.635 454.101 181.64H456.213V212.704C460.554 207.307 465.247 204.608 470.293 204.608C470.762 204.608 471.231 204.637 471.701 204.696C472.229 204.755 472.727 204.843 473.197 204.96C475.485 205.605 477.303 206.925 478.653 208.92C480.002 210.856 480.677 213.408 480.677 216.576V235.584C480.677 236.171 480.794 236.64 481.029 236.992C481.263 237.285 481.879 237.549 482.877 237.784L486.749 238.664V240.072C484.93 239.955 483.287 239.867 481.821 239.808C480.413 239.749 479.21 239.72 478.213 239.72C477.215 239.72 476.013 239.749 474.605 239.808C473.197 239.867 471.583 239.955 469.765 240.072V238.664L473.373 237.696C474.135 237.461 474.663 237.197 474.957 236.904C475.309 236.611 475.485 235.965 475.485 234.968V216.752C475.485 214.288 474.751 212.323 473.285 210.856C471.818 209.389 469.941 208.656 467.653 208.656C465.365 208.656 463.37 209.243 461.669 210.416C459.967 211.531 458.149 213.32 456.213 215.784V234.968C456.213 235.672 456.301 236.171 456.477 236.464C456.711 236.757 457.181 236.992 457.885 237.168L463.869 238.664V240.072C462.93 239.955 461.639 239.867 459.997 239.808C458.413 239.749 456.447 239.72 454.101 239.72C451.754 239.72 449.759 239.749 448.117 239.808C446.533 239.867 445.271 239.955 444.333 240.072V238.664L449.085 237.696C449.847 237.52 450.346 237.344 450.581 237.168C450.815 236.933 450.933 236.464 450.933 235.76V191.056ZM522.849 217.632H498.297C498.121 218.805 498.033 219.979 498.033 221.152C498.033 223.44 498.355 225.552 499.001 227.488C499.646 229.365 500.555 230.979 501.729 232.328C502.961 233.677 504.427 234.733 506.129 235.496C507.889 236.259 509.825 236.64 511.937 236.64C513.99 236.64 515.867 236.229 517.569 235.408C519.27 234.587 521.118 233.237 523.113 231.36L523.465 233.472C519.299 238.576 513.99 241.128 507.537 241.128C505.425 241.128 503.43 240.659 501.553 239.72C499.734 238.781 498.15 237.52 496.801 235.936C495.451 234.293 494.395 232.387 493.633 230.216C492.87 227.987 492.489 225.581 492.489 223C492.489 220.419 492.899 218.013 493.721 215.784C494.601 213.555 495.803 211.619 497.329 209.976C498.854 208.275 500.643 206.955 502.697 206.016C504.75 205.077 507.009 204.608 509.473 204.608C511.35 204.608 513.081 204.931 514.665 205.576C516.249 206.163 517.627 207.043 518.801 208.216C520.033 209.331 520.971 210.709 521.617 212.352C522.321 213.936 522.731 215.696 522.849 217.632ZM498.737 215.784H512.113C513.99 215.784 515.369 215.667 516.249 215.432C517.187 215.139 517.422 214.2 516.953 212.616C516.483 211.091 515.662 209.712 514.489 208.48C513.374 207.248 511.673 206.632 509.385 206.632C506.569 206.632 504.222 207.453 502.345 209.096C500.526 210.739 499.323 212.968 498.737 215.784Z" fill="black"/>
<path d="M501.421 590.37C495.963 589.841 491.658 588.31 488.504 585.777C485.466 583.255 483.426 580.127 482.381 576.392C481.337 572.657 481.023 568.641 481.44 564.345C482.172 556.797 484.576 549.528 488.653 542.539C492.835 535.678 497.309 529.43 502.075 523.797C509.096 515.453 515.971 508.618 522.7 503.292C529.556 497.862 536.751 493.168 544.285 489.21C544.222 487.446 544.196 484.689 544.208 480.939C544.22 477.189 544.15 473.08 543.997 468.611C543.972 464.037 543.935 459.58 543.887 455.238C543.84 450.896 543.788 447.199 543.732 444.146C542.51 447.075 541.156 450.167 539.668 453.422C538.18 456.677 536.617 460.101 534.98 463.693C531.461 470.97 527.616 477.982 523.446 484.728C519.275 491.473 514.771 497.425 509.934 502.582C505.213 507.75 500.193 511.776 494.873 514.659C489.681 517.438 484.356 518.563 478.898 518.033L477.504 517.898C471.964 517.009 468.427 514.205 466.892 509.485C465.357 504.764 464.882 499.385 465.468 493.347C465.93 488.586 466.745 483.8 467.915 478.991C469.201 474.193 470.511 469.748 471.845 465.658C473.18 461.568 474.186 458.442 474.864 456.281C475.209 455.142 475.893 452.923 476.917 449.623C477.951 446.207 479.106 442.157 480.38 437.475C481.771 432.804 483.01 427.884 484.097 422.715C485.196 417.43 485.97 412.465 486.421 407.82C486.984 402.014 486.818 397.075 485.924 393.003C485.029 388.931 482.84 386.726 479.357 386.388C475.641 386.028 472.063 387.263 468.624 390.094C465.196 392.809 461.962 396.54 458.923 401.285C456.012 405.926 453.345 411.059 450.924 416.685C448.62 422.322 446.727 427.941 445.246 433.541C443.777 439.024 442.833 443.915 442.417 448.211C442.135 451.114 442.125 453.633 442.387 455.768C442.66 457.788 443.291 459.138 444.28 459.82C445.048 460.363 445.398 460.983 445.33 461.68C445.195 463.074 444.373 463.697 442.863 463.551C442.05 463.472 441.329 463.05 440.7 462.286C439.36 460.398 438.364 457.371 437.713 453.205C437.062 449.04 436.995 444.286 437.513 438.944C437.829 435.693 438.387 432.348 439.19 428.909C439.992 425.471 441.032 421.997 442.31 418.487C444.049 413.85 446.317 409.205 449.112 404.553C451.919 399.785 455.266 395.48 459.156 391.638C463.056 387.679 467.452 384.647 472.345 382.543C477.354 380.45 482.819 379.691 488.741 380.265C492.922 380.671 496.066 382.089 498.175 384.521C500.294 386.836 501.644 389.839 502.224 393.528C502.92 397.23 503.054 401.286 502.626 405.699C502.12 410.925 501.068 416.332 499.471 421.92C498.001 427.404 496.397 432.464 494.658 437.102C493.046 441.634 491.763 445.202 490.807 447.805C490.323 449.165 489.396 451.477 488.024 454.744C486.769 458.021 485.341 461.868 483.74 466.284C482.267 470.595 480.899 475.034 479.636 479.6C478.489 484.177 477.718 488.498 477.324 492.562C476.907 496.859 477.191 500.579 478.176 503.722C479.172 506.749 481.284 508.536 484.513 509.083L485.384 509.168C489.564 509.573 493.908 508.295 498.415 505.333C502.922 502.371 507.309 498.225 511.577 492.895C515.972 487.461 520.086 481.296 523.92 474.4C527.764 467.388 531.103 460.152 533.937 452.691C536.448 446.136 538.345 439.873 539.627 433.902C540.909 427.931 542.008 422.646 542.923 418.046C543.849 413.33 544.906 409.682 546.094 407.101C547.398 404.532 549.217 403.302 551.551 403.411C552.015 403.456 552.393 403.785 552.685 404.4C553.094 405.025 553.298 405.338 553.298 405.338L553.472 405.355C553.82 405.389 554.05 406.642 554.162 409.114C554.285 411.471 554.311 414.228 554.239 417.385C554.167 420.543 554.066 423.405 553.934 425.971C553.93 428.432 553.975 429.784 554.068 430.028C554.338 430.875 554.558 432.83 554.73 435.894C555.029 438.854 555.337 442.927 555.655 448.116C555.998 454.244 556.289 460.309 556.528 466.31C556.778 472.195 556.981 477.958 557.137 483.599L557.867 483.318C559.583 482.547 561.149 482.113 562.565 482.016C563.981 481.919 565.153 481.915 566.082 482.005C567.011 482.095 567.813 482.29 568.487 482.59C569.277 482.901 569.686 483.527 569.712 484.467C569.667 484.932 569.343 485.252 568.739 485.428C568.252 485.615 567.719 485.68 567.138 485.624C565.501 485.582 563.72 485.82 561.794 486.337C559.985 486.864 558.524 487.426 557.411 488.021C557.421 495.172 556.981 503.335 556.091 512.508C555.495 518.663 554.377 525.353 552.739 532.578C551.205 539.931 549.039 547.164 546.239 554.277C543.555 561.402 540.121 567.808 535.936 573.498C531.866 579.198 526.986 583.589 521.296 586.671C515.594 589.869 508.969 591.102 501.421 590.37ZM502.574 585.735C508.38 586.298 513.398 585.319 517.627 582.799C521.962 580.406 525.643 576.895 528.671 572.266C531.698 567.636 534.202 562.37 536.181 556.467C538.276 550.575 539.929 544.406 541.14 537.959C542.34 531.629 543.233 525.444 543.818 519.406C544.336 514.064 544.641 509.112 544.732 504.55C544.95 499.882 545.031 496.022 544.976 492.969C539.678 495.62 533.967 499.52 527.841 504.67C521.832 509.831 516.051 515.658 510.498 522.153C505.061 528.658 500.478 535.422 496.75 542.445C493.126 549.596 490.999 556.422 490.368 562.925C490.03 566.409 490.168 569.821 490.782 573.163C491.396 576.504 492.646 579.321 494.534 581.614C496.41 584.023 499.09 585.397 502.574 585.735ZM583.536 526.246C579.588 525.864 576.438 524.503 574.086 522.165C571.85 519.839 570.199 516.924 569.132 513.421C568.181 509.93 567.607 506.182 567.409 502.177C567.339 498.068 567.489 494.097 567.861 490.265C568.142 487.362 568.518 484.703 568.986 482.287C569.466 479.755 569.854 477.565 570.151 475.719C571.204 470.898 572.955 466.144 575.402 461.459C577.86 456.657 581.163 452.816 585.31 449.936C589.469 446.94 594.683 445.747 600.954 446.355C605.366 446.783 608.593 448.561 610.634 451.689C612.802 454.712 614.131 458.533 614.621 463.152C615.122 467.655 615.131 472.403 614.647 477.396C614.511 478.79 614.318 480.177 614.067 481.56C613.932 482.953 613.739 484.341 613.487 485.723C616.075 489.256 619.401 491.22 623.465 491.614C626.601 491.918 629.791 491.055 633.035 489.025C633.788 488.512 634.455 488.284 635.035 488.34C635.5 488.385 635.704 488.698 635.648 489.279C635.546 490.324 635.188 490.992 634.574 491.284C632.547 492.846 630.449 493.932 628.28 494.542C626.111 495.152 623.982 495.356 621.891 495.153C618.292 494.804 615.084 493.438 612.267 491.055C611.821 493.239 611.27 495.296 610.614 497.225C610.085 499.049 609.579 500.641 609.096 502C607.702 505.499 605.757 509.237 603.261 513.215C600.893 517.087 598 520.323 594.584 522.922C591.283 525.533 587.6 526.641 583.536 526.246ZM590.213 517.224C592.652 517.46 594.797 516.496 596.647 514.331C598.615 512.178 600.325 509.648 601.779 506.741C603.233 503.835 604.294 501.359 604.961 499.314C605.467 497.722 605.937 495.892 606.372 493.824C606.807 491.757 607.223 489.277 607.621 486.385C606.131 484.834 604.979 482.202 604.167 478.49C603.482 474.673 603.303 471.08 603.63 467.713C603.855 465.39 604.342 463.386 605.092 461.701C605.853 459.899 606.842 458.764 608.059 458.296C607.532 456.487 606.76 454.771 605.745 453.149C604.742 451.411 603.195 450.44 601.105 450.237C599.131 450.046 597.218 451.033 595.367 453.197C593.632 455.373 592.027 458.031 590.55 461.17C589.074 464.308 587.846 467.296 586.868 470.131C586.006 472.978 585.461 474.976 585.232 476.126C584.992 477.392 584.626 479.349 584.135 481.998C583.655 484.53 583.263 487.364 582.959 490.499C582.576 494.447 582.425 498.418 582.507 502.411C582.705 506.415 583.371 509.82 584.505 512.626C585.64 515.432 587.542 516.965 590.213 517.224ZM636.242 530.303C633.687 530.055 631.466 528.785 629.579 526.492C627.807 524.21 626.666 520.876 626.153 516.489C625.88 514.47 625.774 511.94 625.835 508.898C626.011 505.868 626.263 502.669 626.589 499.301C627.085 494.192 627.771 488.925 628.649 483.501C629.643 478.089 630.708 473.152 631.843 468.69C632.991 464.113 634.147 460.65 635.312 458.302C636.028 456.965 637.192 455.847 638.802 454.948C640.529 454.061 642.67 453.741 645.225 453.988C646.967 454.157 648.686 454.558 650.383 455.192C649.911 456.435 648.921 459.387 647.414 464.047C646.024 468.718 644.699 473.922 643.439 479.661C642.58 483.68 641.768 487.821 641.003 492.084C640.25 496.23 639.692 500.162 639.332 503.878C638.87 508.639 638.888 512.684 639.386 516.014C639.895 519.229 641.078 520.926 642.936 521.106C645.142 521.32 647.182 520.228 649.056 517.831C651.057 515.329 652.887 512.166 654.547 508.342C656.207 504.518 657.577 500.665 658.657 496.785C660.265 491.08 661.797 484.957 663.251 478.417C664.717 471.761 666.204 466.103 667.71 461.444C668.194 460.084 669.299 458.96 671.026 458.073C672.869 457.197 675.068 456.882 677.623 457.13C679.365 457.299 681.084 457.7 682.781 458.334C681.604 460.798 680.304 464.54 678.879 469.559C677.571 474.59 676.328 480.154 675.151 486.252C673.973 492.351 673.092 498.419 672.506 504.457C672.213 507.476 672.008 510.797 671.892 514.419C671.891 518.053 672.231 521.192 672.912 523.837C673.71 526.493 675.037 527.911 676.895 528.091L677.07 528.108C677.999 528.198 679.031 527.829 680.166 527.002C681.417 526.185 682.805 524.562 684.33 522.131C685.417 520.595 686.416 518.758 687.326 516.62C688.237 514.481 689.223 512.173 690.283 509.698C690.849 508.698 691.364 508.22 691.829 508.265C692.409 508.321 692.632 509.046 692.497 510.44L692.429 511.136C691.904 514.133 690.759 517.48 688.994 521.177C687.229 524.874 684.934 527.992 682.109 530.531C679.4 533.081 676.304 534.188 672.821 533.85C668.872 533.467 665.872 531.769 663.82 528.757C661.779 525.629 660.433 521.982 659.782 517.816C659.143 513.535 658.892 509.467 659.032 505.612C657.926 508.552 656.704 511.481 655.366 514.399C654.029 517.317 652.492 519.864 650.757 522.04C645.958 528.021 641.119 530.776 636.242 530.303Z" fill="#68513F"/>
</svg>
