<svg width="69" height="43" viewBox="0 0 69 43" fill="none" xmlns="http://www.w3.org/2000/svg">
<rect x="45" y="10" width="24" height="24" fill="#E7DED8"/>
<path d="M57 26.1094C56.4115 26.1094 55.9102 25.9492 55.4961 25.6289C55.082 25.306 54.7656 24.8385 54.5469 24.2266C54.3281 23.612 54.2188 22.8698 54.2188 22C54.2188 21.1354 54.3281 20.3971 54.5469 19.7852C54.7682 19.1706 55.0859 18.7018 55.5 18.3789C55.9167 18.0534 56.4167 17.8906 57 17.8906C57.5833 17.8906 58.082 18.0534 58.4961 18.3789C58.9128 18.7018 59.2305 19.1706 59.4492 19.7852C59.6706 20.3971 59.7813 21.1354 59.7813 22C59.7813 22.8698 59.6719 23.612 59.4531 24.2266C59.2344 24.8385 58.918 25.306 58.5039 25.6289C58.0898 25.9492 57.5885 26.1094 57 26.1094ZM57 25.25C57.5833 25.25 58.0365 24.9687 58.3594 24.4062C58.6823 23.8437 58.8438 23.0417 58.8438 22C58.8438 21.3073 58.7695 20.7174 58.6211 20.2305C58.4753 19.7435 58.2643 19.3724 57.9883 19.1172C57.7148 18.862 57.3854 18.7344 57 18.7344C56.4219 18.7344 55.9701 19.0195 55.6445 19.5898C55.319 20.1576 55.1563 20.9609 55.1563 22C55.1563 22.6927 55.2292 23.2812 55.375 23.7656C55.5208 24.25 55.7305 24.6185 56.0039 24.8711C56.2799 25.1237 56.612 25.25 57 25.25Z" fill="#68513F"/>
<path d="M11.446 18.5H9.94886C9.86032 18.0694 9.70537 17.6911 9.48402 17.3651C9.26669 17.0391 9.00107 16.7654 8.68715 16.544C8.37725 16.3187 8.03314 16.1496 7.65483 16.0369C7.27652 15.9242 6.8821 15.8679 6.47159 15.8679C5.72301 15.8679 5.04486 16.0571 4.43715 16.4354C3.83345 16.8137 3.35251 17.3711 2.99432 18.1076C2.64015 18.8441 2.46307 19.7476 2.46307 20.8182C2.46307 21.8887 2.64015 22.7923 2.99432 23.5288C3.35251 24.2653 3.83345 24.8227 4.43715 25.201C5.04486 25.5793 5.72301 25.7685 6.47159 25.7685C6.8821 25.7685 7.27652 25.7121 7.65483 25.5994C8.03314 25.4867 8.37725 25.3197 8.68715 25.0984C9.00107 24.873 9.26669 24.5973 9.48402 24.2713C9.70537 23.9413 9.86032 23.563 9.94886 23.1364H11.446C11.3333 23.7682 11.1281 24.3337 10.8303 24.8327C10.5324 25.3318 10.1622 25.7564 9.71946 26.1065C9.27675 26.4527 8.77971 26.7163 8.22834 26.8974C7.68099 27.0785 7.09541 27.169 6.47159 27.169C5.41714 27.169 4.4794 26.9115 3.65838 26.3963C2.83736 25.8812 2.19141 25.1487 1.72053 24.1989C1.24964 23.2491 1.0142 22.1222 1.0142 20.8182C1.0142 19.5142 1.24964 18.3873 1.72053 17.4375C2.19141 16.4877 2.83736 15.7552 3.65838 15.2401C4.4794 14.7249 5.41714 14.4673 6.47159 14.4673C7.09541 14.4673 7.68099 14.5579 8.22834 14.739C8.77971 14.9201 9.27675 15.1857 9.71946 15.5359C10.1622 15.882 10.5324 16.3046 10.8303 16.8036C11.1281 17.2987 11.3333 17.8641 11.446 18.5ZM16.4008 27.2173C15.8132 27.2173 15.28 27.1067 14.801 26.8853C14.3221 26.6599 13.9418 26.3359 13.6601 25.9134C13.3783 25.4867 13.2375 24.9716 13.2375 24.3679C13.2375 23.8366 13.3421 23.406 13.5514 23.076C13.7607 22.742 14.0404 22.4804 14.3905 22.2912C14.7407 22.102 15.127 21.9612 15.5496 21.8686C15.9762 21.772 16.4049 21.6955 16.8355 21.6392C17.3989 21.5668 17.8557 21.5124 18.2059 21.4762C18.56 21.436 18.8176 21.3696 18.9786 21.277C19.1436 21.1844 19.2261 21.0234 19.2261 20.794V20.7457C19.2261 20.1501 19.0631 19.6873 18.7371 19.3572C18.4152 19.0272 17.9262 18.8622 17.2702 18.8622C16.59 18.8622 16.0567 19.0111 15.6704 19.3089C15.284 19.6068 15.0123 19.9247 14.8554 20.2628L13.5031 19.7798C13.7446 19.2164 14.0666 18.7777 14.469 18.4638C14.8755 18.1458 15.3182 17.9245 15.7971 17.7997C16.2801 17.6709 16.755 17.6065 17.2219 17.6065C17.5197 17.6065 17.8618 17.6428 18.2481 17.7152C18.6385 17.7836 19.0148 17.9265 19.377 18.1438C19.7433 18.3612 20.0471 18.6892 20.2886 19.1278C20.5301 19.5665 20.6508 20.1541 20.6508 20.8906V27H19.2261V25.7443H19.1537C19.0571 25.9455 18.8961 26.1609 18.6707 26.3903C18.4453 26.6197 18.1455 26.8149 17.7712 26.9759C17.3969 27.1368 16.9401 27.2173 16.4008 27.2173ZM16.6182 25.9375C17.1816 25.9375 17.6565 25.8268 18.0429 25.6055C18.4333 25.3841 18.7271 25.0984 18.9243 24.7482C19.1255 24.3981 19.2261 24.0298 19.2261 23.6435V22.3395C19.1657 22.4119 19.0329 22.4783 18.8277 22.5387C18.6265 22.5951 18.393 22.6454 18.1274 22.6896C17.8658 22.7299 17.6102 22.7661 17.3607 22.7983C17.1152 22.8265 16.916 22.8506 16.7631 22.8707C16.3928 22.919 16.0467 22.9975 15.7247 23.1062C15.4068 23.2108 15.1492 23.3698 14.952 23.5831C14.7588 23.7924 14.6622 24.0781 14.6622 24.4403C14.6622 24.9354 14.8453 25.3097 15.2116 25.5632C15.5818 25.8127 16.0507 25.9375 16.6182 25.9375ZM23.2512 27V17.7273H24.6277V19.1278H24.7243C24.8933 18.669 25.1992 18.2968 25.6419 18.011C26.0846 17.7253 26.5836 17.5824 27.139 17.5824C27.2437 17.5824 27.3745 17.5844 27.5314 17.5884C27.6884 17.5924 27.8071 17.5985 27.8876 17.6065V19.0554C27.8393 19.0433 27.7286 19.0252 27.5556 19.0011C27.3865 18.9729 27.2074 18.9588 27.0183 18.9588C26.5675 18.9588 26.1651 19.0534 25.8109 19.2425C25.4608 19.4277 25.1831 19.6853 24.9778 20.0153C24.7766 20.3413 24.676 20.7135 24.676 21.1321V27H23.2512ZM34.1902 17.7273V18.9347H29.3848V17.7273H34.1902ZM30.7853 15.5057H32.21V24.3438C32.21 24.7462 32.2684 25.0481 32.3851 25.2493C32.5059 25.4465 32.6588 25.5793 32.8439 25.6477C33.0331 25.7121 33.2323 25.7443 33.4416 25.7443C33.5985 25.7443 33.7273 25.7363 33.8279 25.7202C33.9286 25.7 34.0091 25.6839 34.0694 25.6719L34.3592 26.9517C34.2626 26.9879 34.1278 27.0241 33.9547 27.0604C33.7817 27.1006 33.5623 27.1207 33.2967 27.1207C32.8942 27.1207 32.4998 27.0342 32.1135 26.8612C31.7311 26.6881 31.4132 26.4245 31.1596 26.0703C30.9101 25.7161 30.7853 25.2694 30.7853 24.7301V15.5057Z" fill="black"/>
</svg>
