<svg width="1340" height="231" viewBox="0 0 1340 231" fill="none" xmlns="http://www.w3.org/2000/svg">
<path d="M521.311 113.083C519.211 113.083 517.11 112.261 515.009 110.617C512.909 108.973 511.402 106.461 510.488 103.082C509.575 99.6113 508.936 95.6383 508.57 91.163C508.205 86.5963 508.022 81.8013 508.022 76.778C508.022 69.654 508.342 62.393 508.981 54.995C509.621 47.5057 510.443 40.4273 511.447 33.76C512.543 27.0927 513.685 21.4757 514.872 16.909C513.32 17.183 511.904 17.4113 510.625 17.594C509.347 17.7767 508.251 17.9593 507.337 18.142C502.679 18.964 498.432 19.923 494.596 21.019C490.852 22.115 487.838 23.348 485.554 24.718C483.362 26.088 482.266 27.6407 482.266 29.376C482.266 29.924 482.495 30.6547 482.951 31.568C483.134 31.9333 483.225 32.253 483.225 32.527C483.225 33.1663 482.951 33.486 482.403 33.486C481.673 33.486 480.759 32.938 479.663 31.842C478.841 31.1113 478.111 29.924 477.471 28.28C476.923 26.636 476.649 24.992 476.649 23.348C476.649 20.9733 477.289 19.1467 478.567 17.868C480.211 16.224 483.362 14.7627 488.02 13.484C492.77 12.2053 498.113 11.155 504.049 10.333C506.15 10.059 508.981 9.785 512.543 9.511C516.105 9.23699 519.987 9.09999 524.188 9.09999C529.577 9.09999 535.148 9.41966 540.902 10.059C546.656 10.6983 551.999 11.7943 556.931 13.347C561.955 14.8997 566.019 17.1373 569.124 20.06C572.23 22.8913 573.782 26.5447 573.782 31.02C573.782 36.0433 572.595 40.9753 570.22 45.816C567.846 50.5653 564.512 54.858 560.219 58.694C555.927 62.53 550.903 65.5897 545.149 67.873C539.395 70.065 533.139 71.161 526.38 71.161C524.919 71.161 523.458 71.1153 521.996 71.024C520.626 70.9327 519.165 70.75 517.612 70.476C517.43 72.2113 517.293 73.9467 517.201 75.682C517.11 77.4173 517.019 79.107 516.927 80.751C516.927 81.6643 516.882 82.669 516.79 83.765C516.79 84.861 516.79 86.0027 516.79 87.19C516.79 90.204 516.927 93.2637 517.201 96.369C517.567 99.4743 518.206 102.077 519.119 104.178C520.033 106.187 521.403 107.192 523.229 107.192C524.143 107.192 525.102 107.009 526.106 106.644C527.111 106.279 527.75 105.913 528.024 105.548H528.983C528.801 108.014 527.933 109.886 526.38 111.165C524.919 112.444 523.229 113.083 521.311 113.083ZM518.16 64.859H519.941C525.33 64.859 530.856 63.9913 536.518 62.256C542.181 60.4293 547.387 57.9177 552.136 54.721C556.886 51.5243 560.722 47.7797 563.644 43.487C566.567 39.103 568.028 34.3537 568.028 29.239C568.028 25.4943 566.567 22.6173 563.644 20.608C560.813 18.5987 557.114 17.2287 552.547 16.498C547.981 15.676 543.14 15.265 538.025 15.265C536.016 15.265 534.007 15.3107 531.997 15.402C529.988 15.4933 528.024 15.6303 526.106 15.813L526.517 16.635C526.243 17.8223 525.741 20.0143 525.01 23.211C524.371 26.3163 523.595 30.1067 522.681 34.582C521.859 38.966 521.037 43.761 520.215 48.967C519.393 54.173 518.708 59.4703 518.16 64.859ZM601.473 105.685C598.459 105.685 596.085 104.726 594.349 102.808C592.614 100.799 591.381 98.2413 590.65 95.136C590.011 91.9393 589.691 88.5143 589.691 84.861C589.691 80.9337 589.92 77.0977 590.376 73.353C590.924 69.517 591.472 66.1377 592.02 63.215C592.66 60.2923 593.116 58.283 593.39 57.187C590.833 57.0043 588.824 56.5933 587.362 55.954C585.901 55.3147 584.668 54.5383 583.663 53.625C583.298 58.009 582.704 62.7127 581.882 67.736C581.152 72.7593 580.284 77.6 579.279 82.258C578.275 86.8247 577.179 90.752 575.991 94.04C575.626 95.2273 575.032 95.821 574.21 95.821C573.571 95.821 573.251 95.41 573.251 94.588C573.251 94.4053 573.251 94.177 573.251 93.903C573.343 93.629 573.434 93.355 573.525 93.081C574.987 88.8797 576.22 84.313 577.224 79.381C578.229 74.3577 579.005 69.517 579.553 64.859C580.101 60.201 580.375 56.3193 580.375 53.214V51.707C578.092 50.7023 576.402 49.241 575.306 47.323C574.302 45.405 573.799 43.5783 573.799 41.843C573.799 40.5643 574.028 39.4227 574.484 38.418C575.032 37.4133 575.809 36.911 576.813 36.911H577.087C578.366 36.911 579.508 37.8243 580.512 39.651C581.517 41.3863 582.339 43.35 582.978 45.542C583.618 47.6427 583.937 49.3323 583.937 50.611C585.033 51.433 586.221 52.0267 587.499 52.392C588.869 52.7573 590.011 52.94 590.924 52.94C592.112 52.94 592.888 52.7573 593.253 52.392C593.984 51.6613 594.852 50.611 595.856 49.241C596.952 47.871 598.642 47.186 600.925 47.186C602.478 47.186 604.35 47.6427 606.542 48.556C605.446 50.8393 604.442 53.4423 603.528 56.365C602.615 59.1963 601.839 62.2103 601.199 65.407C601.108 66.1377 600.88 67.599 600.514 69.791C600.149 71.983 599.829 74.4947 599.555 77.326C599.281 80.1573 599.144 82.9887 599.144 85.82C599.144 89.8387 599.555 93.4007 600.377 96.506C601.291 99.52 602.935 101.027 605.309 101.027C606.771 101.027 608.049 100.433 609.145 99.246C610.241 98.0587 611.2 96.5973 612.022 94.862C612.844 93.0353 613.529 91.3 614.077 89.656C614.625 87.9207 615.036 86.5507 615.31 85.546C615.493 84.724 615.858 84.313 616.406 84.313C616.863 84.313 617.091 84.8153 617.091 85.82V86.505C617.091 90.7063 616.315 94.2683 614.762 97.191C613.301 100.022 611.383 102.169 609.008 103.63C606.634 105 604.122 105.685 601.473 105.685ZM629.847 106.37C626.742 106.37 624.185 105.548 622.175 103.904C620.257 102.26 618.75 100.114 617.654 97.465C616.65 94.8163 615.919 91.9393 615.462 88.834C615.097 85.6373 614.914 82.532 614.914 79.518C614.914 77.2347 615.006 75.134 615.188 73.216C615.371 71.2067 615.508 69.4713 615.599 68.01C616.056 64.174 617.061 60.338 618.613 56.502C620.166 52.5747 622.449 49.3323 625.463 46.775C628.477 44.1263 632.45 42.802 637.382 42.802C640.853 42.802 643.502 43.9437 645.328 46.227C647.246 48.419 648.571 51.296 649.301 54.858C650.032 58.3287 650.397 62.0277 650.397 65.955C650.397 67.051 650.352 68.147 650.26 69.243C650.26 70.339 650.215 71.435 650.123 72.531C652.407 75.0883 655.147 76.367 658.343 76.367C660.809 76.367 663.23 75.4537 665.604 73.627C666.152 73.1703 666.655 72.942 667.111 72.942C667.477 72.942 667.659 73.1703 667.659 73.627C667.659 74.449 667.431 74.997 666.974 75.271C665.513 76.641 663.96 77.6457 662.316 78.285C660.672 78.9243 659.028 79.244 657.384 79.244C654.553 79.244 651.95 78.422 649.575 76.778C649.393 78.5133 649.119 80.1573 648.753 81.71C648.479 83.1713 648.205 84.45 647.931 85.546C647.109 88.3773 645.876 91.437 644.232 94.725C642.68 97.9217 640.67 100.662 638.204 102.945C635.83 105.228 633.044 106.37 629.847 106.37ZM634.368 98.835C636.286 98.835 637.885 97.9217 639.163 96.095C640.533 94.2683 641.675 92.1677 642.588 89.793C643.502 87.4183 644.141 85.409 644.506 83.765C644.78 82.4863 645.009 81.025 645.191 79.381C645.374 77.737 645.511 75.7733 645.602 73.49C644.324 72.394 643.228 70.4303 642.314 67.599C641.492 64.6763 641.081 61.8907 641.081 59.242C641.081 57.4153 641.31 55.817 641.766 54.447C642.223 52.9857 642.908 52.0267 643.821 51.57C643.273 50.2 642.543 48.9213 641.629 47.734C640.716 46.4553 639.437 45.816 637.793 45.816C636.241 45.816 634.825 46.7293 633.546 48.556C632.359 50.3827 631.309 52.5747 630.395 55.132C629.482 57.6893 628.751 60.1097 628.203 62.393C627.747 64.6763 627.473 66.2747 627.381 67.188C627.29 68.1927 627.153 69.7453 626.97 71.846C626.788 73.8553 626.696 76.093 626.696 78.559C626.696 81.6643 626.879 84.7697 627.244 87.875C627.701 90.9803 628.477 93.5833 629.573 95.684C630.669 97.7847 632.268 98.835 634.368 98.835ZM699.444 105.685C696.156 105.685 693.645 104.315 691.909 101.575C690.265 98.835 689.124 95.3187 688.484 91.026C687.936 86.7333 687.662 82.258 687.662 77.6C686.475 81.984 684.968 86.3223 683.141 90.615C681.315 94.9077 679.26 98.4697 676.976 101.301C674.784 104.132 672.455 105.548 669.989 105.548C667.797 105.548 666.016 104.543 664.646 102.534C663.276 100.433 662.272 97.6933 661.632 94.314C660.993 90.9347 660.673 87.2813 660.673 83.354C660.673 80.5227 660.902 77.326 661.358 73.764C661.815 70.202 662.546 66.64 663.55 63.078C664.555 59.516 665.925 56.2737 667.66 53.351C669.487 50.337 671.725 47.9167 674.373 46.09C677.022 44.2633 680.173 43.35 683.826 43.35C685.927 43.35 687.617 43.8067 688.895 44.72C689.078 39.8793 689.306 35.2213 689.58 30.746C689.854 26.2707 690.174 22.7543 690.539 20.197C690.813 18.4617 691.179 16.498 691.635 14.306C692.183 12.114 692.914 10.0133 693.827 8.004C694.832 5.90333 696.019 4.168 697.389 2.79799C698.851 1.42799 700.586 0.742995 702.595 0.742995C705.153 0.742995 707.071 1.38233 708.349 2.66099C709.628 3.84833 710.496 5.40099 710.952 7.31899C711.5 9.14566 711.774 11.1093 711.774 13.21C711.774 14.3973 711.729 15.6303 711.637 16.909C711.546 18.0963 711.409 19.1923 711.226 20.197C710.678 24.6723 709.628 29.6043 708.075 34.993C706.523 40.3817 704.696 45.6333 702.595 50.748C700.586 55.7713 698.622 60.1097 696.704 63.763C696.613 64.4023 696.522 65.818 696.43 68.01C696.339 70.202 696.293 72.7593 696.293 75.682C696.293 78.422 696.339 81.299 696.43 84.313C696.613 87.2357 696.933 89.9757 697.389 92.533C697.846 94.999 698.44 97.054 699.17 98.698C699.992 100.251 701.043 101.027 702.321 101.027C703.6 101.027 704.742 100.433 705.746 99.246C706.751 97.9673 707.664 96.4147 708.486 94.588C709.308 92.7613 709.948 91.026 710.404 89.382C710.952 87.6467 711.363 86.368 711.637 85.546C711.82 84.8153 712.185 84.45 712.733 84.45C713.19 84.45 713.418 84.9523 713.418 85.957V86.642C713.418 89.108 712.825 91.848 711.637 94.862C710.541 97.7847 708.943 100.342 706.842 102.534C704.833 104.635 702.367 105.685 699.444 105.685ZM696.43 57.735C698.166 53.9903 699.81 49.789 701.362 45.131C702.915 40.3817 704.194 35.541 705.198 30.609C706.294 25.677 706.842 21.0647 706.842 16.772C706.842 16.0413 706.842 15.3563 706.842 14.717C706.842 14.0777 706.797 13.4383 706.705 12.799C706.614 11.5203 706.34 10.4243 705.883 9.511C705.427 8.50633 704.833 8.004 704.102 8.004C703.737 8.004 703.28 8.32366 702.732 8.963C702.184 9.51099 701.636 10.5613 701.088 12.114C700.814 12.936 700.449 14.8083 699.992 17.731C699.627 20.5623 699.216 23.9417 698.759 27.869C698.394 31.705 698.029 35.6323 697.663 39.651C697.298 43.5783 696.978 47.1403 696.704 50.337C696.522 53.4423 696.43 55.6343 696.43 56.913V57.735ZM674.784 94.314C676.337 94.314 677.798 93.218 679.168 91.026C680.538 88.7427 681.771 86.0027 682.867 82.806C684.055 79.6093 685.014 76.5953 685.744 73.764C686.749 70.1107 687.434 66.4573 687.799 62.804C688.256 59.0593 688.53 55.3147 688.621 51.57L688.758 47.734C688.21 47.46 687.571 47.323 686.84 47.323C684.831 47.323 682.776 48.3277 680.675 50.337C678.575 52.255 676.885 54.5383 675.606 57.187C673.962 60.6577 672.729 64.722 671.907 69.38C671.177 74.038 670.811 78.422 670.811 82.532C670.811 83.1713 670.811 83.8563 670.811 84.587C670.811 85.3177 670.857 86.0027 670.948 86.642C671.131 89.382 671.588 91.3457 672.318 92.533C673.049 93.7203 673.871 94.314 674.784 94.314ZM721.929 105.548C719.919 105.548 718.093 104.726 716.449 103.082C714.896 101.438 713.754 98.9263 713.024 95.547C712.658 93.9943 712.384 92.0307 712.202 89.656C712.11 87.2813 712.065 84.7697 712.065 82.121C712.065 78.1023 712.202 73.9467 712.476 69.654C712.841 65.3613 713.298 61.434 713.846 57.872C714.394 54.2187 715.033 51.433 715.764 49.515C716.22 48.419 717.042 47.46 718.23 46.638C719.508 45.816 721.152 45.405 723.162 45.405C724.532 45.405 725.902 45.5877 727.272 45.953C726.998 46.9577 726.45 49.3323 725.628 53.077C724.897 56.8217 724.258 60.9773 723.71 65.544C723.344 68.7407 723.025 72.0287 722.751 75.408C722.477 78.696 722.34 81.8013 722.34 84.724C722.34 88.4687 722.659 91.6197 723.299 94.177C723.938 96.643 724.988 97.876 726.45 97.876C728.185 97.876 729.692 96.8713 730.971 94.862C732.341 92.7613 733.528 90.1583 734.533 87.053C735.537 83.9477 736.314 80.8423 736.862 77.737C737.684 73.1703 738.414 68.284 739.054 63.078C739.693 57.7807 740.424 53.2597 741.246 49.515C741.52 48.419 742.296 47.46 743.575 46.638C744.945 45.816 746.634 45.405 748.644 45.405C750.014 45.405 751.384 45.5877 752.754 45.953C752.023 47.9623 751.292 50.9763 750.562 54.995C749.922 59.0137 749.374 63.4433 748.918 68.284C748.461 73.1247 748.233 77.9197 748.233 82.669C748.233 85.0437 748.324 87.6467 748.507 90.478C748.781 93.3093 749.283 95.7297 750.014 97.739C750.836 99.7483 751.977 100.753 753.439 100.753H753.576C754.306 100.753 755.083 100.388 755.905 99.657C756.818 98.9263 757.777 97.5563 758.782 95.547C759.512 94.2683 760.152 92.7613 760.7 91.026C761.248 89.2907 761.841 87.4183 762.481 85.409C762.846 84.587 763.211 84.176 763.577 84.176C764.033 84.176 764.262 84.724 764.262 85.82V86.368C764.079 88.7427 763.44 91.437 762.344 94.451C761.248 97.465 759.695 100.068 757.686 102.26C755.768 104.452 753.439 105.548 750.699 105.548C747.593 105.548 745.127 104.452 743.301 102.26C741.474 99.9767 740.15 97.2367 739.328 94.04C738.506 90.752 738.003 87.601 737.821 84.587C737.181 86.9617 736.451 89.3363 735.629 91.711C734.807 94.0857 733.802 96.1863 732.615 98.013C729.327 103.036 725.765 105.548 721.929 105.548ZM781.262 107.055C777.061 107.055 773.636 106.096 770.987 104.178C768.339 102.169 766.329 99.6113 764.959 96.506C763.681 93.3093 762.904 89.8843 762.63 86.231C762.539 85.5003 762.493 84.8153 762.493 84.176C762.493 83.4453 762.493 82.7147 762.493 81.984C762.493 78.2393 762.859 74.2663 763.589 70.065C764.411 65.7723 765.736 61.7537 767.562 58.009C769.389 54.2643 771.764 51.2047 774.686 48.83C777.7 46.4553 781.399 45.268 785.783 45.268C788.523 45.268 790.715 46.3183 792.359 48.419C794.095 50.4283 794.962 52.7573 794.962 55.406C794.962 58.2373 794.506 60.338 793.592 61.708C792.679 62.9867 791.583 63.626 790.304 63.626C788.112 63.626 787.016 61.297 787.016 56.639C787.016 54.8123 786.742 53.1227 786.194 51.57C785.646 50.0173 784.596 49.241 783.043 49.241C781.308 49.241 779.847 50.1087 778.659 51.844C777.563 53.488 776.65 55.6343 775.919 58.283C775.189 60.8403 774.595 63.5803 774.138 66.503C773.773 69.3343 773.499 72.0287 773.316 74.586C773.225 77.052 773.179 78.97 773.179 80.34V80.888C773.179 84.6327 773.499 88.149 774.138 91.437C774.778 94.725 775.965 97.3737 777.7 99.383C779.436 101.392 781.856 102.397 784.961 102.397C787.975 102.397 790.487 101.575 792.496 99.931C794.506 98.1957 796.104 96.095 797.291 93.629C798.57 91.0717 799.529 88.4687 800.168 85.82C800.899 83.1713 801.447 80.9337 801.812 79.107C802.086 78.011 802.452 77.463 802.908 77.463C803.548 77.463 803.867 78.2393 803.867 79.792C803.867 80.066 803.822 80.4313 803.73 80.888C803.73 81.2533 803.685 81.6643 803.593 82.121C802.68 86.5963 801.493 90.752 800.031 94.588C798.57 98.3327 796.378 101.347 793.455 103.63C790.533 105.913 786.468 107.055 781.262 107.055ZM813.097 105.685C810.357 105.685 808.119 104.817 806.384 103.082C804.74 101.347 803.461 99.1547 802.548 96.506C801.634 93.8573 800.995 91.1173 800.63 88.286C800.356 85.4547 800.219 82.943 800.219 80.751V78.696C800.31 77.6 800.401 75.545 800.493 72.531C800.584 69.517 800.721 66.0007 800.904 61.982C801.086 57.872 801.36 53.7163 801.726 49.515H797.479C796.748 49.515 796.383 49.0583 796.383 48.145C796.383 47.6883 796.565 47.2317 796.931 46.775C797.205 46.227 797.57 45.953 798.027 45.953H802C802.365 41.6603 802.776 37.7787 803.233 34.308C803.689 30.8373 804.237 28.3713 804.877 26.91C805.333 25.9053 806.155 25.0377 807.343 24.307C808.53 23.485 810.128 23.074 812.138 23.074C812.686 23.074 813.279 23.1197 813.919 23.211C814.649 23.3023 815.334 23.4393 815.974 23.622C815.517 25.1747 814.969 28.006 814.33 32.116C813.782 36.1347 813.279 40.747 812.823 45.953H823.783C824.605 45.953 825.016 46.4553 825.016 47.46C825.016 47.9167 824.879 48.3733 824.605 48.83C824.331 49.2867 823.92 49.515 823.372 49.515H812.412C811.955 54.5383 811.59 59.7443 811.316 65.133C811.042 70.4303 810.859 75.3167 810.768 79.792V82.943C810.768 85.3177 810.859 87.9207 811.042 90.752C811.224 93.5833 811.681 96.0037 812.412 98.013C813.142 100.022 814.238 101.027 815.7 101.027H815.837C816.567 101.027 817.344 100.662 818.166 99.931C819.079 99.2003 820.038 97.8303 821.043 95.821C821.773 94.5423 822.413 93.0353 822.961 91.3C823.6 89.4733 824.239 87.5553 824.879 85.546C825.244 84.724 825.609 84.313 825.975 84.313C826.431 84.313 826.66 84.861 826.66 85.957V86.505C826.477 88.8797 825.838 91.574 824.742 94.588C823.646 97.602 822.093 100.205 820.084 102.397C818.166 104.589 815.837 105.685 813.097 105.685ZM838.399 106.507C834.289 106.507 830.818 105.548 827.987 103.63C825.247 101.621 823.877 98.1043 823.877 93.081C823.877 92.8983 823.877 92.4873 823.877 91.848C823.968 91.1173 824.06 90.3867 824.151 89.656C823.603 88.6513 823.329 87.2813 823.329 85.546C823.329 84.45 823.512 83.491 823.877 82.669C824.242 81.847 824.79 81.436 825.521 81.436H825.658C825.932 81.436 826.297 81.7557 826.754 82.395C827.941 79.0157 829.037 75.545 830.042 71.983C831.047 68.3297 831.96 65.0873 832.782 62.256C833.695 58.968 834.837 55.4517 836.207 51.707C837.668 47.871 839.952 44.9483 843.057 42.939C845.432 41.3863 847.989 40.61 850.729 40.61C850.912 40.61 851.14 40.6557 851.414 40.747C851.688 40.747 851.916 40.747 852.099 40.747C852.83 40.8383 853.195 41.158 853.195 41.706C853.195 42.3453 852.875 42.665 852.236 42.665C851.231 42.7563 850.501 43.5783 850.044 45.131C849.587 46.5923 849.359 48.282 849.359 50.2C849.359 50.6567 849.359 51.159 849.359 51.707C849.359 52.255 849.405 52.7573 849.496 53.214C849.861 56.228 850.683 59.5617 851.962 63.215C853.241 66.777 854.428 70.3847 855.524 74.038C856.711 77.6 857.305 80.9337 857.305 84.039V84.724C857.305 85.9113 857.214 87.19 857.031 88.56C856.94 89.93 856.666 91.2543 856.209 92.533C857.488 92.4417 858.721 92.3047 859.908 92.122C861.187 91.848 862.328 91.5283 863.333 91.163C864.612 90.615 865.616 89.9757 866.347 89.245C867.169 88.5143 867.854 87.6923 868.402 86.779C868.585 86.505 868.813 86.368 869.087 86.368C869.818 86.368 870.183 86.8247 870.183 87.738C870.183 88.012 870.092 88.3317 869.909 88.697C868.904 90.7063 867.078 92.3503 864.429 93.629C861.78 94.9077 858.675 95.6383 855.113 95.821C853.834 98.7437 851.825 101.255 849.085 103.356C846.436 105.457 842.874 106.507 838.399 106.507ZM844.975 91.026C845.158 90.0213 845.295 88.971 845.386 87.875C845.477 86.779 845.523 85.683 845.523 84.587C845.523 82.8517 845.432 81.1163 845.249 79.381C845.066 77.5543 844.838 75.7733 844.564 74.038C843.925 69.7453 843.148 65.818 842.235 62.256C841.413 58.694 841.002 55.4973 841.002 52.666C841.002 51.2047 841.139 49.8803 841.413 48.693C840.956 48.693 840.454 49.378 839.906 50.748C839.358 52.118 838.81 53.6707 838.262 55.406C837.714 57.1413 837.257 58.694 836.892 60.064C835.796 63.9913 834.609 68.0557 833.33 72.257C832.051 76.367 830.681 80.4313 829.22 84.45C830.225 85.0893 831.366 85.7287 832.645 86.368C834.015 87.0073 835.339 87.601 836.618 88.149C837.805 88.697 839.084 89.245 840.454 89.793C841.915 90.2497 843.422 90.6607 844.975 91.026ZM834.7 101.986H835.248C836.892 101.803 838.536 101.255 840.18 100.342C841.824 99.3373 843.011 97.8303 843.742 95.821C843.742 95.7297 843.742 95.684 843.742 95.684C843.833 95.5927 843.879 95.5013 843.879 95.41C840.5 95.136 837.303 94.725 834.289 94.177C831.366 93.5377 828.992 92.7613 827.165 91.848C827.165 92.122 827.119 92.396 827.028 92.67C827.028 92.944 827.028 93.1723 827.028 93.355C827.028 96.095 827.713 98.2413 829.083 99.794C830.544 101.255 832.417 101.986 834.7 101.986Z" fill="#68513F"/>
<path d="M391.207 164.18C391.207 163.313 391.099 162.707 390.882 162.36C390.665 161.97 390.297 161.753 389.777 161.71L386.332 161.32V160.28C387.155 160.367 388.217 160.432 389.517 160.475C390.86 160.518 392.464 160.54 394.327 160.54C396.19 160.54 397.772 160.518 399.072 160.475C400.415 160.432 401.477 160.367 402.257 160.28V161.32L397.642 161.97C397.079 162.057 396.71 162.252 396.537 162.555C396.364 162.858 396.277 163.422 396.277 164.245V196.68C396.277 197.59 396.364 198.24 396.537 198.63C396.754 199.02 397.252 199.28 398.032 199.41L403.037 200.32V201.36C401.954 201.273 400.697 201.208 399.267 201.165C397.88 201.122 396.299 201.1 394.522 201.1C392.789 201.1 391.185 201.122 389.712 201.165C388.282 201.208 387.004 201.273 385.877 201.36V200.32L389.907 199.67C390.427 199.583 390.774 199.323 390.947 198.89C391.12 198.457 391.207 197.72 391.207 196.68V181.665H367.872V196.68C367.872 197.763 367.959 198.522 368.132 198.955C368.305 199.345 368.674 199.583 369.237 199.67L373.267 200.32V201.36C372.14 201.273 370.84 201.208 369.367 201.165C367.937 201.122 366.334 201.1 364.557 201.1C362.824 201.1 361.242 201.122 359.812 201.165C358.425 201.208 357.19 201.273 356.107 201.36V200.32L361.112 199.41C361.805 199.28 362.26 199.02 362.477 198.63C362.694 198.24 362.802 197.59 362.802 196.68V164.18C362.802 163.313 362.694 162.707 362.477 162.36C362.26 161.97 361.892 161.753 361.372 161.71L357.927 161.32V160.28C358.75 160.367 359.834 160.432 361.177 160.475C362.52 160.518 364.167 160.54 366.117 160.54C368.067 160.54 369.692 160.518 370.992 160.475C372.335 160.432 373.397 160.367 374.177 160.28V161.32L369.237 161.97C368.674 162.057 368.305 162.252 368.132 162.555C367.959 162.858 367.872 163.422 367.872 164.245V179.78H391.207V164.18ZM429.217 184.785H411.082C410.952 185.652 410.887 186.518 410.887 187.385C410.887 189.075 411.125 190.635 411.602 192.065C412.079 193.452 412.75 194.643 413.617 195.64C414.527 196.637 415.61 197.417 416.867 197.98C418.167 198.543 419.597 198.825 421.157 198.825C422.674 198.825 424.06 198.522 425.317 197.915C426.574 197.308 427.939 196.312 429.412 194.925L429.672 196.485C426.595 200.255 422.674 202.14 417.907 202.14C416.347 202.14 414.874 201.793 413.487 201.1C412.144 200.407 410.974 199.475 409.977 198.305C408.98 197.092 408.2 195.683 407.637 194.08C407.074 192.433 406.792 190.657 406.792 188.75C406.792 186.843 407.095 185.067 407.702 183.42C408.352 181.773 409.24 180.343 410.367 179.13C411.494 177.873 412.815 176.898 414.332 176.205C415.849 175.512 417.517 175.165 419.337 175.165C420.724 175.165 422.002 175.403 423.172 175.88C424.342 176.313 425.36 176.963 426.227 177.83C427.137 178.653 427.83 179.672 428.307 180.885C428.827 182.055 429.13 183.355 429.217 184.785ZM411.407 183.42H421.287C422.674 183.42 423.692 183.333 424.342 183.16C425.035 182.943 425.209 182.25 424.862 181.08C424.515 179.953 423.909 178.935 423.042 178.025C422.219 177.115 420.962 176.66 419.272 176.66C417.192 176.66 415.459 177.267 414.072 178.48C412.729 179.693 411.84 181.34 411.407 183.42ZM445.509 201.815C443.732 201.815 442.172 201.512 440.829 200.905C439.485 200.255 438.359 199.388 437.449 198.305C436.582 197.222 435.932 195.943 435.499 194.47C435.065 192.997 434.849 191.415 434.849 189.725C434.849 187.428 435.239 185.413 436.019 183.68C436.799 181.903 437.817 180.43 439.074 179.26C440.33 178.09 441.76 177.202 443.364 176.595C444.967 175.988 446.592 175.685 448.239 175.685C449.019 175.685 449.777 175.772 450.514 175.945C451.25 176.118 451.9 176.313 452.464 176.53C453.114 176.747 453.72 177.007 454.284 177.31L457.859 175.49L458.444 175.685C458.444 179.065 458.444 182.445 458.444 185.825C458.487 189.205 458.509 192.585 458.509 195.965C458.509 197.698 459.245 198.522 460.719 198.435C461.065 198.435 461.347 198.392 461.564 198.305C461.824 198.175 462.062 198.045 462.279 197.915C462.495 197.742 462.69 197.568 462.864 197.395L463.514 197.72C463.21 198.5 462.82 199.193 462.344 199.8C461.954 200.32 461.455 200.797 460.849 201.23C460.242 201.62 459.505 201.815 458.639 201.815C457.252 201.815 456.255 201.36 455.649 200.45C455.042 199.54 454.739 198.262 454.739 196.615V194.73C454.435 195.64 454.024 196.528 453.504 197.395C453.027 198.218 452.42 198.977 451.684 199.67C450.947 200.32 450.059 200.84 449.019 201.23C448.022 201.62 446.852 201.815 445.509 201.815ZM454.804 187.515C454.804 184.395 454.24 181.968 453.114 180.235C452.03 178.458 450.102 177.57 447.329 177.57C446.375 177.57 445.379 177.765 444.339 178.155C443.299 178.545 442.345 179.173 441.479 180.04C440.612 180.863 439.897 181.947 439.334 183.29C438.77 184.633 438.489 186.237 438.489 188.1C438.489 189.573 438.684 190.982 439.074 192.325C439.464 193.625 440.005 194.795 440.699 195.835C441.435 196.832 442.324 197.633 443.364 198.24C444.447 198.803 445.66 199.085 447.004 199.085C448.087 199.085 449.105 198.825 450.059 198.305C451.012 197.742 451.835 196.983 452.529 196.03C453.222 195.033 453.764 193.885 454.154 192.585C454.587 191.242 454.804 189.79 454.804 188.23V187.515ZM481.184 201.295C480.144 201.252 478.996 201.208 477.739 201.165C476.483 201.122 475.226 201.1 473.969 201.1C472.713 201.1 471.456 201.122 470.199 201.165C468.943 201.208 467.794 201.252 466.754 201.295V200.255L470.784 199.475C471.348 199.345 471.738 199.172 471.954 198.955C472.171 198.738 472.279 198.305 472.279 197.655V164.635C472.279 163.725 472.019 163.053 471.499 162.62C470.979 162.187 469.831 161.71 468.054 161.19V160.345C469.788 159.998 472.019 159.283 474.749 158.2H476.244V197.525C476.244 198.348 476.331 198.89 476.504 199.15C476.678 199.367 477.089 199.54 477.739 199.67L481.184 200.255V201.295ZM492.784 169.77H493.564C493.564 170.94 493.564 172.11 493.564 173.28C493.608 174.407 493.629 175.555 493.629 176.725L502.469 176.53V178.87L493.629 179.13V192.39C493.629 194.99 493.803 196.962 494.149 198.305C494.539 199.605 495.579 200.212 497.269 200.125C498.569 200.038 500.281 199.432 502.404 198.305L502.989 199.215C502.079 200.255 501.018 201.013 499.804 201.49C498.634 201.923 496.966 202.14 494.799 202.14C493.716 202.14 492.828 202.032 492.134 201.815C491.441 201.555 490.899 201.122 490.509 200.515C490.119 199.865 489.859 199.02 489.729 197.98C489.599 196.94 489.534 195.597 489.534 193.95V179.26C488.928 179.26 488.343 179.282 487.779 179.325C487.216 179.325 486.631 179.325 486.024 179.325C485.418 179.325 485.114 179.173 485.114 178.87C485.114 178.523 485.396 178.22 485.959 177.96C487.866 177.137 489.209 176.248 489.989 175.295C490.423 174.775 490.878 174.06 491.354 173.15C491.831 172.24 492.308 171.113 492.784 169.77ZM510.16 165.155C510.16 164.592 510.095 164.115 509.965 163.725C509.878 163.335 509.661 163.01 509.315 162.75C509.011 162.447 508.535 162.187 507.885 161.97C507.278 161.753 506.433 161.537 505.35 161.32V160.54C507.213 160.453 509.596 159.673 512.5 158.2H514.06V181.145C517.266 177.158 520.733 175.165 524.46 175.165C524.806 175.165 525.153 175.187 525.5 175.23C525.89 175.273 526.258 175.338 526.605 175.425C528.295 175.902 529.638 176.877 530.635 178.35C531.631 179.78 532.13 181.665 532.13 184.005V198.045C532.13 198.478 532.216 198.825 532.39 199.085C532.563 199.302 533.018 199.497 533.755 199.67L536.615 200.32V201.36C535.271 201.273 534.058 201.208 532.975 201.165C531.935 201.122 531.046 201.1 530.31 201.1C529.573 201.1 528.685 201.122 527.645 201.165C526.605 201.208 525.413 201.273 524.07 201.36V200.32L526.735 199.605C527.298 199.432 527.688 199.237 527.905 199.02C528.165 198.803 528.295 198.327 528.295 197.59V184.135C528.295 182.315 527.753 180.863 526.67 179.78C525.586 178.697 524.2 178.155 522.51 178.155C520.82 178.155 519.346 178.588 518.09 179.455C516.833 180.278 515.49 181.6 514.06 183.42V197.59C514.06 198.11 514.125 198.478 514.255 198.695C514.428 198.912 514.775 199.085 515.295 199.215L519.715 200.32V201.36C519.021 201.273 518.068 201.208 516.855 201.165C515.685 201.122 514.233 201.1 512.5 201.1C510.766 201.1 509.293 201.122 508.08 201.165C506.91 201.208 505.978 201.273 505.285 201.36V200.32L508.795 199.605C509.358 199.475 509.726 199.345 509.9 199.215C510.073 199.042 510.16 198.695 510.16 198.175V165.155ZM551.059 207.73C550.279 209.81 549.348 211.348 548.264 212.345C547.224 213.385 546.098 213.905 544.884 213.905C544.061 213.905 543.433 213.645 542.999 213.125C542.566 212.605 542.349 212.042 542.349 211.435C542.349 210.915 542.523 210.46 542.869 210.07C543.216 209.68 543.758 209.485 544.494 209.485C545.014 209.485 545.469 209.528 545.859 209.615C546.249 209.702 546.618 209.788 546.964 209.875C547.311 209.962 547.571 210.005 547.744 210.005C547.961 210.005 548.178 209.897 548.394 209.68C548.524 209.55 548.633 209.442 548.719 209.355C548.849 209.312 548.979 209.182 549.109 208.965C549.239 208.792 549.391 208.51 549.564 208.12C549.781 207.73 550.019 207.145 550.279 206.365C550.843 204.762 551.124 203.7 551.124 203.18C551.124 202.487 550.908 201.62 550.474 200.58L542.544 179.585C542.198 178.588 541.634 177.982 540.854 177.765L538.449 177.05V176.01C541.179 176.227 543.584 176.335 545.664 176.335C547.744 176.335 549.694 176.227 551.514 176.01V177.05C551.038 177.137 550.474 177.223 549.824 177.31C549.218 177.353 548.654 177.462 548.134 177.635C547.614 177.765 547.203 177.982 546.899 178.285C546.596 178.588 546.553 179.022 546.769 179.585L553.334 198.11L559.379 181.34C559.596 180.733 559.683 180.083 559.639 179.39C559.639 178.653 559.271 178.177 558.534 177.96L554.894 177.05V176.01C556.844 176.227 558.621 176.335 560.224 176.335C561.871 176.335 563.778 176.227 565.944 176.01V177.05L563.864 177.635C563.258 177.808 562.738 178.177 562.304 178.74C561.871 179.26 561.351 180.343 560.744 181.99L551.059 207.73ZM599.809 182.38C599.636 181.687 599.311 180.993 598.834 180.3C598.357 179.607 597.816 179 597.209 178.48C596.646 177.917 596.039 177.483 595.389 177.18C594.739 176.833 594.154 176.66 593.634 176.66C590.471 176.66 588.889 178.112 588.889 181.015C588.889 182.185 589.409 183.182 590.449 184.005C591.489 184.785 593.071 185.565 595.194 186.345C600.091 188.252 602.539 190.895 602.539 194.275C602.539 195.488 602.301 196.593 601.824 197.59C601.347 198.543 600.697 199.367 599.874 200.06C599.051 200.71 598.076 201.23 596.949 201.62C595.866 201.967 594.717 202.14 593.504 202.14C590.427 202.14 587.871 201.577 585.834 200.45L585.184 193.105H586.289C586.592 194.275 587.026 195.337 587.589 196.29C588.152 197.2 588.781 198.002 589.474 198.695C590.167 199.345 590.904 199.865 591.684 200.255C592.507 200.602 593.309 200.775 594.089 200.775C595.649 200.775 596.906 200.342 597.859 199.475C598.812 198.608 599.289 197.482 599.289 196.095C599.289 193.582 597.252 191.588 593.179 190.115C590.319 189.032 588.261 187.905 587.004 186.735C585.791 185.522 585.184 183.94 585.184 181.99C585.184 179.91 586.029 178.263 587.719 177.05C589.409 175.793 591.511 175.165 594.024 175.165C596.667 175.165 598.877 175.685 600.654 176.725L601.044 182.38H599.809ZM636.354 201.36C635.531 201.273 634.512 201.208 633.299 201.165C632.129 201.122 630.786 201.1 629.269 201.1C627.752 201.1 626.387 201.122 625.174 201.165C624.004 201.208 623.007 201.273 622.184 201.36V200.32L625.174 200.06C626.127 200.017 626.604 199.822 626.604 199.475C626.604 199.258 626.496 198.977 626.279 198.63C626.062 198.283 625.737 197.85 625.304 197.33C624.871 196.767 624.307 196.073 623.614 195.25C622.964 194.427 622.184 193.408 621.274 192.195C620.581 191.285 619.996 190.548 619.519 189.985C619.086 189.422 618.717 188.988 618.414 188.685C618.111 188.382 617.851 188.187 617.634 188.1C617.461 187.97 617.287 187.905 617.114 187.905C616.984 187.905 616.854 187.927 616.724 187.97C616.594 187.97 616.442 187.97 616.269 187.97H615.099V197.2C615.099 198.283 615.207 198.977 615.424 199.28C615.641 199.54 616.074 199.735 616.724 199.865L619.194 200.32V201.36C618.501 201.273 617.656 201.208 616.659 201.165C615.662 201.122 614.471 201.1 613.084 201.1C611.697 201.1 610.506 201.122 609.509 201.165C608.512 201.208 607.667 201.273 606.974 201.36V200.32L609.379 199.93C610.159 199.843 610.657 199.648 610.874 199.345C611.091 198.998 611.199 198.283 611.199 197.2V164.895C611.199 164.375 611.156 163.963 611.069 163.66C610.982 163.357 610.787 163.118 610.484 162.945C610.224 162.728 609.834 162.555 609.314 162.425C608.794 162.295 608.079 162.165 607.169 162.035V161.125C609.336 160.692 611.632 159.717 614.059 158.2H615.099V186.865C615.966 186.865 616.832 186.605 617.699 186.085C618.566 185.565 619.714 184.72 621.144 183.55C622.617 182.38 623.636 181.492 624.199 180.885C624.806 180.235 625.109 179.715 625.109 179.325C625.109 178.458 623.722 177.808 620.949 177.375V176.335H634.144V177.375C631.067 177.722 628.381 178.87 626.084 180.82L620.429 185.695C621.296 186.778 622.314 188.1 623.484 189.66C624.654 191.177 625.846 192.672 627.059 194.145C628.272 195.575 629.442 196.832 630.569 197.915C631.696 198.998 632.671 199.627 633.494 199.8C633.711 199.887 633.949 199.952 634.209 199.995C634.469 199.995 634.707 200.017 634.924 200.06L636.354 200.32V201.36ZM651.679 201.36C650.986 201.273 650.054 201.208 648.884 201.165C647.714 201.122 646.263 201.1 644.529 201.1C642.796 201.1 641.344 201.122 640.174 201.165C639.004 201.208 638.073 201.273 637.379 201.36V200.32L641.019 199.605C642.363 199.345 643.034 198.565 643.034 197.265V184.2C643.034 183.16 642.774 182.402 642.254 181.925C641.734 181.448 640.694 181.037 639.134 180.69V179.78C642.211 179 644.464 177.44 645.894 175.1H646.934V197.46C646.934 198.11 647.021 198.587 647.194 198.89C647.411 199.193 647.801 199.41 648.364 199.54L651.679 200.32V201.36ZM644.529 161.71C645.266 161.71 645.938 161.992 646.544 162.555C647.151 163.118 647.454 163.768 647.454 164.505C647.454 165.198 647.129 165.827 646.479 166.39C645.873 166.91 645.179 167.17 644.399 167.17C643.663 167.17 643.034 166.91 642.514 166.39C641.994 165.87 641.734 165.242 641.734 164.505C641.734 163.768 642.016 163.118 642.579 162.555C643.143 161.992 643.793 161.71 644.529 161.71ZM686.229 201.295C681.722 201.035 677.216 201.035 672.709 201.295V200.255L676.284 199.735C677.237 199.605 677.714 198.76 677.714 197.2V186.215C677.714 183.788 677.302 181.838 676.479 180.365C675.656 178.892 674.052 178.155 671.669 178.155C668.896 178.155 666.187 179.477 663.544 182.12V197.915C663.544 198.608 664.064 199.085 665.104 199.345L668.939 200.255V201.295C668.332 201.252 667.617 201.208 666.794 201.165C665.971 201.122 665.061 201.1 664.064 201.1H661.919C658.842 201.1 656.502 201.165 654.899 201.295V200.255L658.344 199.605C659.211 199.475 659.644 198.825 659.644 197.655V184.785C659.644 183.442 659.362 182.532 658.799 182.055C658.279 181.578 657.326 181.232 655.939 181.015V179.845C658.669 179.195 660.857 177.245 662.504 173.995H663.544V179.845C665.191 178.415 667.011 177.288 669.004 176.465C670.997 175.598 672.752 175.165 674.269 175.165C679.252 175.165 681.744 178.133 681.744 184.07V197.005C681.744 197.828 681.852 198.457 682.069 198.89C682.286 199.323 682.719 199.605 683.369 199.735L686.229 200.255V201.295ZM690.729 211.76C692.115 211.37 693.242 210.872 694.109 210.265C694.975 209.702 695.625 209.117 696.059 208.51C696.535 207.903 696.839 207.34 696.969 206.82C697.142 206.3 697.229 205.91 697.229 205.65C697.229 204.567 696.925 203.852 696.319 203.505C695.712 203.158 695.04 202.898 694.304 202.725C693.567 202.552 692.895 202.335 692.289 202.075C691.682 201.772 691.379 201.143 691.379 200.19C691.379 199.41 691.725 198.738 692.419 198.175C693.112 197.568 693.87 197.265 694.694 197.265C696.254 197.265 697.51 197.828 698.464 198.955C699.46 200.038 699.959 201.36 699.959 202.92C699.959 203.96 699.699 205 699.179 206.04C698.702 207.123 698.052 208.098 697.229 208.965C696.405 209.832 695.452 210.568 694.369 211.175C693.329 211.825 692.224 212.237 691.054 212.41L690.729 211.76ZM717.687 176.14C718.641 176.27 720.656 176.335 723.732 176.335C726.852 176.335 729.062 176.27 730.362 176.14V177.18C728.586 177.483 727.437 177.808 726.917 178.155C726.441 178.458 726.419 179.108 726.852 180.105L735.302 197.785L740.502 187.255L737.967 180.56C737.491 179.347 737.079 178.588 736.732 178.285C736.429 177.938 736.104 177.743 735.757 177.7L733.027 177.18V176.14C734.241 176.27 736.624 176.335 740.177 176.335C743.687 176.335 746.006 176.27 747.132 176.14V177.18L743.947 177.765C743.297 177.895 742.821 178.068 742.517 178.285C742.214 178.502 742.019 178.74 741.932 179C741.889 179.217 741.911 179.477 741.997 179.78C742.084 180.04 742.192 180.3 742.322 180.56L748.692 197.265L755.322 181.73C755.582 181.34 755.712 180.907 755.712 180.43C755.756 179.953 755.669 179.52 755.452 179.13C755.279 178.74 755.019 178.415 754.672 178.155C754.326 177.852 753.914 177.678 753.437 177.635L750.772 177.18V176.14C751.726 176.27 753.546 176.335 756.232 176.335C758.919 176.335 760.891 176.27 762.147 176.14V177.18L760.522 177.505C759.222 177.895 758.117 179.108 757.207 181.145L747.847 202.595H746.807L741.282 189.205L734.457 202.595H733.157L721.652 179.325C721.046 178.155 720.222 177.505 719.182 177.375L717.687 177.18V176.14ZM777.617 201.36C776.924 201.273 775.992 201.208 774.822 201.165C773.652 201.122 772.2 201.1 770.467 201.1C768.734 201.1 767.282 201.122 766.112 201.165C764.942 201.208 764.01 201.273 763.317 201.36V200.32L766.957 199.605C768.3 199.345 768.972 198.565 768.972 197.265V184.2C768.972 183.16 768.712 182.402 768.192 181.925C767.672 181.448 766.632 181.037 765.072 180.69V179.78C768.149 179 770.402 177.44 771.832 175.1H772.872V197.46C772.872 198.11 772.959 198.587 773.132 198.89C773.349 199.193 773.739 199.41 774.302 199.54L777.617 200.32V201.36ZM770.467 161.71C771.204 161.71 771.875 161.992 772.482 162.555C773.089 163.118 773.392 163.768 773.392 164.505C773.392 165.198 773.067 165.827 772.417 166.39C771.81 166.91 771.117 167.17 770.337 167.17C769.6 167.17 768.972 166.91 768.452 166.39C767.932 165.87 767.672 165.242 767.672 164.505C767.672 163.768 767.954 163.118 768.517 162.555C769.08 161.992 769.73 161.71 770.467 161.71ZM795.266 201.295C794.226 201.252 793.078 201.208 791.821 201.165C790.565 201.122 789.308 201.1 788.051 201.1C786.795 201.1 785.538 201.122 784.281 201.165C783.025 201.208 781.876 201.252 780.836 201.295V200.255L784.866 199.475C785.43 199.345 785.82 199.172 786.036 198.955C786.253 198.738 786.361 198.305 786.361 197.655V164.635C786.361 163.725 786.101 163.053 785.581 162.62C785.061 162.187 783.913 161.71 782.136 161.19V160.345C783.87 159.998 786.101 159.283 788.831 158.2H790.326V197.525C790.326 198.348 790.413 198.89 790.586 199.15C790.76 199.367 791.171 199.54 791.821 199.67L795.266 200.255V201.295ZM820.126 165.675C820.126 164.808 820.061 164.115 819.931 163.595C819.845 163.075 819.606 162.663 819.216 162.36C818.87 162.013 818.35 161.732 817.656 161.515C817.006 161.255 816.14 160.995 815.056 160.735V159.695C816.443 159.608 817.765 159.435 819.021 159.175C820.278 158.915 821.47 158.59 822.596 158.2H824.221V196.68C824.221 197.46 824.265 198.067 824.351 198.5C824.438 198.933 824.633 199.258 824.936 199.475C825.24 199.648 825.673 199.757 826.236 199.8C826.843 199.843 827.645 199.887 828.641 199.93V200.97C826.995 201.317 825.456 201.62 824.026 201.88C822.64 202.14 821.34 202.335 820.126 202.465V199.475C819 199.952 817.981 200.363 817.071 200.71C816.161 201.013 815.295 201.273 814.471 201.49C813.648 201.707 812.846 201.88 812.066 202.01C811.286 202.097 810.441 202.14 809.531 202.14C806.715 202.14 804.266 200.905 802.186 198.435C800.106 195.965 799.066 193.083 799.066 189.79C799.066 187.797 799.391 185.933 800.041 184.2C800.735 182.423 801.666 180.863 802.836 179.52C804.006 178.177 805.35 177.115 806.866 176.335C808.426 175.555 810.051 175.165 811.741 175.165C815.121 175.165 817.916 175.75 820.126 176.92V165.675ZM820.126 197.85V185.565C820.126 184.655 820.061 183.68 819.931 182.64C819.845 181.557 819.541 180.582 819.021 179.715C818.545 178.848 817.765 178.133 816.681 177.57C815.641 176.963 814.168 176.66 812.261 176.66C811.048 176.66 809.921 176.963 808.881 177.57C807.841 178.177 806.931 179.022 806.151 180.105C805.371 181.188 804.765 182.445 804.331 183.875C803.898 185.305 803.681 186.865 803.681 188.555C803.681 190.245 803.92 191.783 804.396 193.17C804.873 194.557 805.545 195.748 806.411 196.745C807.278 197.698 808.275 198.435 809.401 198.955C810.571 199.475 811.85 199.735 813.236 199.735C814.58 199.735 815.901 199.562 817.201 199.215C818.501 198.825 819.476 198.37 820.126 197.85ZM846.302 201.295C845.262 201.252 844.113 201.208 842.857 201.165C841.6 201.122 840.343 201.1 839.087 201.1C837.83 201.1 836.573 201.122 835.317 201.165C834.06 201.208 832.912 201.252 831.872 201.295V200.255L835.902 199.475C836.465 199.345 836.855 199.172 837.072 198.955C837.288 198.738 837.397 198.305 837.397 197.655V164.635C837.397 163.725 837.137 163.053 836.617 162.62C836.097 162.187 834.948 161.71 833.172 161.19V160.345C834.905 159.998 837.137 159.283 839.867 158.2H841.362V197.525C841.362 198.348 841.448 198.89 841.622 199.15C841.795 199.367 842.207 199.54 842.857 199.67L846.302 200.255V201.295ZM860.762 207.73C859.982 209.81 859.05 211.348 857.967 212.345C856.927 213.385 855.8 213.905 854.587 213.905C853.763 213.905 853.135 213.645 852.702 213.125C852.268 212.605 852.052 212.042 852.052 211.435C852.052 210.915 852.225 210.46 852.572 210.07C852.918 209.68 853.46 209.485 854.197 209.485C854.717 209.485 855.172 209.528 855.562 209.615C855.952 209.702 856.32 209.788 856.667 209.875C857.013 209.962 857.273 210.005 857.447 210.005C857.663 210.005 857.88 209.897 858.097 209.68C858.227 209.55 858.335 209.442 858.422 209.355C858.552 209.312 858.682 209.182 858.812 208.965C858.942 208.792 859.093 208.51 859.267 208.12C859.483 207.73 859.722 207.145 859.982 206.365C860.545 204.762 860.827 203.7 860.827 203.18C860.827 202.487 860.61 201.62 860.177 200.58L852.247 179.585C851.9 178.588 851.337 177.982 850.557 177.765L848.152 177.05V176.01C850.882 176.227 853.287 176.335 855.367 176.335C857.447 176.335 859.397 176.227 861.217 176.01V177.05C860.74 177.137 860.177 177.223 859.527 177.31C858.92 177.353 858.357 177.462 857.837 177.635C857.317 177.765 856.905 177.982 856.602 178.285C856.298 178.588 856.255 179.022 856.472 179.585L863.037 198.11L869.082 181.34C869.298 180.733 869.385 180.083 869.342 179.39C869.342 178.653 868.973 178.177 868.237 177.96L864.597 177.05V176.01C866.547 176.227 868.323 176.335 869.927 176.335C871.573 176.335 873.48 176.227 875.647 176.01V177.05L873.567 177.635C872.96 177.808 872.44 178.177 872.007 178.74C871.573 179.26 871.053 180.343 870.447 181.99L860.762 207.73ZM904.116 207.73C903.336 209.81 902.404 211.348 901.321 212.345C900.281 213.385 899.154 213.905 897.941 213.905C897.118 213.905 896.489 213.645 896.056 213.125C895.623 212.605 895.406 212.042 895.406 211.435C895.406 210.915 895.579 210.46 895.926 210.07C896.273 209.68 896.814 209.485 897.551 209.485C898.071 209.485 898.526 209.528 898.916 209.615C899.306 209.702 899.674 209.788 900.021 209.875C900.368 209.962 900.628 210.005 900.801 210.005C901.018 210.005 901.234 209.897 901.451 209.68C901.581 209.55 901.689 209.442 901.776 209.355C901.906 209.312 902.036 209.182 902.166 208.965C902.296 208.792 902.448 208.51 902.621 208.12C902.838 207.73 903.076 207.145 903.336 206.365C903.899 204.762 904.181 203.7 904.181 203.18C904.181 202.487 903.964 201.62 903.531 200.58L895.601 179.585C895.254 178.588 894.691 177.982 893.911 177.765L891.506 177.05V176.01C894.236 176.227 896.641 176.335 898.721 176.335C900.801 176.335 902.751 176.227 904.571 176.01V177.05C904.094 177.137 903.531 177.223 902.881 177.31C902.274 177.353 901.711 177.462 901.191 177.635C900.671 177.765 900.259 177.982 899.956 178.285C899.653 178.588 899.609 179.022 899.826 179.585L906.391 198.11L912.436 181.34C912.653 180.733 912.739 180.083 912.696 179.39C912.696 178.653 912.328 178.177 911.591 177.96L907.951 177.05V176.01C909.901 176.227 911.678 176.335 913.281 176.335C914.928 176.335 916.834 176.227 919.001 176.01V177.05L916.921 177.635C916.314 177.808 915.794 178.177 915.361 178.74C914.928 179.26 914.408 180.343 913.801 181.99L904.116 207.73ZM934.601 202.14C932.694 202.14 930.917 201.815 929.271 201.165C927.624 200.472 926.194 199.54 924.981 198.37C923.767 197.157 922.792 195.727 922.056 194.08C921.362 192.433 921.016 190.635 921.016 188.685C921.016 186.692 921.362 184.872 922.056 183.225C922.792 181.578 923.789 180.17 925.046 179C926.302 177.787 927.776 176.855 929.466 176.205C931.199 175.512 933.084 175.165 935.121 175.165C937.201 175.165 939.086 175.533 940.776 176.27C942.466 176.963 943.917 177.938 945.131 179.195C946.387 180.408 947.341 181.86 947.991 183.55C948.684 185.197 949.031 186.952 949.031 188.815C949.031 190.678 948.662 192.433 947.926 194.08C947.232 195.683 946.236 197.092 944.936 198.305C943.679 199.475 942.162 200.407 940.386 201.1C938.609 201.793 936.681 202.14 934.601 202.14ZM925.696 189.205C925.696 192.845 926.541 195.705 928.231 197.785C929.921 199.865 932.131 200.905 934.861 200.905C936.204 200.905 937.461 200.623 938.631 200.06C939.801 199.453 940.797 198.63 941.621 197.59C942.487 196.507 943.159 195.228 943.636 193.755C944.112 192.238 944.351 190.57 944.351 188.75C944.351 186.93 944.134 185.262 943.701 183.745C943.267 182.228 942.639 180.928 941.816 179.845C940.992 178.762 939.996 177.917 938.826 177.31C937.656 176.703 936.356 176.4 934.926 176.4C932.066 176.4 929.812 177.483 928.166 179.65C926.519 181.817 925.696 185.002 925.696 189.205ZM953.174 176.4H961.494V193.17C961.494 195.25 961.84 196.723 962.534 197.59C963.27 198.457 964.635 198.89 966.629 198.89C969.575 198.89 972.284 197.785 974.754 195.575V179.91C974.754 179.477 974.667 179.13 974.494 178.87C974.364 178.61 974.082 178.415 973.649 178.285C973.259 178.112 972.674 177.96 971.894 177.83C971.114 177.7 970.074 177.57 968.774 177.44V176.4H978.979V195.51C978.979 196.29 979.022 196.918 979.109 197.395C979.195 197.828 979.39 198.153 979.694 198.37C980.04 198.543 980.495 198.673 981.059 198.76C981.665 198.803 982.489 198.825 983.529 198.825C983.529 198.998 983.529 199.172 983.529 199.345C983.572 199.475 983.594 199.627 983.594 199.8L974.754 202.14V197.2C972.804 198.847 971.049 200.103 969.489 200.97C967.972 201.793 966.434 202.205 964.874 202.205C962.664 202.205 960.865 201.403 959.479 199.8C958.092 198.197 957.399 196.073 957.399 193.43V179.845C957.399 179.022 957.117 178.458 956.554 178.155C956.034 177.852 954.907 177.57 953.174 177.31V176.4Z" fill="black"/>
</svg>
