<svg width="56" height="16" viewBox="0 0 56 16" fill="none" xmlns="http://www.w3.org/2000/svg">
<path d="M1.54688 5.17188V15.25H0.09375V3.54688H1.42188L1.54688 5.17188ZM7.24219 7.70312V7.86719C7.24219 8.48177 7.16927 9.05208 7.02344 9.57812C6.8776 10.099 6.66406 10.5521 6.38281 10.9375C6.10677 11.3229 5.76562 11.6224 5.35938 11.8359C4.95312 12.0495 4.48698 12.1562 3.96094 12.1562C3.42448 12.1562 2.95052 12.0677 2.53906 11.8906C2.1276 11.7135 1.77865 11.4557 1.49219 11.1172C1.20573 10.7786 0.976562 10.3724 0.804688 9.89844C0.638021 9.42448 0.523438 8.89062 0.460938 8.29688V7.42188C0.523438 6.79688 0.640625 6.23698 0.8125 5.74219C0.984375 5.2474 1.21094 4.82552 1.49219 4.47656C1.77865 4.1224 2.125 3.85417 2.53125 3.67188C2.9375 3.48438 3.40625 3.39062 3.9375 3.39062C4.46875 3.39062 4.9401 3.49479 5.35156 3.70312C5.76302 3.90625 6.10938 4.19792 6.39062 4.57812C6.67188 4.95833 6.88281 5.41406 7.02344 5.94531C7.16927 6.47135 7.24219 7.05729 7.24219 7.70312ZM5.78906 7.86719V7.70312C5.78906 7.28125 5.74479 6.88542 5.65625 6.51562C5.56771 6.14062 5.42969 5.8125 5.24219 5.53125C5.0599 5.24479 4.82552 5.02083 4.53906 4.85938C4.2526 4.69271 3.91146 4.60938 3.51562 4.60938C3.15104 4.60938 2.83333 4.67188 2.5625 4.79688C2.29688 4.92188 2.07031 5.09115 1.88281 5.30469C1.69531 5.51302 1.54167 5.7526 1.42188 6.02344C1.30729 6.28906 1.22135 6.5651 1.16406 6.85156V8.875C1.26823 9.23958 1.41406 9.58333 1.60156 9.90625C1.78906 10.224 2.03906 10.4818 2.35156 10.6797C2.66406 10.8724 3.05729 10.9688 3.53125 10.9688C3.92188 10.9688 4.25781 10.888 4.53906 10.7266C4.82552 10.5599 5.0599 10.3333 5.24219 10.0469C5.42969 9.76042 5.56771 9.43229 5.65625 9.0625C5.74479 8.6875 5.78906 8.28906 5.78906 7.86719ZM10.5312 4.875V12H9.08594V3.54688H10.4922L10.5312 4.875ZM13.1719 3.5L13.1641 4.84375C13.0443 4.81771 12.9297 4.80208 12.8203 4.79688C12.7161 4.78646 12.5964 4.78125 12.4609 4.78125C12.1276 4.78125 11.8333 4.83333 11.5781 4.9375C11.3229 5.04167 11.1068 5.1875 10.9297 5.375C10.7526 5.5625 10.612 5.78646 10.5078 6.04688C10.4089 6.30208 10.3438 6.58333 10.3125 6.89062L9.90625 7.125C9.90625 6.61458 9.95573 6.13542 10.0547 5.6875C10.1589 5.23958 10.3177 4.84375 10.5312 4.5C10.7448 4.15104 11.0156 3.88021 11.3438 3.6875C11.6771 3.48958 12.0729 3.39062 12.5312 3.39062C12.6354 3.39062 12.7552 3.40365 12.8906 3.42969C13.026 3.45052 13.1198 3.47396 13.1719 3.5ZM13.9688 7.86719V7.6875C13.9688 7.07812 14.0573 6.51302 14.2344 5.99219C14.4115 5.46615 14.6667 5.01042 15 4.625C15.3333 4.23438 15.737 3.93229 16.2109 3.71875C16.6849 3.5 17.2161 3.39062 17.8047 3.39062C18.3984 3.39062 18.9323 3.5 19.4062 3.71875C19.8854 3.93229 20.2917 4.23438 20.625 4.625C20.9635 5.01042 21.2214 5.46615 21.3984 5.99219C21.5755 6.51302 21.6641 7.07812 21.6641 7.6875V7.86719C21.6641 8.47656 21.5755 9.04167 21.3984 9.5625C21.2214 10.0833 20.9635 10.5391 20.625 10.9297C20.2917 11.3151 19.888 11.6172 19.4141 11.8359C18.9453 12.0495 18.4141 12.1562 17.8203 12.1562C17.2266 12.1562 16.6927 12.0495 16.2188 11.8359C15.7448 11.6172 15.3385 11.3151 15 10.9297C14.6667 10.5391 14.4115 10.0833 14.2344 9.5625C14.0573 9.04167 13.9688 8.47656 13.9688 7.86719ZM15.4141 7.6875V7.86719C15.4141 8.28906 15.4635 8.6875 15.5625 9.0625C15.6615 9.43229 15.8099 9.76042 16.0078 10.0469C16.2109 10.3333 16.4635 10.5599 16.7656 10.7266C17.0677 10.888 17.4193 10.9688 17.8203 10.9688C18.2161 10.9688 18.5625 10.888 18.8594 10.7266C19.1615 10.5599 19.4115 10.3333 19.6094 10.0469C19.8073 9.76042 19.9557 9.43229 20.0547 9.0625C20.1589 8.6875 20.2109 8.28906 20.2109 7.86719V7.6875C20.2109 7.27083 20.1589 6.8776 20.0547 6.50781C19.9557 6.13281 19.8047 5.80208 19.6016 5.51562C19.4036 5.22396 19.1536 4.99479 18.8516 4.82812C18.5547 4.66146 18.2057 4.57812 17.8047 4.57812C17.4089 4.57812 17.0599 4.66146 16.7578 4.82812C16.4609 4.99479 16.2109 5.22396 16.0078 5.51562C15.8099 5.80208 15.6615 6.13281 15.5625 6.50781C15.4635 6.8776 15.4141 7.27083 15.4141 7.6875ZM23.5156 3.54688H24.9688V13.0078C24.9688 13.5234 24.8854 13.9609 24.7188 14.3203C24.5573 14.6797 24.3125 14.9505 23.9844 15.1328C23.6615 15.3203 23.2526 15.4141 22.7578 15.4141C22.6276 15.4141 22.4766 15.401 22.3047 15.375C22.1276 15.349 21.9792 15.3177 21.8594 15.2812L21.8672 14.1172C21.9661 14.138 22.0781 14.1536 22.2031 14.1641C22.3281 14.1797 22.4375 14.1875 22.5312 14.1875C22.7448 14.1875 22.9245 14.1484 23.0703 14.0703C23.2161 13.9922 23.3255 13.8672 23.3984 13.6953C23.4766 13.5234 23.5156 13.2943 23.5156 13.0078V3.54688ZM23.3672 1.30469C23.3672 1.07031 23.4401 0.872396 23.5859 0.710938C23.7318 0.549479 23.9427 0.46875 24.2188 0.46875C24.5 0.46875 24.7135 0.549479 24.8594 0.710938C25.0052 0.872396 25.0781 1.07031 25.0781 1.30469C25.0781 1.52865 25.0052 1.72135 24.8594 1.88281C24.7135 2.03906 24.5 2.11719 24.2188 2.11719C23.9427 2.11719 23.7318 2.03906 23.5859 1.88281C23.4401 1.72135 23.3672 1.52865 23.3672 1.30469ZM30.8125 12.1562C30.224 12.1562 29.6901 12.0573 29.2109 11.8594C28.737 11.6562 28.3281 11.3724 27.9844 11.0078C27.6458 10.6432 27.3854 10.2109 27.2031 9.71094C27.0208 9.21094 26.9297 8.66406 26.9297 8.07031V7.74219C26.9297 7.05469 27.0312 6.44271 27.2344 5.90625C27.4375 5.36458 27.7135 4.90625 28.0625 4.53125C28.4115 4.15625 28.8073 3.8724 29.25 3.67969C29.6927 3.48698 30.151 3.39062 30.625 3.39062C31.2292 3.39062 31.75 3.49479 32.1875 3.70312C32.6302 3.91146 32.9922 4.20312 33.2734 4.57812C33.5547 4.94792 33.763 5.38542 33.8984 5.89062C34.0339 6.39062 34.1016 6.9375 34.1016 7.53125V8.17969H27.7891V7H32.6562V6.89062C32.6354 6.51562 32.5573 6.15104 32.4219 5.79688C32.2917 5.44271 32.0833 5.15104 31.7969 4.92188C31.5104 4.69271 31.1198 4.57812 30.625 4.57812C30.2969 4.57812 29.9948 4.64844 29.7188 4.78906C29.4427 4.92448 29.2057 5.1276 29.0078 5.39844C28.8099 5.66927 28.6562 6 28.5469 6.39062C28.4375 6.78125 28.3828 7.23177 28.3828 7.74219V8.07031C28.3828 8.47135 28.4375 8.84896 28.5469 9.20312C28.6615 9.55208 28.8255 9.85938 29.0391 10.125C29.2578 10.3906 29.5208 10.599 29.8281 10.75C30.1406 10.901 30.4948 10.9766 30.8906 10.9766C31.401 10.9766 31.8333 10.8724 32.1875 10.6641C32.5417 10.4557 32.8516 10.1771 33.1172 9.82812L33.9922 10.5234C33.8099 10.7995 33.5781 11.0625 33.2969 11.3125C33.0156 11.5625 32.6693 11.7656 32.2578 11.9219C31.8516 12.0781 31.3698 12.1562 30.8125 12.1562ZM39.1719 10.9688C39.5156 10.9688 39.8333 10.8984 40.125 10.7578C40.4167 10.6172 40.6562 10.4245 40.8438 10.1797C41.0312 9.92969 41.138 9.64583 41.1641 9.32812H42.5391C42.513 9.82812 42.3438 10.2943 42.0312 10.7266C41.724 11.1536 41.3203 11.5 40.8203 11.7656C40.3203 12.026 39.7708 12.1562 39.1719 12.1562C38.5365 12.1562 37.9818 12.0443 37.5078 11.8203C37.0391 11.5964 36.6484 11.2891 36.3359 10.8984C36.0286 10.5078 35.7969 10.0599 35.6406 9.55469C35.4896 9.04427 35.4141 8.50521 35.4141 7.9375V7.60938C35.4141 7.04167 35.4896 6.50521 35.6406 6C35.7969 5.48958 36.0286 5.03906 36.3359 4.64844C36.6484 4.25781 37.0391 3.95052 37.5078 3.72656C37.9818 3.5026 38.5365 3.39062 39.1719 3.39062C39.8333 3.39062 40.4115 3.52604 40.9062 3.79688C41.401 4.0625 41.7891 4.42708 42.0703 4.89062C42.3568 5.34896 42.513 5.86979 42.5391 6.45312H41.1641C41.138 6.10417 41.0391 5.78906 40.8672 5.50781C40.7005 5.22656 40.4714 5.0026 40.1797 4.83594C39.8932 4.66406 39.5573 4.57812 39.1719 4.57812C38.7292 4.57812 38.3568 4.66667 38.0547 4.84375C37.7578 5.01562 37.5208 5.25 37.3438 5.54688C37.1719 5.83854 37.0469 6.16406 36.9688 6.52344C36.8958 6.8776 36.8594 7.23958 36.8594 7.60938V7.9375C36.8594 8.30729 36.8958 8.67188 36.9688 9.03125C37.0417 9.39062 37.1641 9.71615 37.3359 10.0078C37.513 10.2995 37.75 10.5339 38.0469 10.7109C38.349 10.8828 38.724 10.9688 39.1719 10.9688ZM47.7031 3.54688V4.65625H43.1328V3.54688H47.7031ZM44.6797 1.49219H46.125V9.90625C46.125 10.1927 46.1693 10.4089 46.2578 10.5547C46.3464 10.7005 46.4609 10.7969 46.6016 10.8438C46.7422 10.8906 46.8932 10.9141 47.0547 10.9141C47.1745 10.9141 47.2995 10.9036 47.4297 10.8828C47.5651 10.8568 47.6667 10.8359 47.7344 10.8203L47.7422 12C47.6276 12.0365 47.4766 12.0703 47.2891 12.1016C47.1068 12.138 46.8854 12.1562 46.625 12.1562C46.2708 12.1562 45.9453 12.0859 45.6484 11.9453C45.3516 11.8047 45.1146 11.5703 44.9375 11.2422C44.7656 10.9089 44.6797 10.4609 44.6797 9.89844V1.49219ZM54.3203 9.75781C54.3203 9.54948 54.2734 9.35677 54.1797 9.17969C54.0911 8.9974 53.9062 8.83333 53.625 8.6875C53.349 8.53646 52.9323 8.40625 52.375 8.29688C51.9062 8.19792 51.4818 8.08073 51.1016 7.94531C50.7266 7.8099 50.4062 7.64583 50.1406 7.45312C49.8802 7.26042 49.6797 7.03385 49.5391 6.77344C49.3984 6.51302 49.3281 6.20833 49.3281 5.85938C49.3281 5.52604 49.401 5.21094 49.5469 4.91406C49.6979 4.61719 49.9089 4.35417 50.1797 4.125C50.4557 3.89583 50.7865 3.71615 51.1719 3.58594C51.5573 3.45573 51.987 3.39062 52.4609 3.39062C53.138 3.39062 53.7161 3.51042 54.1953 3.75C54.6745 3.98958 55.0417 4.3099 55.2969 4.71094C55.5521 5.10677 55.6797 5.54688 55.6797 6.03125H54.2344C54.2344 5.79688 54.1641 5.57031 54.0234 5.35156C53.888 5.1276 53.6875 4.94271 53.4219 4.79688C53.1615 4.65104 52.8411 4.57812 52.4609 4.57812C52.0599 4.57812 51.7344 4.64062 51.4844 4.76562C51.2396 4.88542 51.0599 5.03906 50.9453 5.22656C50.8359 5.41406 50.7812 5.61198 50.7812 5.82031C50.7812 5.97656 50.8073 6.11719 50.8594 6.24219C50.9167 6.36198 51.0156 6.47396 51.1562 6.57812C51.2969 6.67708 51.4948 6.77083 51.75 6.85938C52.0052 6.94792 52.3307 7.03646 52.7266 7.125C53.4193 7.28125 53.9896 7.46875 54.4375 7.6875C54.8854 7.90625 55.2188 8.17448 55.4375 8.49219C55.6562 8.8099 55.7656 9.19531 55.7656 9.64844C55.7656 10.0182 55.6875 10.3568 55.5312 10.6641C55.3802 10.9714 55.1589 11.237 54.8672 11.4609C54.5807 11.6797 54.237 11.8516 53.8359 11.9766C53.4401 12.0964 52.9948 12.1562 52.5 12.1562C51.7552 12.1562 51.125 12.0234 50.6094 11.7578C50.0938 11.4922 49.7031 11.1484 49.4375 10.7266C49.1719 10.3047 49.0391 9.85938 49.0391 9.39062H50.4922C50.513 9.78646 50.6276 10.1016 50.8359 10.3359C51.0443 10.5651 51.2995 10.7292 51.6016 10.8281C51.9036 10.9219 52.2031 10.9688 52.5 10.9688C52.8958 10.9688 53.2266 10.9167 53.4922 10.8125C53.763 10.7083 53.9688 10.5651 54.1094 10.3828C54.25 10.2005 54.3203 9.99219 54.3203 9.75781Z" fill="white"/>
</svg>
