<svg width="116" height="18" viewBox="0 0 116 18" fill="none" xmlns="http://www.w3.org/2000/svg">
<path d="M15.227 13.654C15.137 14.212 15.02 14.779 14.876 15.355C14.732 15.931 14.57 16.525 14.39 17.137C13.256 17.587 11.582 17.812 9.368 17.812C7.964 17.812 6.686 17.614 5.534 17.218C4.4 16.804 3.437 16.228 2.645 15.49C1.853 14.734 1.241 13.834 0.809 12.79C0.377 11.746 0.161 10.585 0.161 9.307C0.161 8.119 0.386 6.985 0.836 5.905C1.286 4.807 1.898 3.844 2.672 3.016C3.464 2.17 4.391 1.495 5.453 0.990999C6.515 0.486999 7.658 0.234999 8.882 0.234999C9.656 0.234999 10.322 0.252999 10.88 0.288999C11.438 0.306999 11.924 0.351999 12.338 0.423999C12.77 0.496 13.166 0.613 13.526 0.775C13.886 0.918999 14.255 1.108 14.633 1.342C14.687 1.774 14.723 2.215 14.741 2.665C14.777 3.097 14.786 3.547 14.768 4.015H14.255C13.895 2.971 13.283 2.179 12.419 1.639C11.573 1.081 10.547 0.801999 9.341 0.801999C8.387 0.801999 7.505 1.009 6.695 1.423C5.903 1.837 5.219 2.422 4.643 3.178C4.067 3.916 3.608 4.816 3.266 5.878C2.942 6.922 2.78 8.074 2.78 9.334C2.78 11.908 3.329 13.87 4.427 15.22C5.543 16.552 7.19 17.218 9.368 17.218C11.87 17.218 13.706 16.03 14.876 13.654H15.227ZM22.8617 17.812C22.0697 17.812 21.3317 17.677 20.6477 17.407C19.9637 17.119 19.3697 16.732 18.8657 16.246C18.3617 15.742 17.9567 15.148 17.6507 14.464C17.3627 13.78 17.2187 13.033 17.2187 12.223C17.2187 11.395 17.3627 10.639 17.6507 9.955C17.9567 9.271 18.3707 8.686 18.8927 8.2C19.4147 7.696 20.0267 7.309 20.7287 7.039C21.4487 6.751 22.2317 6.607 23.0777 6.607C23.9417 6.607 24.7247 6.76 25.4267 7.066C26.1287 7.354 26.7317 7.759 27.2357 8.281C27.7577 8.785 28.1537 9.388 28.4237 10.09C28.7117 10.774 28.8557 11.503 28.8557 12.277C28.8557 13.051 28.7027 13.78 28.3967 14.464C28.1087 15.13 27.6947 15.715 27.1547 16.219C26.6327 16.705 26.0027 17.092 25.2647 17.38C24.5267 17.668 23.7257 17.812 22.8617 17.812ZM19.1627 12.439C19.1627 13.951 19.5137 15.139 20.2157 16.003C20.9177 16.867 21.8357 17.299 22.9697 17.299C23.5277 17.299 24.0497 17.182 24.5357 16.948C25.0217 16.696 25.4357 16.354 25.7777 15.922C26.1377 15.472 26.4167 14.941 26.6147 14.329C26.8127 13.699 26.9117 13.006 26.9117 12.25C26.9117 11.494 26.8217 10.801 26.6417 10.171C26.4617 9.541 26.2007 9.001 25.8587 8.551C25.5167 8.101 25.1027 7.75 24.6167 7.498C24.1307 7.246 23.5907 7.12 22.9967 7.12C21.8087 7.12 20.8727 7.57 20.1887 8.47C19.5047 9.37 19.1627 10.693 19.1627 12.439ZM43.6177 17.461C41.7457 17.353 39.8737 17.353 38.0017 17.461V17.029L39.4867 16.813C39.8827 16.759 40.0807 16.408 40.0807 15.76V11.197C40.0807 10.189 39.9097 9.379 39.5677 8.767C39.2257 8.155 38.5597 7.849 37.5697 7.849C36.4177 7.849 35.2927 8.398 34.1947 9.496V16.057C34.1947 16.345 34.4107 16.543 34.8427 16.651L36.4357 17.029V17.461C36.1837 17.443 35.8867 17.425 35.5447 17.407C35.2027 17.389 34.8247 17.38 34.4107 17.38H33.5197C32.2417 17.38 31.2697 17.407 30.6037 17.461V17.029L32.0347 16.759C32.3947 16.705 32.5747 16.435 32.5747 15.949V10.603C32.5747 10.045 32.4577 9.667 32.2237 9.469C32.0077 9.271 31.6117 9.127 31.0357 9.037V8.551C32.1697 8.281 33.0787 7.471 33.7627 6.121H34.1947V8.551C34.8787 7.957 35.6347 7.489 36.4627 7.147C37.2907 6.787 38.0197 6.607 38.6497 6.607C40.7197 6.607 41.7547 7.84 41.7547 10.306V15.679C41.7547 16.021 41.7997 16.282 41.8897 16.462C41.9797 16.642 42.1597 16.759 42.4297 16.813L43.6177 17.029V17.461ZM48.4298 4.366H48.7538C48.7538 4.852 48.7538 5.338 48.7538 5.824C48.7718 6.292 48.7808 6.769 48.7808 7.255L52.4528 7.174V8.146L48.7808 8.254V13.762C48.7808 14.842 48.8528 15.661 48.9968 16.219C49.1588 16.759 49.5908 17.011 50.2928 16.975C50.8328 16.939 51.5438 16.687 52.4258 16.219L52.6688 16.597C52.2908 17.029 51.8498 17.344 51.3458 17.542C50.8598 17.722 50.1668 17.812 49.2668 17.812C48.8168 17.812 48.4478 17.767 48.1598 17.677C47.8718 17.569 47.6468 17.389 47.4848 17.137C47.3228 16.867 47.2148 16.516 47.1608 16.084C47.1068 15.652 47.0798 15.094 47.0798 14.41V8.308C46.8278 8.308 46.5848 8.317 46.3508 8.335C46.1168 8.335 45.8738 8.335 45.6218 8.335C45.3698 8.335 45.2438 8.272 45.2438 8.146C45.2438 8.002 45.3608 7.876 45.5948 7.768C46.3868 7.426 46.9448 7.057 47.2688 6.661C47.4488 6.445 47.6378 6.148 47.8358 5.77C48.0338 5.392 48.2318 4.924 48.4298 4.366ZM58.4553 17.677C57.7173 17.677 57.0693 17.551 56.5113 17.299C55.9533 17.029 55.4853 16.669 55.1073 16.219C54.7473 15.769 54.4773 15.238 54.2973 14.626C54.1173 14.014 54.0273 13.357 54.0273 12.655C54.0273 11.701 54.1893 10.864 54.5133 10.144C54.8373 9.406 55.2603 8.794 55.7823 8.308C56.3043 7.822 56.8983 7.453 57.5643 7.201C58.2303 6.949 58.9053 6.823 59.5893 6.823C59.9133 6.823 60.2283 6.859 60.5343 6.931C60.8403 7.003 61.1103 7.084 61.3443 7.174C61.6143 7.264 61.8663 7.372 62.1003 7.498L63.5853 6.742L63.8283 6.823C63.8283 8.227 63.8283 9.631 63.8283 11.035C63.8463 12.439 63.8553 13.843 63.8553 15.247C63.8553 15.967 64.1613 16.309 64.7733 16.273C64.9173 16.273 65.0343 16.255 65.1243 16.219C65.2323 16.165 65.3313 16.111 65.4213 16.057C65.5113 15.985 65.5923 15.913 65.6643 15.841L65.9343 15.976C65.8083 16.3 65.6463 16.588 65.4483 16.84C65.2863 17.056 65.0793 17.254 64.8273 17.434C64.5753 17.596 64.2693 17.677 63.9093 17.677C63.3333 17.677 62.9193 17.488 62.6673 17.11C62.4153 16.732 62.2893 16.201 62.2893 15.517V14.734C62.1633 15.112 61.9923 15.481 61.7763 15.841C61.5783 16.183 61.3263 16.498 61.0203 16.786C60.7143 17.056 60.3453 17.272 59.9133 17.434C59.4993 17.596 59.0133 17.677 58.4553 17.677ZM62.3163 11.737C62.3163 10.441 62.0823 9.433 61.6143 8.713C61.1643 7.975 60.3633 7.606 59.2113 7.606C58.8153 7.606 58.4013 7.687 57.9693 7.849C57.5373 8.011 57.1413 8.272 56.7813 8.632C56.4213 8.974 56.1243 9.424 55.8903 9.982C55.6563 10.54 55.5393 11.206 55.5393 11.98C55.5393 12.592 55.6203 13.177 55.7823 13.735C55.9443 14.275 56.1693 14.761 56.4573 15.193C56.7633 15.607 57.1323 15.94 57.5643 16.192C58.0143 16.426 58.5183 16.543 59.0763 16.543C59.5263 16.543 59.9493 16.435 60.3453 16.219C60.7413 15.985 61.0833 15.67 61.3713 15.274C61.6593 14.86 61.8843 14.383 62.0463 13.843C62.2263 13.285 62.3163 12.682 62.3163 12.034V11.737ZM77.0545 16.084C76.5865 16.678 75.9925 17.119 75.2725 17.407C74.5525 17.677 73.8505 17.812 73.1665 17.812C72.3205 17.812 71.5555 17.668 70.8715 17.38C70.2055 17.074 69.6295 16.669 69.1435 16.165C68.6755 15.661 68.3155 15.076 68.0635 14.41C67.8115 13.744 67.6855 13.051 67.6855 12.331C67.6855 11.485 67.8115 10.711 68.0635 10.009C68.3155 9.307 68.6845 8.704 69.1705 8.2C69.6745 7.696 70.2865 7.309 71.0065 7.039C71.7445 6.751 72.5905 6.607 73.5445 6.607C74.5345 6.607 75.3355 6.76 75.9475 7.066C76.5775 7.354 76.8925 7.732 76.8925 8.2C76.8925 8.452 76.8115 8.677 76.6495 8.875C76.4875 9.055 76.3075 9.154 76.1095 9.172C75.8575 9.19 75.6325 9.1 75.4345 8.902C75.2365 8.686 75.0115 8.452 74.7595 8.2C74.5255 7.948 74.2375 7.723 73.8955 7.525C73.5715 7.309 73.1485 7.201 72.6265 7.201C72.0685 7.201 71.5915 7.345 71.1955 7.633C70.7995 7.921 70.4665 8.29 70.1965 8.74C69.9445 9.19 69.7555 9.703 69.6295 10.279C69.5215 10.837 69.4675 11.413 69.4675 12.007C69.4675 12.637 69.5665 13.249 69.7645 13.843C69.9805 14.419 70.2775 14.932 70.6555 15.382C71.0335 15.814 71.4835 16.156 72.0055 16.408C72.5455 16.66 73.1395 16.786 73.7875 16.786C74.5075 16.768 75.0745 16.642 75.4885 16.408C75.9025 16.174 76.3075 15.841 76.7035 15.409L77.0545 16.084ZM81.8634 4.366H82.1874C82.1874 4.852 82.1874 5.338 82.1874 5.824C82.2054 6.292 82.2144 6.769 82.2144 7.255L85.8864 7.174V8.146L82.2144 8.254V13.762C82.2144 14.842 82.2864 15.661 82.4304 16.219C82.5924 16.759 83.0244 17.011 83.7264 16.975C84.2664 16.939 84.9774 16.687 85.8594 16.219L86.1024 16.597C85.7244 17.029 85.2834 17.344 84.7794 17.542C84.2934 17.722 83.6004 17.812 82.7004 17.812C82.2504 17.812 81.8814 17.767 81.5934 17.677C81.3054 17.569 81.0804 17.389 80.9184 17.137C80.7564 16.867 80.6484 16.516 80.5944 16.084C80.5404 15.652 80.5134 15.094 80.5134 14.41V8.308C80.2614 8.308 80.0184 8.317 79.7844 8.335C79.5504 8.335 79.3074 8.335 79.0554 8.335C78.8034 8.335 78.6774 8.272 78.6774 8.146C78.6774 8.002 78.7944 7.876 79.0284 7.768C79.8204 7.426 80.3784 7.057 80.7024 6.661C80.8824 6.445 81.0714 6.148 81.2694 5.77C81.4674 5.392 81.6654 4.924 81.8634 4.366ZM93.7789 7.12H97.2349V14.086C97.2349 14.95 97.3789 15.562 97.6669 15.922C97.9729 16.282 98.5399 16.462 99.3679 16.462C100.592 16.462 101.717 16.003 102.743 15.085V8.578C102.743 8.398 102.707 8.254 102.635 8.146C102.581 8.038 102.464 7.957 102.284 7.903C102.122 7.831 101.879 7.768 101.555 7.714C101.231 7.66 100.799 7.606 100.259 7.552V7.12H104.498V15.058C104.498 15.382 104.516 15.643 104.552 15.841C104.588 16.021 104.669 16.156 104.795 16.246C104.939 16.318 105.128 16.372 105.362 16.408C105.614 16.426 105.956 16.435 106.388 16.435C106.388 16.507 106.388 16.579 106.388 16.651C106.406 16.705 106.415 16.768 106.415 16.84L102.743 17.812V15.76C101.933 16.444 101.204 16.966 100.556 17.326C99.9259 17.668 99.2869 17.839 98.6389 17.839C97.7209 17.839 96.9739 17.506 96.3979 16.84C95.8219 16.174 95.5339 15.292 95.5339 14.194V8.551C95.5339 8.209 95.4169 7.975 95.1829 7.849C94.9669 7.723 94.4989 7.606 93.7789 7.498V7.12ZM114.639 9.604C114.567 9.316 114.432 9.028 114.234 8.74C114.036 8.452 113.811 8.2 113.559 7.984C113.325 7.75 113.073 7.57 112.803 7.444C112.533 7.3 112.29 7.228 112.074 7.228C110.76 7.228 110.103 7.831 110.103 9.037C110.103 9.523 110.319 9.937 110.751 10.279C111.183 10.603 111.84 10.927 112.722 11.251C114.756 12.043 115.773 13.141 115.773 14.545C115.773 15.049 115.674 15.508 115.476 15.922C115.278 16.318 115.008 16.66 114.666 16.948C114.324 17.218 113.919 17.434 113.451 17.596C113.001 17.74 112.524 17.812 112.02 17.812C110.742 17.812 109.68 17.578 108.834 17.11L108.564 14.059H109.023C109.149 14.545 109.329 14.986 109.563 15.382C109.797 15.76 110.058 16.093 110.346 16.381C110.634 16.651 110.94 16.867 111.264 17.029C111.606 17.173 111.939 17.245 112.263 17.245C112.911 17.245 113.433 17.065 113.829 16.705C114.225 16.345 114.423 15.877 114.423 15.301C114.423 14.257 113.577 13.429 111.885 12.817C110.697 12.367 109.842 11.899 109.32 11.413C108.816 10.909 108.564 10.252 108.564 9.442C108.564 8.578 108.915 7.894 109.617 7.39C110.319 6.868 111.192 6.607 112.236 6.607C113.334 6.607 114.252 6.823 114.99 7.255L115.152 9.604H114.639Z" fill="black"/>
</svg>
