<svg width="188" height="39" viewBox="0 0 188 39" fill="none" xmlns="http://www.w3.org/2000/svg">
<path d="M4.375 15H1.23295V4.81818H4.5142C5.50189 4.81818 6.34706 5.02202 7.04972 5.42969C7.75237 5.83404 8.29096 6.41572 8.66548 7.17472C9.04001 7.9304 9.22727 8.83523 9.22727 9.8892C9.22727 10.9498 9.03835 11.8629 8.66051 12.6286C8.28267 13.3909 7.73248 13.9775 7.00994 14.3885C6.28741 14.7962 5.40909 15 4.375 15ZM2.46591 13.9062H4.29545C5.13731 13.9062 5.83499 13.7438 6.38849 13.419C6.942 13.0942 7.35464 12.6319 7.62642 12.032C7.8982 11.4321 8.03409 10.7178 8.03409 9.8892C8.03409 9.06723 7.89986 8.35961 7.63139 7.76633C7.36293 7.16974 6.96188 6.71236 6.42827 6.39418C5.89465 6.07268 5.23011 5.91193 4.43466 5.91193H2.46591V13.9062ZM14.3381 15.1591C13.6023 15.1591 12.9676 14.9967 12.4339 14.6719C11.9036 14.3438 11.4943 13.8864 11.206 13.2997C10.9209 12.7098 10.7784 12.0237 10.7784 11.2415C10.7784 10.4593 10.9209 9.76989 11.206 9.1733C11.4943 8.57339 11.8954 8.10606 12.4091 7.77131C12.9261 7.43324 13.5294 7.2642 14.2188 7.2642C14.6165 7.2642 15.0092 7.33049 15.397 7.46307C15.7848 7.59564 16.1378 7.81108 16.456 8.10938C16.7741 8.40436 17.0277 8.79545 17.2166 9.28267C17.4055 9.76989 17.5 10.3698 17.5 11.0824V11.5795H11.6136V10.5653H16.3068C16.3068 10.1345 16.2206 9.75 16.0483 9.41193C15.8793 9.07386 15.6373 8.80705 15.3224 8.61151C15.0109 8.41596 14.643 8.31818 14.2188 8.31818C13.7514 8.31818 13.3471 8.43419 13.0057 8.66619C12.6676 8.89489 12.4074 9.19318 12.2251 9.56108C12.0429 9.92898 11.9517 10.3234 11.9517 10.7443V11.4205C11.9517 11.9972 12.0511 12.486 12.25 12.8871C12.4522 13.2848 12.7322 13.5881 13.0902 13.7969C13.4482 14.0024 13.8641 14.1051 14.3381 14.1051C14.6463 14.1051 14.9247 14.062 15.1733 13.9759C15.4252 13.8864 15.6423 13.7538 15.8246 13.5781C16.0069 13.3991 16.1477 13.1771 16.2472 12.9119L17.3807 13.2301C17.2614 13.6146 17.0608 13.9527 16.7791 14.2443C16.4974 14.5327 16.1494 14.758 15.7351 14.9205C15.3208 15.0795 14.8551 15.1591 14.3381 15.1591ZM24.6939 9.07386L23.6399 9.37216C23.5736 9.1965 23.4759 9.0258 23.3466 8.86009C23.2206 8.69105 23.0483 8.55185 22.8295 8.44247C22.6108 8.3331 22.3307 8.27841 21.9893 8.27841C21.522 8.27841 21.1326 8.38613 20.821 8.60156C20.5128 8.81368 20.3587 9.08381 20.3587 9.41193C20.3587 9.7036 20.4647 9.93395 20.6768 10.103C20.889 10.272 21.2204 10.4129 21.6712 10.5256L22.8047 10.804C23.4875 10.9697 23.9962 11.2232 24.331 11.5646C24.6657 11.9027 24.8331 12.3385 24.8331 12.8722C24.8331 13.3097 24.7071 13.7008 24.4553 14.0455C24.2067 14.3902 23.8587 14.6619 23.4112 14.8608C22.9638 15.0597 22.4434 15.1591 21.8501 15.1591C21.0713 15.1591 20.4266 14.9901 19.9162 14.652C19.4058 14.3139 19.0826 13.8201 18.9467 13.1705L20.0604 12.892C20.1664 13.303 20.367 13.6113 20.6619 13.8168C20.9602 14.0223 21.3497 14.125 21.8303 14.125C22.3771 14.125 22.8113 14.009 23.1328 13.777C23.4576 13.5417 23.62 13.2599 23.62 12.9318C23.62 12.6667 23.5272 12.4446 23.3416 12.2656C23.156 12.0833 22.871 11.9474 22.4865 11.858L21.2138 11.5597C20.5144 11.3939 20.0007 11.1371 19.6726 10.7891C19.3478 10.4377 19.1854 9.99858 19.1854 9.47159C19.1854 9.04072 19.3063 8.65956 19.5483 8.32812C19.7936 7.99669 20.1267 7.73651 20.5476 7.54758C20.9718 7.35866 21.4524 7.2642 21.9893 7.2642C22.745 7.2642 23.3383 7.42992 23.7692 7.76136C24.2034 8.0928 24.5116 8.5303 24.6939 9.07386ZM26.5993 15V7.36364H27.7725V15H26.5993ZM27.1958 6.09091C26.9672 6.09091 26.7699 6.01302 26.6042 5.85724C26.4418 5.70147 26.3606 5.5142 26.3606 5.29545C26.3606 5.0767 26.4418 4.88944 26.6042 4.73366C26.7699 4.57789 26.9672 4.5 27.1958 4.5C27.4245 4.5 27.6201 4.57789 27.7825 4.73366C27.9482 4.88944 28.0311 5.0767 28.0311 5.29545C28.0311 5.5142 27.9482 5.70147 27.7825 5.85724C27.6201 6.01302 27.4245 6.09091 27.1958 6.09091ZM33.0039 18.0227C32.4371 18.0227 31.9499 17.9498 31.5423 17.804C31.1346 17.6615 30.7949 17.4725 30.5231 17.2372C30.2546 17.0052 30.0408 16.7566 29.8817 16.4915L30.8164 15.8352C30.9225 15.9744 31.0567 16.1335 31.2191 16.3125C31.3815 16.4948 31.6036 16.6522 31.8853 16.7848C32.1703 16.9207 32.5432 16.9886 33.0039 16.9886C33.6204 16.9886 34.1291 16.8395 34.5302 16.5412C34.9312 16.2429 35.1317 15.7756 35.1317 15.1392V13.5881H35.0323C34.9461 13.7273 34.8235 13.8996 34.6644 14.1051C34.5086 14.3073 34.2833 14.4879 33.9883 14.647C33.6966 14.8028 33.3022 14.8807 32.805 14.8807C32.1886 14.8807 31.6351 14.7348 31.1445 14.4432C30.6573 14.1515 30.2712 13.7273 29.9862 13.1705C29.7044 12.6136 29.5636 11.9375 29.5636 11.142C29.5636 10.3598 29.7011 9.67874 29.9762 9.09872C30.2513 8.51539 30.6341 8.06463 31.1246 7.74645C31.6152 7.42495 32.1819 7.2642 32.8249 7.2642C33.3221 7.2642 33.7165 7.34706 34.0082 7.51278C34.3031 7.67519 34.5285 7.8608 34.6843 8.0696C34.8434 8.27509 34.966 8.44413 35.0522 8.5767H35.1715V7.36364H36.305V15.2188C36.305 15.875 36.1559 16.4086 35.8576 16.8196C35.5626 17.2339 35.1649 17.5372 34.6644 17.7294C34.1673 17.925 33.6138 18.0227 33.0039 18.0227ZM32.9641 13.8267C33.4348 13.8267 33.8325 13.719 34.1573 13.5036C34.4821 13.2881 34.729 12.9782 34.8981 12.5739C35.0671 12.1695 35.1516 11.6856 35.1516 11.1222C35.1516 10.572 35.0688 10.0864 34.9031 9.66548C34.7373 9.24455 34.4921 8.91477 34.1673 8.67614C33.8424 8.4375 33.4414 8.31818 32.9641 8.31818C32.467 8.31818 32.0527 8.44413 31.7212 8.69602C31.3931 8.94792 31.1462 9.28598 30.9805 9.71023C30.8181 10.1345 30.7369 10.6051 30.7369 11.1222C30.7369 11.6525 30.8197 12.1214 30.9854 12.5291C31.1545 12.9335 31.4031 13.2517 31.7312 13.4837C32.0626 13.7124 32.4736 13.8267 32.9641 13.8267ZM39.6261 10.4062V15H38.4528V7.36364H39.5863V8.55682H39.6857C39.8647 8.16903 40.1365 7.85748 40.5011 7.62216C40.8656 7.38352 41.3363 7.2642 41.913 7.2642C42.43 7.2642 42.8825 7.37027 43.2702 7.58239C43.658 7.79119 43.9596 8.10938 44.1751 8.53693C44.3905 8.96117 44.4982 9.49811 44.4982 10.1477V15H43.3249V10.2273C43.3249 9.62737 43.1692 9.16004 42.8576 8.82528C42.546 8.48722 42.1185 8.31818 41.5749 8.31818C41.2004 8.31818 40.8656 8.39938 40.5707 8.56179C40.279 8.72419 40.0487 8.96117 39.8796 9.27273C39.7106 9.58428 39.6261 9.96212 39.6261 10.4062ZM49.8439 15.1591C49.1081 15.1591 48.4734 14.9967 47.9398 14.6719C47.4095 14.3438 47.0002 13.8864 46.7118 13.2997C46.4268 12.7098 46.2843 12.0237 46.2843 11.2415C46.2843 10.4593 46.4268 9.76989 46.7118 9.1733C47.0002 8.57339 47.4012 8.10606 47.915 7.77131C48.432 7.43324 49.0352 7.2642 49.7246 7.2642C50.1223 7.2642 50.5151 7.33049 50.9029 7.46307C51.2907 7.59564 51.6436 7.81108 51.9618 8.10938C52.28 8.40436 52.5336 8.79545 52.7225 9.28267C52.9114 9.76989 53.0059 10.3698 53.0059 11.0824V11.5795H47.1195V10.5653H51.8127C51.8127 10.1345 51.7265 9.75 51.5542 9.41193C51.3851 9.07386 51.1432 8.80705 50.8283 8.61151C50.5167 8.41596 50.1489 8.31818 49.7246 8.31818C49.2573 8.31818 48.8529 8.43419 48.5115 8.66619C48.1735 8.89489 47.9133 9.19318 47.731 9.56108C47.5487 9.92898 47.4576 10.3234 47.4576 10.7443V11.4205C47.4576 11.9972 47.557 12.486 47.7559 12.8871C47.958 13.2848 48.2381 13.5881 48.5961 13.7969C48.954 14.0024 49.37 14.1051 49.8439 14.1051C50.1522 14.1051 50.4306 14.062 50.6792 13.9759C50.931 13.8864 51.1481 13.7538 51.3304 13.5781C51.5127 13.3991 51.6536 13.1771 51.753 12.9119L52.8865 13.2301C52.7672 13.6146 52.5667 13.9527 52.285 14.2443C52.0033 14.5327 51.6552 14.758 51.2409 14.9205C50.8266 15.0795 50.361 15.1591 49.8439 15.1591ZM57.6742 15.1591C57.0378 15.1591 56.476 14.9983 55.9888 14.6768C55.5016 14.352 55.1204 13.8946 54.8453 13.3047C54.5703 12.7114 54.4327 12.0104 54.4327 11.2017C54.4327 10.3996 54.5703 9.7036 54.8453 9.11364C55.1204 8.52367 55.5033 8.06794 55.9938 7.74645C56.4843 7.42495 57.0511 7.2642 57.6941 7.2642C58.1912 7.2642 58.584 7.34706 58.8723 7.51278C59.164 7.67519 59.3861 7.8608 59.5385 8.0696C59.6943 8.27509 59.8153 8.44413 59.9015 8.5767H60.0009V4.81818H61.1742V15H60.0407V13.8267H59.9015C59.8153 13.9659 59.6926 14.1416 59.5336 14.3537C59.3745 14.5625 59.1474 14.7498 58.8525 14.9155C58.5575 15.0779 58.1647 15.1591 57.6742 15.1591ZM57.8333 14.1051C58.3039 14.1051 58.7016 13.9825 59.0265 13.7372C59.3513 13.4886 59.5982 13.1456 59.7672 12.7081C59.9363 12.2673 60.0208 11.7585 60.0208 11.1818C60.0208 10.6117 59.9379 10.1129 59.7722 9.68537C59.6065 9.2545 59.3612 8.91974 59.0364 8.68111C58.7116 8.43916 58.3105 8.31818 57.8333 8.31818C57.3361 8.31818 56.9218 8.44579 56.5904 8.70099C56.2623 8.95289 56.0153 9.29593 55.8496 9.73011C55.6872 10.161 55.606 10.6449 55.606 11.1818C55.606 11.7254 55.6889 12.2192 55.8546 12.6634C56.0236 13.1042 56.2722 13.4555 56.6003 13.7173C56.9318 13.9759 57.3427 14.1051 57.8333 14.1051ZM67.5826 15V4.81818H68.7559V8.5767H68.8553C68.9415 8.44413 69.0608 8.27509 69.2132 8.0696C69.369 7.8608 69.5911 7.67519 69.8794 7.51278C70.1711 7.34706 70.5655 7.2642 71.0627 7.2642C71.7057 7.2642 72.2724 7.42495 72.763 7.74645C73.2535 8.06794 73.6363 8.52367 73.9114 9.11364C74.1865 9.7036 74.324 10.3996 74.324 11.2017C74.324 12.0104 74.1865 12.7114 73.9114 13.3047C73.6363 13.8946 73.2551 14.352 72.7679 14.6768C72.2807 14.9983 71.7189 15.1591 71.0826 15.1591C70.592 15.1591 70.1993 15.0779 69.9043 14.9155C69.6093 14.7498 69.3823 14.5625 69.2232 14.3537C69.0641 14.1416 68.9415 13.9659 68.8553 13.8267H68.7161V15H67.5826ZM68.736 11.1818C68.736 11.7585 68.8205 12.2673 68.9895 12.7081C69.1586 13.1456 69.4055 13.4886 69.7303 13.7372C70.0551 13.9825 70.4528 14.1051 70.9235 14.1051C71.414 14.1051 71.8233 13.9759 72.1515 13.7173C72.4829 13.4555 72.7315 13.1042 72.8972 12.6634C73.0662 12.2192 73.1507 11.7254 73.1507 11.1818C73.1507 10.6449 73.0679 10.161 72.9022 9.73011C72.7398 9.29593 72.4928 8.95289 72.1614 8.70099C71.8333 8.44579 71.4206 8.31818 70.9235 8.31818C70.4462 8.31818 70.0452 8.43916 69.7203 8.68111C69.3955 8.91974 69.1503 9.2545 68.9846 9.68537C68.8188 10.1129 68.736 10.6117 68.736 11.1818ZM76.601 17.8636C76.4022 17.8636 76.2248 17.8471 76.0691 17.8139C75.9133 17.7841 75.8056 17.7543 75.7459 17.7244L76.0442 16.6903C76.3292 16.7633 76.5811 16.7898 76.7999 16.7699C77.0186 16.75 77.2125 16.6522 77.3816 16.4766C77.5539 16.3042 77.7114 16.0241 77.8539 15.6364L78.0726 15.0398L75.2488 7.36364H76.5215L78.6294 13.4489H78.709L80.8169 7.36364H82.0897L78.8482 16.1136C78.7024 16.508 78.5217 16.8345 78.3063 17.093C78.0909 17.3549 77.8406 17.5488 77.5556 17.6747C77.2739 17.8007 76.9557 17.8636 76.601 17.8636Z" fill="black"/>
<path d="M1.23295 34V23.8182H4.6733C5.47206 23.8182 6.125 23.9624 6.6321 24.2507C7.14252 24.5357 7.52036 24.9219 7.76562 25.4091C8.01089 25.8963 8.13352 26.4399 8.13352 27.0398C8.13352 27.6397 8.01089 28.1849 7.76562 28.6754C7.52367 29.166 7.14915 29.5571 6.64205 29.8487C6.13494 30.1371 5.48532 30.2812 4.69318 30.2812H2.22727V29.1875H4.65341C5.20028 29.1875 5.63944 29.093 5.97088 28.9041C6.30232 28.7152 6.54261 28.46 6.69176 28.1385C6.84422 27.8137 6.92045 27.4474 6.92045 27.0398C6.92045 26.6321 6.84422 26.2675 6.69176 25.946C6.54261 25.6245 6.30066 25.3726 5.96591 25.1903C5.63116 25.0047 5.18703 24.9119 4.63352 24.9119H2.46591V34H1.23295ZM12.9808 34.1591C12.2914 34.1591 11.6866 33.995 11.1662 33.6669C10.6491 33.3388 10.2448 32.8797 9.95312 32.2898C9.66477 31.6998 9.5206 31.0104 9.5206 30.2216C9.5206 29.4261 9.66477 28.7318 9.95312 28.1385C10.2448 27.5452 10.6491 27.0845 11.1662 26.7564C11.6866 26.4283 12.2914 26.2642 12.9808 26.2642C13.6702 26.2642 14.2734 26.4283 14.7905 26.7564C15.3108 27.0845 15.7152 27.5452 16.0036 28.1385C16.2952 28.7318 16.4411 29.4261 16.4411 30.2216C16.4411 31.0104 16.2952 31.6998 16.0036 32.2898C15.7152 32.8797 15.3108 33.3388 14.7905 33.6669C14.2734 33.995 13.6702 34.1591 12.9808 34.1591ZM12.9808 33.1051C13.5045 33.1051 13.9354 32.9709 14.2734 32.7024C14.6115 32.4339 14.8617 32.081 15.0241 31.6435C15.1866 31.206 15.2678 30.732 15.2678 30.2216C15.2678 29.7112 15.1866 29.2356 15.0241 28.7947C14.8617 28.3539 14.6115 27.9976 14.2734 27.7259C13.9354 27.4541 13.5045 27.3182 12.9808 27.3182C12.4571 27.3182 12.0263 27.4541 11.6882 27.7259C11.3501 27.9976 11.0999 28.3539 10.9375 28.7947C10.7751 29.2356 10.6939 29.7112 10.6939 30.2216C10.6939 30.732 10.7751 31.206 10.9375 31.6435C11.0999 32.081 11.3501 32.4339 11.6882 32.7024C12.0263 32.9709 12.4571 33.1051 12.9808 33.1051ZM19.7024 34L17.3757 26.3636H18.6087L20.2592 32.2102H20.3388L21.9695 26.3636H23.2223L24.8331 32.1903H24.9126L26.5632 26.3636H27.7962L25.4695 34H24.3161L22.6456 28.1335H22.5263L20.8558 34H19.7024ZM32.2892 34.1591C31.5534 34.1591 30.9187 33.9967 30.3851 33.6719C29.8548 33.3438 29.4455 32.8864 29.1571 32.2997C28.8721 31.7098 28.7296 31.0237 28.7296 30.2415C28.7296 29.4593 28.8721 28.7699 29.1571 28.1733C29.4455 27.5734 29.8465 27.1061 30.3603 26.7713C30.8773 26.4332 31.4805 26.2642 32.1699 26.2642C32.5676 26.2642 32.9604 26.3305 33.3482 26.4631C33.736 26.5956 34.089 26.8111 34.4071 27.1094C34.7253 27.4044 34.9789 27.7955 35.1678 28.2827C35.3567 28.7699 35.4512 29.3698 35.4512 30.0824V30.5795H29.5648V29.5653H34.258C34.258 29.1345 34.1718 28.75 33.9995 28.4119C33.8304 28.0739 33.5885 27.8071 33.2736 27.6115C32.9621 27.416 32.5942 27.3182 32.1699 27.3182C31.7026 27.3182 31.2982 27.4342 30.9569 27.6662C30.6188 27.8949 30.3586 28.1932 30.1763 28.5611C29.994 28.929 29.9029 29.3234 29.9029 29.7443V30.4205C29.9029 30.9972 30.0023 31.486 30.2012 31.8871C30.4033 32.2848 30.6834 32.5881 31.0414 32.7969C31.3993 33.0024 31.8153 33.1051 32.2892 33.1051C32.5975 33.1051 32.8759 33.062 33.1245 32.9759C33.3764 32.8864 33.5935 32.7538 33.7757 32.5781C33.958 32.3991 34.0989 32.1771 34.1983 31.9119L35.3319 32.2301C35.2125 32.6146 35.012 32.9527 34.7303 33.2443C34.4486 33.5327 34.1006 33.758 33.6863 33.9205C33.272 34.0795 32.8063 34.1591 32.2892 34.1591ZM37.236 34V26.3636H38.3695V27.517H38.449C38.5882 27.1392 38.8401 26.8326 39.2047 26.5973C39.5693 26.362 39.9803 26.2443 40.4377 26.2443C40.5239 26.2443 40.6316 26.246 40.7608 26.2493C40.8901 26.2526 40.9879 26.2576 41.0542 26.2642V27.4574C41.0144 27.4474 40.9232 27.4325 40.7807 27.4126C40.6415 27.3894 40.494 27.3778 40.3382 27.3778C39.967 27.3778 39.6356 27.4557 39.3439 27.6115C39.0556 27.764 38.8269 27.9761 38.6578 28.2479C38.4921 28.5163 38.4093 28.8229 38.4093 29.1676V34H37.236ZM45.4142 34.1591C44.6784 34.1591 44.0437 33.9967 43.5101 33.6719C42.9798 33.3438 42.5705 32.8864 42.2821 32.2997C41.9971 31.7098 41.8546 31.0237 41.8546 30.2415C41.8546 29.4593 41.9971 28.7699 42.2821 28.1733C42.5705 27.5734 42.9715 27.1061 43.4853 26.7713C44.0023 26.4332 44.6055 26.2642 45.2949 26.2642C45.6926 26.2642 46.0854 26.3305 46.4732 26.4631C46.861 26.5956 47.214 26.8111 47.5321 27.1094C47.8503 27.4044 48.1039 27.7955 48.2928 28.2827C48.4817 28.7699 48.5762 29.3698 48.5762 30.0824V30.5795H42.6898V29.5653H47.383C47.383 29.1345 47.2968 28.75 47.1245 28.4119C46.9554 28.0739 46.7135 27.8071 46.3986 27.6115C46.0871 27.416 45.7192 27.3182 45.2949 27.3182C44.8276 27.3182 44.4232 27.4342 44.0819 27.6662C43.7438 27.8949 43.4836 28.1932 43.3013 28.5611C43.119 28.929 43.0279 29.3234 43.0279 29.7443V30.4205C43.0279 30.9972 43.1273 31.486 43.3262 31.8871C43.5283 32.2848 43.8084 32.5881 44.1664 32.7969C44.5243 33.0024 44.9403 33.1051 45.4142 33.1051C45.7225 33.1051 46.0009 33.062 46.2495 32.9759C46.5014 32.8864 46.7185 32.7538 46.9007 32.5781C47.083 32.3991 47.2239 32.1771 47.3233 31.9119L48.4569 32.2301C48.3375 32.6146 48.137 32.9527 47.8553 33.2443C47.5736 33.5327 47.2256 33.758 46.8113 33.9205C46.397 34.0795 45.9313 34.1591 45.4142 34.1591ZM53.2445 34.1591C52.6081 34.1591 52.0463 33.9983 51.5591 33.6768C51.0719 33.352 50.6908 32.8946 50.4157 32.3047C50.1406 31.7114 50.003 31.0104 50.003 30.2017C50.003 29.3996 50.1406 28.7036 50.4157 28.1136C50.6908 27.5237 51.0736 27.0679 51.5641 26.7464C52.0546 26.425 52.6214 26.2642 53.2644 26.2642C53.7615 26.2642 54.1543 26.3471 54.4426 26.5128C54.7343 26.6752 54.9564 26.8608 55.1088 27.0696C55.2646 27.2751 55.3856 27.4441 55.4718 27.5767H55.5712V23.8182H56.7445V34H55.611V32.8267H55.4718C55.3856 32.9659 55.263 33.1416 55.1039 33.3537C54.9448 33.5625 54.7177 33.7498 54.4228 33.9155C54.1278 34.0779 53.735 34.1591 53.2445 34.1591ZM53.4036 33.1051C53.8742 33.1051 54.272 32.9825 54.5968 32.7372C54.9216 32.4886 55.1685 32.1456 55.3375 31.7081C55.5066 31.2673 55.5911 30.7585 55.5911 30.1818C55.5911 29.6117 55.5082 29.1129 55.3425 28.6854C55.1768 28.2545 54.9315 27.9197 54.6067 27.6811C54.2819 27.4392 53.8809 27.3182 53.4036 27.3182C52.9064 27.3182 52.4921 27.4458 52.1607 27.701C51.8326 27.9529 51.5856 28.2959 51.4199 28.7301C51.2575 29.161 51.1763 29.6449 51.1763 30.1818C51.1763 30.7254 51.2592 31.2192 51.4249 31.6634C51.5939 32.1042 51.8425 32.4555 52.1706 32.7173C52.5021 32.9759 52.9131 33.1051 53.4036 33.1051ZM63.1529 34V23.8182H64.3262V27.5767H64.4256C64.5118 27.4441 64.6311 27.2751 64.7836 27.0696C64.9393 26.8608 65.1614 26.6752 65.4498 26.5128C65.7414 26.3471 66.1358 26.2642 66.633 26.2642C67.276 26.2642 67.8427 26.425 68.3333 26.7464C68.8238 27.0679 69.2066 27.5237 69.4817 28.1136C69.7568 28.7036 69.8944 29.3996 69.8944 30.2017C69.8944 31.0104 69.7568 31.7114 69.4817 32.3047C69.2066 32.8946 68.8255 33.352 68.3382 33.6768C67.851 33.9983 67.2892 34.1591 66.6529 34.1591C66.1623 34.1591 65.7696 34.0779 65.4746 33.9155C65.1796 33.7498 64.9526 33.5625 64.7935 33.3537C64.6344 33.1416 64.5118 32.9659 64.4256 32.8267H64.2864V34H63.1529ZM64.3063 30.1818C64.3063 30.7585 64.3908 31.2673 64.5598 31.7081C64.7289 32.1456 64.9758 32.4886 65.3006 32.7372C65.6254 32.9825 66.0231 33.1051 66.4938 33.1051C66.9843 33.1051 67.3936 32.9759 67.7218 32.7173C68.0532 32.4555 68.3018 32.1042 68.4675 31.6634C68.6365 31.2192 68.7211 30.7254 68.7211 30.1818C68.7211 29.6449 68.6382 29.161 68.4725 28.7301C68.3101 28.2959 68.0632 27.9529 67.7317 27.701C67.4036 27.4458 66.9909 27.3182 66.4938 27.3182C66.0165 27.3182 65.6155 27.4392 65.2907 27.6811C64.9659 27.9197 64.7206 28.2545 64.5549 28.6854C64.3891 29.1129 64.3063 29.6117 64.3063 30.1818ZM72.1713 36.8636C71.9725 36.8636 71.7952 36.8471 71.6394 36.8139C71.4836 36.7841 71.3759 36.7543 71.3162 36.7244L71.6145 35.6903C71.8996 35.7633 72.1515 35.7898 72.3702 35.7699C72.589 35.75 72.7828 35.6522 72.9519 35.4766C73.1242 35.3042 73.2817 35.0241 73.4242 34.6364L73.6429 34.0398L70.8191 26.3636H72.0918L74.1998 32.4489H74.2793L76.3873 26.3636H77.66L74.4185 35.1136C74.2727 35.508 74.092 35.8345 73.8766 36.093C73.6612 36.3549 73.4109 36.5488 73.1259 36.6747C72.8442 36.8007 72.526 36.8636 72.1713 36.8636Z" fill="black"/>
<path d="M89.0824 34L86.2983 23.8182H87.5511L89.679 32.1108H89.7784L91.946 23.8182H93.3381L95.5057 32.1108H95.6051L97.733 23.8182H98.9858L96.2017 34H94.929L92.6818 25.8864H92.6023L90.3551 34H89.0824ZM102.854 34.1591C102.118 34.1591 101.483 33.9967 100.95 33.6719C100.419 33.3438 100.01 32.8864 99.7216 32.2997C99.4366 31.7098 99.294 31.0237 99.294 30.2415C99.294 29.4593 99.4366 28.7699 99.7216 28.1733C100.01 27.5734 100.411 27.1061 100.925 26.7713C101.442 26.4332 102.045 26.2642 102.734 26.2642C103.132 26.2642 103.525 26.3305 103.913 26.4631C104.3 26.5956 104.653 26.8111 104.972 27.1094C105.29 27.4044 105.543 27.7955 105.732 28.2827C105.921 28.7699 106.016 29.3698 106.016 30.0824V30.5795H100.129V29.5653H104.822C104.822 29.1345 104.736 28.75 104.564 28.4119C104.395 28.0739 104.153 27.8071 103.838 27.6115C103.527 27.416 103.159 27.3182 102.734 27.3182C102.267 27.3182 101.863 27.4342 101.521 27.6662C101.183 27.8949 100.923 28.1932 100.741 28.5611C100.558 28.929 100.467 29.3234 100.467 29.7443V30.4205C100.467 30.9972 100.567 31.486 100.766 31.8871C100.968 32.2848 101.248 32.5881 101.606 32.7969C101.964 33.0024 102.38 33.1051 102.854 33.1051C103.162 33.1051 103.44 33.062 103.689 32.9759C103.941 32.8864 104.158 32.7538 104.34 32.5781C104.522 32.3991 104.663 32.1771 104.763 31.9119L105.896 32.2301C105.777 32.6146 105.576 32.9527 105.295 33.2443C105.013 33.5327 104.665 33.758 104.251 33.9205C103.836 34.0795 103.371 34.1591 102.854 34.1591ZM107.96 34V23.8182H109.133V27.5767H109.232C109.318 27.4441 109.438 27.2751 109.59 27.0696C109.746 26.8608 109.968 26.6752 110.256 26.5128C110.548 26.3471 110.942 26.2642 111.44 26.2642C112.083 26.2642 112.649 26.425 113.14 26.7464C113.63 27.0679 114.013 27.5237 114.288 28.1136C114.563 28.7036 114.701 29.3996 114.701 30.2017C114.701 31.0104 114.563 31.7114 114.288 32.3047C114.013 32.8946 113.632 33.352 113.145 33.6768C112.658 33.9983 112.096 34.1591 111.46 34.1591C110.969 34.1591 110.576 34.0779 110.281 33.9155C109.986 33.7498 109.759 33.5625 109.6 33.3537C109.441 33.1416 109.318 32.9659 109.232 32.8267H109.093V34H107.96ZM109.113 30.1818C109.113 30.7585 109.197 31.2673 109.366 31.7081C109.536 32.1456 109.782 32.4886 110.107 32.7372C110.432 32.9825 110.83 33.1051 111.3 33.1051C111.791 33.1051 112.2 32.9759 112.528 32.7173C112.86 32.4555 113.108 32.1042 113.274 31.6634C113.443 31.2192 113.528 30.7254 113.528 30.1818C113.528 29.6449 113.445 29.161 113.279 28.7301C113.117 28.2959 112.87 27.9529 112.538 27.701C112.21 27.4458 111.798 27.3182 111.3 27.3182C110.823 27.3182 110.422 27.4392 110.097 27.6811C109.772 27.9197 109.527 28.2545 109.362 28.6854C109.196 29.1129 109.113 29.6117 109.113 30.1818ZM119.896 26.3636V27.358H115.78V26.3636H119.896ZM117.013 34V25.3097C117.013 24.8722 117.116 24.5076 117.321 24.2159C117.527 23.9242 117.793 23.7055 118.121 23.5597C118.45 23.4138 118.796 23.3409 119.161 23.3409C119.449 23.3409 119.684 23.3641 119.866 23.4105C120.049 23.4569 120.185 23.5 120.274 23.5398L119.936 24.554C119.876 24.5341 119.794 24.5092 119.688 24.4794C119.585 24.4496 119.449 24.4347 119.28 24.4347C118.892 24.4347 118.612 24.5324 118.44 24.728C118.271 24.9235 118.186 25.2102 118.186 25.5881V34H117.013ZM122.714 23.8182V34H121.541V23.8182H122.714ZM127.965 34.1591C127.276 34.1591 126.671 33.995 126.151 33.6669C125.634 33.3388 125.229 32.8797 124.938 32.2898C124.649 31.6998 124.505 31.0104 124.505 30.2216C124.505 29.4261 124.649 28.7318 124.938 28.1385C125.229 27.5452 125.634 27.0845 126.151 26.7564C126.671 26.4283 127.276 26.2642 127.965 26.2642C128.655 26.2642 129.258 26.4283 129.775 26.7564C130.295 27.0845 130.7 27.5452 130.988 28.1385C131.28 28.7318 131.425 29.4261 131.425 30.2216C131.425 31.0104 131.28 31.6998 130.988 32.2898C130.7 32.8797 130.295 33.3388 129.775 33.6669C129.258 33.995 128.655 34.1591 127.965 34.1591ZM127.965 33.1051C128.489 33.1051 128.92 32.9709 129.258 32.7024C129.596 32.4339 129.846 32.081 130.009 31.6435C130.171 31.206 130.252 30.732 130.252 30.2216C130.252 29.7112 130.171 29.2356 130.009 28.7947C129.846 28.3539 129.596 27.9976 129.258 27.7259C128.92 27.4541 128.489 27.3182 127.965 27.3182C127.442 27.3182 127.011 27.4541 126.673 27.7259C126.335 27.9976 126.084 28.3539 125.922 28.7947C125.759 29.2356 125.678 29.7112 125.678 30.2216C125.678 30.732 125.759 31.206 125.922 31.6435C126.084 32.081 126.335 32.4339 126.673 32.7024C127.011 32.9709 127.442 33.1051 127.965 33.1051ZM134.687 34L132.36 26.3636H133.593L135.244 32.2102H135.323L136.954 26.3636H138.207L139.817 32.1903H139.897L141.548 26.3636H142.781L140.454 34H139.3L137.63 28.1335H137.511L135.84 34H134.687Z" fill="#68513F"/>
<path d="M92.0824 15L89.2983 4.81818H90.5511L92.679 13.1108H92.7784L94.946 4.81818H96.3381L98.5057 13.1108H98.6051L100.733 4.81818H101.986L99.2017 15H97.929L95.6818 6.88636H95.6023L93.3551 15H92.0824ZM105.854 15.1591C105.118 15.1591 104.483 14.9967 103.95 14.6719C103.419 14.3438 103.01 13.8864 102.722 13.2997C102.437 12.7098 102.294 12.0237 102.294 11.2415C102.294 10.4593 102.437 9.76989 102.722 9.1733C103.01 8.57339 103.411 8.10606 103.925 7.77131C104.442 7.43324 105.045 7.2642 105.734 7.2642C106.132 7.2642 106.525 7.33049 106.913 7.46307C107.3 7.59564 107.653 7.81108 107.972 8.10938C108.29 8.40436 108.543 8.79545 108.732 9.28267C108.921 9.76989 109.016 10.3698 109.016 11.0824V11.5795H103.129V10.5653H107.822C107.822 10.1345 107.736 9.75 107.564 9.41193C107.395 9.07386 107.153 8.80705 106.838 8.61151C106.527 8.41596 106.159 8.31818 105.734 8.31818C105.267 8.31818 104.863 8.43419 104.521 8.66619C104.183 8.89489 103.923 9.19318 103.741 9.56108C103.558 9.92898 103.467 10.3234 103.467 10.7443V11.4205C103.467 11.9972 103.567 12.486 103.766 12.8871C103.968 13.2848 104.248 13.5881 104.606 13.7969C104.964 14.0024 105.38 14.1051 105.854 14.1051C106.162 14.1051 106.44 14.062 106.689 13.9759C106.941 13.8864 107.158 13.7538 107.34 13.5781C107.522 13.3991 107.663 13.1771 107.763 12.9119L108.896 13.2301C108.777 13.6146 108.576 13.9527 108.295 14.2443C108.013 14.5327 107.665 14.758 107.251 14.9205C106.836 15.0795 106.371 15.1591 105.854 15.1591ZM110.96 15V4.81818H112.133V8.5767H112.232C112.318 8.44413 112.438 8.27509 112.59 8.0696C112.746 7.8608 112.968 7.67519 113.256 7.51278C113.548 7.34706 113.942 7.2642 114.44 7.2642C115.083 7.2642 115.649 7.42495 116.14 7.74645C116.63 8.06794 117.013 8.52367 117.288 9.11364C117.563 9.7036 117.701 10.3996 117.701 11.2017C117.701 12.0104 117.563 12.7114 117.288 13.3047C117.013 13.8946 116.632 14.352 116.145 14.6768C115.658 14.9983 115.096 15.1591 114.46 15.1591C113.969 15.1591 113.576 15.0779 113.281 14.9155C112.986 14.7498 112.759 14.5625 112.6 14.3537C112.441 14.1416 112.318 13.9659 112.232 13.8267H112.093V15H110.96ZM112.113 11.1818C112.113 11.7585 112.197 12.2673 112.366 12.7081C112.536 13.1456 112.782 13.4886 113.107 13.7372C113.432 13.9825 113.83 14.1051 114.3 14.1051C114.791 14.1051 115.2 13.9759 115.528 13.7173C115.86 13.4555 116.108 13.1042 116.274 12.6634C116.443 12.2192 116.528 11.7254 116.528 11.1818C116.528 10.6449 116.445 10.161 116.279 9.73011C116.117 9.29593 115.87 8.95289 115.538 8.70099C115.21 8.44579 114.798 8.31818 114.3 8.31818C113.823 8.31818 113.422 8.43916 113.097 8.68111C112.772 8.91974 112.527 9.2545 112.362 9.68537C112.196 10.1129 112.113 10.6117 112.113 11.1818ZM122.697 15.1591C121.962 15.1591 121.327 14.9967 120.793 14.6719C120.263 14.3438 119.854 13.8864 119.565 13.2997C119.28 12.7098 119.138 12.0237 119.138 11.2415C119.138 10.4593 119.28 9.76989 119.565 9.1733C119.854 8.57339 120.255 8.10606 120.768 7.77131C121.286 7.43324 121.889 7.2642 122.578 7.2642C122.976 7.2642 123.369 7.33049 123.756 7.46307C124.144 7.59564 124.497 7.81108 124.815 8.10938C125.134 8.40436 125.387 8.79545 125.576 9.28267C125.765 9.76989 125.859 10.3698 125.859 11.0824V11.5795H119.973V10.5653H124.666C124.666 10.1345 124.58 9.75 124.408 9.41193C124.239 9.07386 123.997 8.80705 123.682 8.61151C123.37 8.41596 123.002 8.31818 122.578 8.31818C122.111 8.31818 121.706 8.43419 121.365 8.66619C121.027 8.89489 120.767 9.19318 120.585 9.56108C120.402 9.92898 120.311 10.3234 120.311 10.7443V11.4205C120.311 11.9972 120.411 12.486 120.609 12.8871C120.812 13.2848 121.092 13.5881 121.45 13.7969C121.808 14.0024 122.223 14.1051 122.697 14.1051C123.006 14.1051 123.284 14.062 123.533 13.9759C123.785 13.8864 124.002 13.7538 124.184 13.5781C124.366 13.3991 124.507 13.1771 124.607 12.9119L125.74 13.2301C125.621 13.6146 125.42 13.9527 125.138 14.2443C124.857 14.5327 124.509 14.758 124.094 14.9205C123.68 15.0795 123.214 15.1591 122.697 15.1591ZM133.053 9.07386L131.999 9.37216C131.933 9.1965 131.835 9.0258 131.706 8.86009C131.58 8.69105 131.408 8.55185 131.189 8.44247C130.97 8.3331 130.69 8.27841 130.349 8.27841C129.881 8.27841 129.492 8.38613 129.18 8.60156C128.872 8.81368 128.718 9.08381 128.718 9.41193C128.718 9.7036 128.824 9.93395 129.036 10.103C129.248 10.272 129.58 10.4129 130.031 10.5256L131.164 10.804C131.847 10.9697 132.356 11.2232 132.69 11.5646C133.025 11.9027 133.192 12.3385 133.192 12.8722C133.192 13.3097 133.067 13.7008 132.815 14.0455C132.566 14.3902 132.218 14.6619 131.771 14.8608C131.323 15.0597 130.803 15.1591 130.21 15.1591C129.431 15.1591 128.786 14.9901 128.276 14.652C127.765 14.3139 127.442 13.8201 127.306 13.1705L128.42 12.892C128.526 13.303 128.726 13.6113 129.021 13.8168C129.32 14.0223 129.709 14.125 130.19 14.125C130.737 14.125 131.171 14.009 131.492 13.777C131.817 13.5417 131.979 13.2599 131.979 12.9318C131.979 12.6667 131.887 12.4446 131.701 12.2656C131.515 12.0833 131.23 11.9474 130.846 11.858L129.573 11.5597C128.874 11.3939 128.36 11.1371 128.032 10.7891C127.707 10.4377 127.545 9.99858 127.545 9.47159C127.545 9.04072 127.666 8.65956 127.908 8.32812C128.153 7.99669 128.486 7.73651 128.907 7.54758C129.331 7.35866 129.812 7.2642 130.349 7.2642C131.104 7.2642 131.698 7.42992 132.129 7.76136C132.563 8.0928 132.871 8.5303 133.053 9.07386ZM138.28 7.36364V8.35795H134.322V7.36364H138.28ZM135.476 5.53409H136.649V12.8125C136.649 13.1439 136.697 13.3925 136.793 13.5582C136.893 13.7206 137.019 13.83 137.171 13.8864C137.327 13.9394 137.491 13.9659 137.663 13.9659C137.792 13.9659 137.898 13.9593 137.981 13.946C138.064 13.9295 138.131 13.9162 138.18 13.9062L138.419 14.9602C138.339 14.9901 138.228 15.0199 138.086 15.0497C137.943 15.0829 137.763 15.0994 137.544 15.0994C137.212 15.0994 136.888 15.0282 136.569 14.8857C136.255 14.7431 135.993 14.526 135.784 14.2344C135.578 13.9427 135.476 13.5748 135.476 13.1307V5.53409ZM140.045 15V7.36364H141.218V15H140.045ZM140.641 6.09091C140.412 6.09091 140.215 6.01302 140.05 5.85724C139.887 5.70147 139.806 5.5142 139.806 5.29545C139.806 5.0767 139.887 4.88944 140.05 4.73366C140.215 4.57789 140.412 4.5 140.641 4.5C140.87 4.5 141.065 4.57789 141.228 4.73366C141.394 4.88944 141.476 5.0767 141.476 5.29545C141.476 5.5142 141.394 5.70147 141.228 5.85724C141.065 6.01302 140.87 6.09091 140.641 6.09091ZM146.469 15.1591C145.753 15.1591 145.137 14.9901 144.62 14.652C144.103 14.3139 143.705 13.8482 143.426 13.255C143.148 12.6617 143.009 11.9839 143.009 11.2216C143.009 10.446 143.151 9.7616 143.436 9.16832C143.725 8.57173 144.126 8.10606 144.64 7.77131C145.157 7.43324 145.76 7.2642 146.449 7.2642C146.986 7.2642 147.47 7.36364 147.901 7.5625C148.332 7.76136 148.685 8.03977 148.96 8.39773C149.235 8.75568 149.406 9.1733 149.472 9.65057H148.299C148.209 9.30256 148.01 8.99432 147.702 8.72585C147.397 8.45407 146.986 8.31818 146.469 8.31818C146.012 8.31818 145.611 8.4375 145.266 8.67614C144.925 8.91146 144.658 9.24455 144.466 9.67543C144.277 10.103 144.182 10.6051 144.182 11.1818C144.182 11.7718 144.275 12.2855 144.461 12.723C144.65 13.1605 144.915 13.5002 145.256 13.7422C145.601 13.9841 146.005 14.1051 146.469 14.1051C146.774 14.1051 147.051 14.0521 147.299 13.946C147.548 13.84 147.758 13.6875 147.931 13.4886C148.103 13.2898 148.226 13.0511 148.299 12.7727H149.472C149.406 13.2235 149.242 13.6295 148.98 13.9908C148.721 14.3487 148.378 14.6338 147.951 14.8459C147.526 15.0547 147.033 15.1591 146.469 15.1591ZM153.434 15.179C152.95 15.179 152.511 15.0878 152.117 14.9055C151.722 14.7199 151.409 14.4531 151.177 14.1051C150.945 13.7538 150.829 13.3295 150.829 12.8324C150.829 12.3949 150.915 12.0402 151.088 11.7685C151.26 11.4934 151.49 11.2779 151.779 11.1222C152.067 10.9664 152.385 10.8504 152.733 10.7741C153.085 10.6946 153.438 10.6316 153.792 10.5852C154.256 10.5256 154.632 10.4808 154.921 10.451C155.212 10.4179 155.425 10.3632 155.557 10.2869C155.693 10.2107 155.761 10.0781 155.761 9.8892V9.84943C155.761 9.3589 155.627 8.97775 155.358 8.70597C155.093 8.43419 154.69 8.2983 154.15 8.2983C153.59 8.2983 153.151 8.42093 152.833 8.66619C152.515 8.91146 152.291 9.1733 152.162 9.4517L151.048 9.05398C151.247 8.58996 151.512 8.22869 151.843 7.97017C152.178 7.70833 152.543 7.52604 152.937 7.4233C153.335 7.31723 153.726 7.2642 154.11 7.2642C154.356 7.2642 154.637 7.29403 154.956 7.35369C155.277 7.41004 155.587 7.5277 155.885 7.70668C156.187 7.88565 156.437 8.15578 156.636 8.51705C156.835 8.87831 156.934 9.36222 156.934 9.96875V15H155.761V13.9659H155.701C155.622 14.1316 155.489 14.3089 155.304 14.4979C155.118 14.6868 154.871 14.8475 154.563 14.9801C154.255 15.1127 153.878 15.179 153.434 15.179ZM153.613 14.125C154.077 14.125 154.468 14.0339 154.787 13.8516C155.108 13.6693 155.35 13.4339 155.512 13.1456C155.678 12.8572 155.761 12.554 155.761 12.2358V11.1619C155.711 11.2216 155.602 11.2763 155.433 11.326C155.267 11.3724 155.075 11.4138 154.856 11.4503C154.641 11.4834 154.43 11.5133 154.225 11.5398C154.023 11.563 153.859 11.5829 153.733 11.5994C153.428 11.6392 153.143 11.7038 152.877 11.7933C152.616 11.8795 152.404 12.0104 152.241 12.1861C152.082 12.3584 152.002 12.5937 152.002 12.892C152.002 13.2997 152.153 13.608 152.455 13.8168C152.76 14.0223 153.146 14.125 153.613 14.125Z" fill="#68513F"/>
</svg>
