<svg width="654" height="458" viewBox="0 0 654 458" fill="none" xmlns="http://www.w3.org/2000/svg">
<path d="M1.053 151.135V149.758L5.832 149.515C10.908 149.245 14.931 149.056 17.901 148.948C20.871 148.786 22.788 148.705 23.652 148.705C29.7 148.705 34.317 149.731 37.503 151.783C40.689 153.835 42.282 156.886 42.282 160.936C42.282 164.932 39.366 168.226 33.534 170.818C41.85 173.086 46.008 177.757 46.008 184.831C46.062 187.099 45.522 189.205 44.388 191.149C43.308 193.039 41.769 194.686 39.771 196.09C37.827 197.44 35.532 198.493 32.886 199.249C30.294 200.005 27.54 200.329 24.624 200.221C21.816 200.221 19.008 200.221 16.2 200.221C13.392 200.167 10.584 200.14 7.776 200.14H2.025V198.844L7.128 197.872C8.154 197.656 8.883 197.278 9.315 196.738C9.747 196.144 9.963 195.064 9.963 193.498V154.294C9.963 153.862 9.936 153.511 9.882 153.241C9.882 152.917 9.747 152.647 9.477 152.431C9.261 152.215 8.91 152.053 8.424 151.945C7.938 151.837 7.236 151.729 6.318 151.621L1.053 151.135ZM16.605 171.304C17.469 171.466 19.71 171.547 23.328 171.547C25.11 171.547 26.73 171.277 28.188 170.737C29.7 170.143 30.996 169.36 32.076 168.388C33.21 167.416 34.074 166.255 34.668 164.905C35.262 163.555 35.559 162.07 35.559 160.45C35.559 157.21 34.452 154.78 32.238 153.16C30.078 151.486 26.892 150.649 22.68 150.649C20.574 150.649 18.549 150.892 16.605 151.378V171.304ZM16.605 173.734V191.878C16.605 195.982 19.764 198.034 26.082 198.034C27.756 198.034 29.376 197.71 30.942 197.062C32.508 196.414 33.885 195.55 35.073 194.47C36.315 193.39 37.287 192.121 37.989 190.663C38.691 189.205 39.042 187.693 39.042 186.127C39.042 181.753 37.719 178.54 35.073 176.488C32.427 174.436 28.323 173.41 22.761 173.41C21.843 173.41 20.844 173.437 19.764 173.491C18.738 173.545 17.685 173.626 16.605 173.734ZM81.019 179.809H58.42C58.258 180.889 58.177 181.969 58.177 183.049C58.177 185.155 58.474 187.099 59.068 188.881C59.662 190.609 60.499 192.094 61.579 193.336C62.713 194.578 64.063 195.55 65.629 196.252C67.249 196.954 69.031 197.305 70.975 197.305C72.865 197.305 74.593 196.927 76.159 196.171C77.725 195.415 79.426 194.173 81.262 192.445L81.586 194.389C77.752 199.087 72.865 201.436 66.925 201.436C64.981 201.436 63.145 201.004 61.417 200.14C59.743 199.276 58.285 198.115 57.043 196.657C55.801 195.145 54.829 193.39 54.127 191.392C53.425 189.34 53.074 187.126 53.074 184.75C53.074 182.374 53.452 180.16 54.208 178.108C55.018 176.056 56.125 174.274 57.529 172.762C58.933 171.196 60.58 169.981 62.47 169.117C64.36 168.253 66.439 167.821 68.707 167.821C70.435 167.821 72.028 168.118 73.486 168.712C74.944 169.252 76.213 170.062 77.293 171.142C78.427 172.168 79.291 173.437 79.885 174.949C80.533 176.407 80.911 178.027 81.019 179.809ZM58.825 178.108H71.137C72.865 178.108 74.134 178 74.944 177.784C75.808 177.514 76.024 176.65 75.592 175.192C75.16 173.788 74.404 172.519 73.324 171.385C72.298 170.251 70.732 169.684 68.626 169.684C66.034 169.684 63.874 170.44 62.146 171.952C60.472 173.464 59.365 175.516 58.825 178.108ZM101.321 201.031C99.1069 201.031 97.1629 200.653 95.4889 199.897C93.8149 199.087 92.4109 198.007 91.2769 196.657C90.1969 195.307 89.3869 193.714 88.8469 191.878C88.3069 190.042 88.0369 188.071 88.0369 185.965C88.0369 183.103 88.5229 180.592 89.4949 178.432C90.4669 176.218 91.7359 174.382 93.3019 172.924C94.8679 171.466 96.6499 170.359 98.6479 169.603C100.646 168.847 102.671 168.469 104.723 168.469C105.695 168.469 106.64 168.577 107.558 168.793C108.476 169.009 109.286 169.252 109.988 169.522C110.798 169.792 111.554 170.116 112.256 170.494L116.711 168.226L117.44 168.469C117.44 172.681 117.44 176.893 117.44 181.105C117.494 185.317 117.521 189.529 117.521 193.741C117.521 195.901 118.439 196.927 120.275 196.819C120.707 196.819 121.058 196.765 121.328 196.657C121.652 196.495 121.949 196.333 122.219 196.171C122.489 195.955 122.732 195.739 122.948 195.523L123.758 195.928C123.38 196.9 122.894 197.764 122.3 198.52C121.814 199.168 121.193 199.762 120.437 200.302C119.681 200.788 118.763 201.031 117.683 201.031C115.955 201.031 114.713 200.464 113.957 199.33C113.201 198.196 112.823 196.603 112.823 194.551V192.202C112.445 193.336 111.932 194.443 111.284 195.523C110.69 196.549 109.934 197.494 109.016 198.358C108.098 199.168 106.991 199.816 105.695 200.302C104.453 200.788 102.995 201.031 101.321 201.031ZM112.904 183.211C112.904 179.323 112.202 176.299 110.798 174.139C109.448 171.925 107.045 170.818 103.589 170.818C102.401 170.818 101.159 171.061 99.8629 171.547C98.5669 172.033 97.3789 172.816 96.2989 173.896C95.2189 174.922 94.3279 176.272 93.6259 177.946C92.9239 179.62 92.5729 181.618 92.5729 183.94C92.5729 185.776 92.8159 187.531 93.3019 189.205C93.7879 190.825 94.4629 192.283 95.3269 193.579C96.2449 194.821 97.3519 195.82 98.6479 196.576C99.9979 197.278 101.51 197.629 103.184 197.629C104.534 197.629 105.803 197.305 106.991 196.657C108.179 195.955 109.205 195.01 110.069 193.822C110.933 192.58 111.608 191.149 112.094 189.529C112.634 187.855 112.904 186.046 112.904 184.102V183.211ZM127.715 169.36H138.083V190.258C138.083 192.85 138.515 194.686 139.379 195.766C140.297 196.846 141.998 197.386 144.482 197.386C148.154 197.386 151.529 196.009 154.607 193.255V173.734C154.607 173.194 154.499 172.762 154.283 172.438C154.121 172.114 153.77 171.871 153.23 171.709C152.744 171.493 152.015 171.304 151.043 171.142C150.071 170.98 148.775 170.818 147.155 170.656V169.36H159.872V193.174C159.872 194.146 159.926 194.929 160.034 195.523C160.142 196.063 160.385 196.468 160.763 196.738C161.195 196.954 161.762 197.116 162.464 197.224C163.22 197.278 164.246 197.305 165.542 197.305C165.542 197.521 165.542 197.737 165.542 197.953C165.596 198.115 165.623 198.304 165.623 198.52L154.607 201.436V195.28C152.177 197.332 149.99 198.898 148.046 199.978C146.156 201.004 144.239 201.517 142.295 201.517C139.541 201.517 137.3 200.518 135.572 198.52C133.844 196.522 132.98 193.876 132.98 190.582V173.653C132.98 172.627 132.629 171.925 131.927 171.547C131.279 171.169 129.875 170.818 127.715 170.494V169.36ZM180.009 161.098H180.981C180.981 162.556 180.981 164.014 180.981 165.472C181.035 166.876 181.062 168.307 181.062 169.765L192.078 169.522V172.438L181.062 172.762V189.286C181.062 192.526 181.278 194.983 181.71 196.657C182.196 198.277 183.492 199.033 185.598 198.925C187.218 198.817 189.351 198.061 191.997 196.657L192.726 197.791C191.592 199.087 190.269 200.032 188.757 200.626C187.299 201.166 185.22 201.436 182.52 201.436C181.17 201.436 180.063 201.301 179.199 201.031C178.335 200.707 177.66 200.167 177.174 199.411C176.688 198.601 176.364 197.548 176.202 196.252C176.04 194.956 175.959 193.282 175.959 191.23V172.924C175.203 172.924 174.474 172.951 173.772 173.005C173.07 173.005 172.341 173.005 171.585 173.005C170.829 173.005 170.451 172.816 170.451 172.438C170.451 172.006 170.802 171.628 171.504 171.304C173.88 170.278 175.554 169.171 176.526 167.983C177.066 167.335 177.633 166.444 178.227 165.31C178.821 164.176 179.415 162.772 180.009 161.098ZM209.519 208.402C208.547 210.994 207.386 212.911 206.036 214.153C204.74 215.449 203.336 216.097 201.824 216.097C200.798 216.097 200.015 215.773 199.475 215.125C198.935 214.477 198.665 213.775 198.665 213.019C198.665 212.371 198.881 211.804 199.313 211.318C199.745 210.832 200.42 210.589 201.338 210.589C201.986 210.589 202.553 210.643 203.039 210.751C203.525 210.859 203.984 210.967 204.416 211.075C204.848 211.183 205.172 211.237 205.388 211.237C205.658 211.237 205.928 211.102 206.198 210.832C206.36 210.67 206.495 210.535 206.603 210.427C206.765 210.373 206.927 210.211 207.089 209.941C207.251 209.725 207.44 209.374 207.656 208.888C207.926 208.402 208.223 207.673 208.547 206.701C209.249 204.703 209.6 203.38 209.6 202.732C209.6 201.868 209.33 200.788 208.79 199.492L198.908 173.329C198.476 172.087 197.774 171.331 196.802 171.061L193.805 170.17V168.874C197.207 169.144 200.204 169.279 202.796 169.279C205.388 169.279 207.818 169.144 210.086 168.874V170.17C209.492 170.278 208.79 170.386 207.98 170.494C207.224 170.548 206.522 170.683 205.874 170.899C205.226 171.061 204.713 171.331 204.335 171.709C203.957 172.087 203.903 172.627 204.173 173.329L212.354 196.414L219.887 175.516C220.157 174.76 220.265 173.95 220.211 173.086C220.211 172.168 219.752 171.574 218.834 171.304L214.298 170.17V168.874C216.728 169.144 218.942 169.279 220.94 169.279C222.992 169.279 225.368 169.144 228.068 168.874V170.17L225.476 170.899C224.72 171.115 224.072 171.574 223.532 172.276C222.992 172.924 222.344 174.274 221.588 176.326L209.519 208.402ZM287.683 171.709L297.565 193.579L310.606 160.207C311.74 157.291 312.307 155.131 312.307 153.727C312.307 152.323 311.632 151.486 310.282 151.216L306.961 150.568V149.272C307.501 149.434 309.553 149.515 313.117 149.515C316.681 149.515 318.922 149.434 319.84 149.272V150.568L317.41 151.297C316.6 151.567 315.979 151.945 315.547 152.431C315.115 152.917 314.683 153.754 314.251 154.942L296.674 201.922H294.973L284.362 178.675L273.103 201.922H271.402L253.339 157.129C252.853 155.995 252.448 155.077 252.124 154.375C251.854 153.619 251.557 153.052 251.233 152.674C250.963 152.242 250.666 151.918 250.342 151.702C250.072 151.486 249.694 151.297 249.208 151.135L246.859 150.568V149.272C248.209 149.434 250.72 149.515 254.392 149.515C258.118 149.515 260.953 149.434 262.897 149.272V150.568L259.09 151.297C258.658 151.405 258.442 151.648 258.442 152.026C258.442 152.782 259.036 154.618 260.224 157.534L274.885 194.47L283.309 176.407L274.885 157.048C274.345 155.86 273.886 154.915 273.508 154.213C273.13 153.457 272.779 152.89 272.455 152.512C272.185 152.08 271.915 151.783 271.645 151.621C271.375 151.459 271.078 151.351 270.754 151.297L266.785 150.568V149.272C268.297 149.434 271.456 149.515 276.262 149.515C281.014 149.515 284.011 149.434 285.253 149.272V150.568L280.555 151.459C280.069 151.567 279.826 151.864 279.826 152.35C279.826 152.998 280.42 154.699 281.608 157.453L286.549 169.198L292.948 154.942C293.38 154.078 293.434 153.241 293.11 152.431C292.84 151.621 292.3 151.162 291.49 151.054L288.736 150.568V149.272C290.086 149.434 292.624 149.515 296.35 149.515C300.022 149.515 302.398 149.434 303.478 149.272V150.568L299.671 151.297C297.835 151.675 296.431 152.917 295.459 155.023L287.683 171.709ZM340.681 200.464C339.817 200.356 338.656 200.275 337.198 200.221C335.74 200.167 333.931 200.14 331.771 200.14C329.611 200.14 327.802 200.167 326.344 200.221C324.886 200.275 323.725 200.356 322.861 200.464V199.168L327.397 198.277C329.071 197.953 329.908 196.981 329.908 195.361V179.08C329.908 177.784 329.584 176.839 328.936 176.245C328.288 175.651 326.992 175.138 325.048 174.706V173.572C328.882 172.6 331.69 170.656 333.472 167.74H334.768V195.604C334.768 196.414 334.876 197.008 335.092 197.386C335.362 197.764 335.848 198.034 336.55 198.196L340.681 199.168V200.464ZM331.771 151.054C332.689 151.054 333.526 151.405 334.282 152.107C335.038 152.809 335.416 153.619 335.416 154.537C335.416 155.401 335.011 156.184 334.201 156.886C333.445 157.534 332.581 157.858 331.609 157.858C330.691 157.858 329.908 157.534 329.26 156.886C328.612 156.238 328.288 155.455 328.288 154.537C328.288 153.619 328.639 152.809 329.341 152.107C330.043 151.405 330.853 151.054 331.771 151.054ZM355.061 161.098H356.033C356.033 162.556 356.033 164.014 356.033 165.472C356.087 166.876 356.114 168.307 356.114 169.765L367.13 169.522V172.438L356.114 172.762V189.286C356.114 192.526 356.33 194.983 356.762 196.657C357.248 198.277 358.544 199.033 360.65 198.925C362.27 198.817 364.403 198.061 367.049 196.657L367.778 197.791C366.644 199.087 365.321 200.032 363.809 200.626C362.351 201.166 360.272 201.436 357.572 201.436C356.222 201.436 355.115 201.301 354.251 201.031C353.387 200.707 352.712 200.167 352.226 199.411C351.74 198.601 351.416 197.548 351.254 196.252C351.092 194.956 351.011 193.282 351.011 191.23V172.924C350.255 172.924 349.526 172.951 348.824 173.005C348.122 173.005 347.393 173.005 346.637 173.005C345.881 173.005 345.503 172.816 345.503 172.438C345.503 172.006 345.854 171.628 346.556 171.304C348.932 170.278 350.606 169.171 351.578 167.983C352.118 167.335 352.685 166.444 353.279 165.31C353.873 164.176 354.467 162.772 355.061 161.098ZM376.713 155.347C376.713 154.645 376.632 154.051 376.47 153.565C376.362 153.079 376.092 152.674 375.66 152.35C375.282 151.972 374.688 151.648 373.878 151.378C373.122 151.108 372.069 150.838 370.719 150.568V149.596C373.041 149.488 376.011 148.516 379.629 146.68H381.573V175.273C385.569 170.305 389.889 167.821 394.533 167.821C394.965 167.821 395.397 167.848 395.829 167.902C396.315 167.956 396.774 168.037 397.206 168.145C399.312 168.739 400.986 169.954 402.228 171.79C403.47 173.572 404.091 175.921 404.091 178.837V196.333C404.091 196.873 404.199 197.305 404.415 197.629C404.631 197.899 405.198 198.142 406.116 198.358L409.68 199.168V200.464C408.006 200.356 406.494 200.275 405.144 200.221C403.848 200.167 402.741 200.14 401.823 200.14C400.905 200.14 399.798 200.167 398.502 200.221C397.206 200.275 395.721 200.356 394.047 200.464V199.168L397.368 198.277C398.07 198.061 398.556 197.818 398.826 197.548C399.15 197.278 399.312 196.684 399.312 195.766V178.999C399.312 176.731 398.637 174.922 397.287 173.572C395.937 172.222 394.209 171.547 392.103 171.547C389.997 171.547 388.161 172.087 386.595 173.167C385.029 174.193 383.355 175.84 381.573 178.108V195.766C381.573 196.414 381.654 196.873 381.816 197.143C382.032 197.413 382.464 197.629 383.112 197.791L388.62 199.168V200.464C387.756 200.356 386.568 200.275 385.056 200.221C383.598 200.167 381.789 200.14 379.629 200.14C377.469 200.14 375.633 200.167 374.121 200.221C372.663 200.275 371.502 200.356 370.638 200.464V199.168L375.012 198.277C375.714 198.115 376.173 197.953 376.389 197.791C376.605 197.575 376.713 197.143 376.713 196.495V155.347ZM431.569 200.464C430.705 200.356 429.544 200.275 428.086 200.221C426.628 200.167 424.819 200.14 422.659 200.14C420.499 200.14 418.69 200.167 417.232 200.221C415.774 200.275 414.613 200.356 413.749 200.464V199.168L418.285 198.277C419.959 197.953 420.796 196.981 420.796 195.361V179.08C420.796 177.784 420.472 176.839 419.824 176.245C419.176 175.651 417.88 175.138 415.936 174.706V173.572C419.77 172.6 422.578 170.656 424.36 167.74H425.656V195.604C425.656 196.414 425.764 197.008 425.98 197.386C426.25 197.764 426.736 198.034 427.438 198.196L431.569 199.168V200.464ZM422.659 151.054C423.577 151.054 424.414 151.405 425.17 152.107C425.926 152.809 426.304 153.619 426.304 154.537C426.304 155.401 425.899 156.184 425.089 156.886C424.333 157.534 423.469 157.858 422.497 157.858C421.579 157.858 420.796 157.534 420.148 156.886C419.5 156.238 419.176 155.455 419.176 154.537C419.176 153.619 419.527 152.809 420.229 152.107C420.931 151.405 421.741 151.054 422.659 151.054ZM474.623 200.383C469.007 200.059 463.391 200.059 457.775 200.383V199.087L462.23 198.439C463.418 198.277 464.012 197.224 464.012 195.28V181.591C464.012 178.567 463.499 176.137 462.473 174.301C461.447 172.465 459.449 171.547 456.479 171.547C453.023 171.547 449.648 173.194 446.354 176.488V196.171C446.354 197.035 447.002 197.629 448.298 197.953L453.077 199.087V200.383C452.321 200.329 451.43 200.275 450.404 200.221C449.378 200.167 448.244 200.14 447.002 200.14H444.329C440.495 200.14 437.579 200.221 435.581 200.383V199.087L439.874 198.277C440.954 198.115 441.494 197.305 441.494 195.847V179.809C441.494 178.135 441.143 177.001 440.441 176.407C439.793 175.813 438.605 175.381 436.877 175.111V173.653C440.279 172.843 443.006 170.413 445.058 166.363H446.354V173.653C448.406 171.871 450.674 170.467 453.158 169.441C455.642 168.361 457.829 167.821 459.719 167.821C465.929 167.821 469.034 171.52 469.034 178.918V195.037C469.034 196.063 469.169 196.846 469.439 197.386C469.709 197.926 470.249 198.277 471.059 198.439L474.623 199.087V200.383Z" fill="black"/>
<path d="M10.472 41.232C10.472 39.824 10.296 38.8267 9.944 38.24C9.592 37.6533 8.91733 37.272 7.92 37.096L1.936 36.04V34.632C3.872 34.6907 6.16 34.6907 8.8 34.632C11.4987 34.5147 14.256 34.3973 17.072 34.28C19.888 34.104 22.616 33.9867 25.256 33.928C27.896 33.8107 30.184 33.7813 32.12 33.84C36.52 33.9573 40.6267 34.6613 44.44 35.952C48.2533 37.184 51.568 38.9733 54.384 41.32C57.2 43.6667 59.4293 46.5413 61.072 49.944C62.7147 53.288 63.536 57.1013 63.536 61.384C63.536 65.784 62.744 69.744 61.16 73.264C59.576 76.784 57.4053 79.776 54.648 82.24C51.8907 84.704 48.6347 86.5813 44.88 87.872C41.184 89.1627 37.1947 89.808 32.912 89.808L18.656 89.456H1.056V88.048L7.92 86.552C8.85867 86.376 9.504 85.9947 9.856 85.408C10.2667 84.8213 10.472 83.7067 10.472 82.064V41.232ZM17.688 79.952C17.688 80.8907 17.9227 81.8293 18.392 82.768C18.92 83.648 19.6827 84.4693 20.68 85.232C21.6773 85.936 22.9093 86.5227 24.376 86.992C25.8427 87.4027 27.544 87.608 29.48 87.608C32.824 87.608 36.0213 87.0507 39.072 85.936C42.1813 84.8213 44.88 83.1787 47.168 81.008C49.5147 78.7787 51.3627 75.992 52.712 72.648C54.12 69.304 54.824 65.432 54.824 61.032C54.824 57.1013 54.12 53.6107 52.712 50.56C51.3627 47.4507 49.3973 44.84 46.816 42.728C44.2347 40.5573 41.096 38.9147 37.4 37.8C33.704 36.6267 29.5387 36.04 24.904 36.04C21.736 36.04 19.7413 36.3627 18.92 37.008C18.0987 37.6533 17.688 39.0613 17.688 41.232V79.952ZM89.4506 90.072C88.512 89.9547 87.2506 89.8667 85.6666 89.808C84.0826 89.7493 82.1173 89.72 79.7706 89.72C77.424 89.72 75.4586 89.7493 73.8746 89.808C72.2906 89.8667 71.0293 89.9547 70.0906 90.072V88.664L75.0186 87.696C76.8373 87.344 77.7466 86.288 77.7466 84.528V66.84C77.7466 65.432 77.3946 64.4053 76.6906 63.76C75.9866 63.1147 74.5786 62.5573 72.4666 62.088V60.856C76.632 59.8 79.6826 57.688 81.6186 54.52H83.0266V84.792C83.0266 85.672 83.144 86.3173 83.3786 86.728C83.672 87.1387 84.2 87.432 84.9626 87.608L89.4506 88.664V90.072ZM79.7706 36.392C80.768 36.392 81.6773 36.7733 82.4986 37.536C83.32 38.2987 83.7306 39.1787 83.7306 40.176C83.7306 41.1147 83.2906 41.9653 82.4106 42.728C81.5893 43.432 80.6506 43.784 79.5946 43.784C78.5973 43.784 77.7466 43.432 77.0426 42.728C76.3386 42.024 75.9866 41.1733 75.9866 40.176C75.9866 39.1787 76.368 38.2987 77.1306 37.536C77.8933 36.7733 78.7733 36.392 79.7706 36.392ZM116.249 64.376C116.015 63.4373 115.575 62.4987 114.929 61.56C114.284 60.6213 113.551 59.8 112.729 59.096C111.967 58.3333 111.145 57.7467 110.265 57.336C109.385 56.8667 108.593 56.632 107.889 56.632C103.607 56.632 101.465 58.5973 101.465 62.528C101.465 64.112 102.169 65.4613 103.577 66.576C104.985 67.632 107.127 68.688 110.001 69.744C116.631 72.3253 119.945 75.904 119.945 80.48C119.945 82.1227 119.623 83.6187 118.977 84.968C118.332 86.2587 117.452 87.3733 116.337 88.312C115.223 89.192 113.903 89.896 112.377 90.424C110.911 90.8933 109.356 91.128 107.713 91.128C103.548 91.128 100.087 90.3653 97.3294 88.84L96.4494 78.896H97.9454C98.356 80.48 98.9427 81.9173 99.7054 83.208C100.468 84.44 101.319 85.5253 102.257 86.464C103.196 87.344 104.193 88.048 105.249 88.576C106.364 89.0453 107.449 89.28 108.505 89.28C110.617 89.28 112.319 88.6933 113.609 87.52C114.9 86.3467 115.545 84.8213 115.545 82.944C115.545 79.5413 112.788 76.8427 107.273 74.848C103.401 73.3813 100.615 71.856 98.9134 70.272C97.2707 68.6293 96.4494 66.488 96.4494 63.848C96.4494 61.032 97.5934 58.8027 99.8814 57.16C102.169 55.4587 105.015 54.608 108.417 54.608C111.996 54.608 114.988 55.312 117.393 56.72L117.921 64.376H116.249ZM157.806 85.496C156.281 87.432 154.345 88.8693 151.998 89.808C149.651 90.688 147.363 91.128 145.134 91.128C142.377 91.128 139.883 90.6587 137.654 89.72C135.483 88.7227 133.606 87.4027 132.022 85.76C130.497 84.1173 129.323 82.2107 128.502 80.04C127.681 77.8693 127.27 75.6107 127.27 73.264C127.27 70.5067 127.681 67.984 128.502 65.696C129.323 63.408 130.526 61.4427 132.11 59.8C133.753 58.1573 135.747 56.896 138.094 56.016C140.499 55.0773 143.257 54.608 146.366 54.608C149.593 54.608 152.203 55.1067 154.198 56.104C156.251 57.0427 157.278 58.2747 157.278 59.8C157.278 60.6213 157.014 61.3547 156.486 62C155.958 62.5867 155.371 62.9093 154.726 62.968C153.905 63.0267 153.171 62.7333 152.526 62.088C151.881 61.384 151.147 60.6213 150.326 59.8C149.563 58.9787 148.625 58.2453 147.51 57.6C146.454 56.896 145.075 56.544 143.374 56.544C141.555 56.544 140.001 57.0133 138.71 57.952C137.419 58.8907 136.334 60.0933 135.454 61.56C134.633 63.0267 134.017 64.6987 133.606 66.576C133.254 68.3947 133.078 70.272 133.078 72.208C133.078 74.2613 133.401 76.256 134.046 78.192C134.75 80.0693 135.718 81.7413 136.95 83.208C138.182 84.616 139.649 85.7307 141.35 86.552C143.11 87.3733 145.046 87.784 147.158 87.784C149.505 87.7253 151.353 87.3147 152.702 86.552C154.051 85.7893 155.371 84.704 156.662 83.296L157.806 85.496ZM181.928 91.128C179.346 91.128 176.941 90.688 174.712 89.808C172.482 88.8693 170.546 87.608 168.904 86.024C167.261 84.3813 165.941 82.4453 164.944 80.216C164.005 77.9867 163.536 75.552 163.536 72.912C163.536 70.2133 164.005 67.7493 164.944 65.52C165.941 63.2907 167.29 61.384 168.992 59.8C170.693 58.1573 172.688 56.896 174.976 56.016C177.322 55.0773 179.874 54.608 182.632 54.608C185.448 54.608 188 55.1067 190.288 56.104C192.576 57.0427 194.541 58.3627 196.184 60.064C197.885 61.7067 199.176 63.672 200.056 65.96C200.994 68.1893 201.464 70.5653 201.464 73.088C201.464 75.6107 200.965 77.9867 199.968 80.216C199.029 82.3867 197.68 84.2933 195.92 85.936C194.218 87.52 192.165 88.7813 189.76 89.72C187.354 90.6587 184.744 91.128 181.928 91.128ZM169.872 73.616C169.872 78.544 171.016 82.416 173.304 85.232C175.592 88.048 178.584 89.456 182.28 89.456C184.098 89.456 185.8 89.0747 187.384 88.312C188.968 87.4907 190.317 86.376 191.432 84.968C192.605 83.5013 193.514 81.7707 194.16 79.776C194.805 77.7227 195.128 75.464 195.128 73C195.128 70.536 194.834 68.2773 194.248 66.224C193.661 64.1707 192.81 62.4107 191.696 60.944C190.581 59.4773 189.232 58.3333 187.648 57.512C186.064 56.6907 184.304 56.28 182.368 56.28C178.496 56.28 175.445 57.7467 173.216 60.68C170.986 63.6133 169.872 67.9253 169.872 73.616ZM238.489 62.088L226.169 91.92H224.937L211.649 61.912C210.945 60.504 210.388 59.5947 209.977 59.184C209.566 58.7733 208.921 58.48 208.041 58.304L204.433 57.512V56.104C205.724 56.28 208.98 56.368 214.201 56.368C219.422 56.368 222.825 56.28 224.409 56.104V57.512L218.953 58.392C217.838 58.568 217.281 59.0373 217.281 59.8C217.281 60.504 217.809 62.088 218.865 64.552L227.401 84.176L235.409 64.288C235.996 62.9387 236.289 61.824 236.289 60.944C236.289 59.36 235.086 58.392 232.681 58.04L229.249 57.512V56.104C230.012 56.28 232.828 56.368 237.697 56.368C242.566 56.368 245.676 56.28 247.025 56.104V57.512L242.097 58.216C241.158 58.3333 240.484 58.6267 240.073 59.096C239.662 59.5067 239.134 60.504 238.489 62.088ZM280.091 67.632H255.539C255.363 68.8053 255.275 69.9787 255.275 71.152C255.275 73.44 255.598 75.552 256.243 77.488C256.888 79.3653 257.798 80.9787 258.971 82.328C260.203 83.6773 261.67 84.7333 263.371 85.496C265.131 86.2587 267.067 86.64 269.179 86.64C271.232 86.64 273.11 86.2293 274.811 85.408C276.512 84.5867 278.36 83.2373 280.355 81.36L280.707 83.472C276.542 88.576 271.232 91.128 264.779 91.128C262.667 91.128 260.672 90.6587 258.795 89.72C256.976 88.7813 255.392 87.52 254.043 85.936C252.694 84.2933 251.638 82.3867 250.875 80.216C250.112 77.9867 249.731 75.5813 249.731 73C249.731 70.4187 250.142 68.0133 250.963 65.784C251.843 63.5547 253.046 61.6187 254.571 59.976C256.096 58.2747 257.886 56.9547 259.939 56.016C261.992 55.0773 264.251 54.608 266.715 54.608C268.592 54.608 270.323 54.9307 271.907 55.576C273.491 56.1627 274.87 57.0427 276.043 58.216C277.275 59.3307 278.214 60.7093 278.859 62.352C279.563 63.936 279.974 65.696 280.091 67.632ZM255.979 65.784H269.355C271.232 65.784 272.611 65.6667 273.491 65.432C274.43 65.1387 274.664 64.2 274.195 62.616C273.726 61.0907 272.904 59.712 271.731 58.48C270.616 57.248 268.915 56.632 266.627 56.632C263.811 56.632 261.464 57.4533 259.587 59.096C257.768 60.7387 256.566 62.968 255.979 65.784ZM286.395 90.072V88.664L290.795 87.872C291.969 87.5787 292.702 87.1387 292.995 86.552C293.347 85.9653 293.523 84.9093 293.523 83.384V66.488C293.523 65.3147 293.259 64.464 292.731 63.936C292.262 63.408 291.177 62.968 289.475 62.616L287.099 62.088L287.275 60.768C289.563 59.9467 291.47 59.008 292.995 57.952C294.521 56.8373 295.87 55.048 297.043 52.584H298.627C298.745 54.168 298.833 55.8987 298.891 57.776C298.95 59.5947 298.979 61.56 298.979 63.672C300.153 61.5013 301.766 59.4773 303.819 57.6C305.873 55.6053 307.662 54.608 309.187 54.608C310.654 54.608 311.769 55.0187 312.531 55.84C313.353 56.6613 313.763 57.6587 313.763 58.832C313.763 59.9467 313.441 60.7973 312.795 61.384C312.15 61.9707 311.358 62.264 310.419 62.264C309.481 62.264 308.454 62.0293 307.339 61.56C306.283 61.0907 305.374 60.856 304.611 60.856C303.966 60.856 303.291 61.1787 302.587 61.824C301.942 62.4107 301.355 63.144 300.827 64.024C300.299 64.904 299.859 65.8133 299.507 66.752C299.155 67.632 298.979 68.3653 298.979 68.952V83.56C298.979 85.0853 299.214 86.112 299.683 86.64C300.211 87.1093 301.297 87.4613 302.939 87.696L309.715 88.664V90.072C308.131 89.9547 306.371 89.8667 304.435 89.808C302.499 89.7493 300.417 89.72 298.187 89.72H297.043C294.99 89.72 293.083 89.7493 291.323 89.808C289.563 89.8667 287.921 89.9547 286.395 90.072ZM341.688 32.872C342.099 31.3467 342.51 30.584 342.92 30.584C343.39 30.584 343.918 31.1707 344.504 32.344C345.15 33.5173 345.707 34.2213 346.176 34.456C346.646 34.632 347.555 34.72 348.904 34.72H382.96C384.016 34.72 384.838 34.72 385.424 34.72C386.07 34.6613 386.568 34.544 386.92 34.368C387.331 34.192 387.654 33.9573 387.888 33.664C388.182 33.312 388.475 32.8133 388.768 32.168C389.179 31.0533 389.678 30.496 390.264 30.496C391.027 30.496 391.408 31.0827 391.408 32.256L391.232 46.16C391.232 46.6293 391.144 47.0107 390.968 47.304C390.851 47.5387 390.646 47.6267 390.352 47.568C390.118 47.4507 389.854 47.1573 389.56 46.688C389.267 46.16 389.003 45.3093 388.768 44.136C388.475 42.904 388.152 41.8773 387.8 41.056C387.507 40.176 387.067 39.472 386.48 38.944C385.894 38.416 385.102 38.0347 384.104 37.8C383.166 37.5067 381.963 37.36 380.496 37.36H369.496V82.68C369.496 84.264 369.672 85.32 370.024 85.848C370.435 86.376 371.256 86.7867 372.488 87.08L379.352 88.576V89.984C376.243 89.808 371.227 89.72 364.304 89.72C357.44 89.72 353.304 89.808 351.896 89.984V88.576L358.056 87.344C359.758 86.992 360.872 86.4933 361.4 85.848C361.928 85.144 362.192 84.0587 362.192 82.592V37.36H351.368C350.312 37.3013 349.403 37.36 348.64 37.536C347.936 37.712 347.232 38.0933 346.528 38.68C345.824 39.2667 345.062 40.088 344.24 41.144C343.419 42.1413 342.422 43.4613 341.248 45.104C340.486 46.2187 339.899 46.9227 339.488 47.216C339.078 47.5093 338.784 47.5387 338.608 47.304C338.491 47.0107 338.462 46.5413 338.52 45.896C338.638 45.192 338.784 44.4293 338.96 43.608L341.688 32.872ZM400.933 41.056C400.933 40.2933 400.845 39.648 400.669 39.12C400.551 38.592 400.258 38.152 399.789 37.8C399.378 37.3893 398.733 37.0373 397.853 36.744C397.031 36.4507 395.887 36.1573 394.421 35.864V34.808C396.943 34.6907 400.17 33.6347 404.101 31.64H406.213V62.704C410.554 57.3067 415.247 54.608 420.293 54.608C420.762 54.608 421.231 54.6373 421.701 54.696C422.229 54.7547 422.727 54.8427 423.197 54.96C425.485 55.6053 427.303 56.9253 428.653 58.92C430.002 60.856 430.677 63.408 430.677 66.576V85.584C430.677 86.1707 430.794 86.64 431.029 86.992C431.263 87.2853 431.879 87.5493 432.877 87.784L436.749 88.664V90.072C434.93 89.9547 433.287 89.8667 431.821 89.808C430.413 89.7493 429.21 89.72 428.213 89.72C427.215 89.72 426.013 89.7493 424.605 89.808C423.197 89.8667 421.583 89.9547 419.765 90.072V88.664L423.373 87.696C424.135 87.4613 424.663 87.1973 424.957 86.904C425.309 86.6107 425.485 85.9653 425.485 84.968V66.752C425.485 64.288 424.751 62.3227 423.285 60.856C421.818 59.3893 419.941 58.656 417.653 58.656C415.365 58.656 413.37 59.2427 411.669 60.416C409.967 61.5307 408.149 63.32 406.213 65.784V84.968C406.213 85.672 406.301 86.1707 406.477 86.464C406.711 86.7573 407.181 86.992 407.885 87.168L413.869 88.664V90.072C412.93 89.9547 411.639 89.8667 409.997 89.808C408.413 89.7493 406.447 89.72 404.101 89.72C401.754 89.72 399.759 89.7493 398.117 89.808C396.533 89.8667 395.271 89.9547 394.333 90.072V88.664L399.085 87.696C399.847 87.52 400.346 87.344 400.581 87.168C400.815 86.9333 400.933 86.464 400.933 85.76V41.056ZM472.849 67.632H448.297C448.121 68.8053 448.033 69.9787 448.033 71.152C448.033 73.44 448.355 75.552 449.001 77.488C449.646 79.3653 450.555 80.9787 451.729 82.328C452.961 83.6773 454.427 84.7333 456.129 85.496C457.889 86.2587 459.825 86.64 461.937 86.64C463.99 86.64 465.867 86.2293 467.569 85.408C469.27 84.5867 471.118 83.2373 473.113 81.36L473.465 83.472C469.299 88.576 463.99 91.128 457.537 91.128C455.425 91.128 453.43 90.6587 451.553 89.72C449.734 88.7813 448.15 87.52 446.801 85.936C445.451 84.2933 444.395 82.3867 443.633 80.216C442.87 77.9867 442.489 75.5813 442.489 73C442.489 70.4187 442.899 68.0133 443.721 65.784C444.601 63.5547 445.803 61.6187 447.329 59.976C448.854 58.2747 450.643 56.9547 452.697 56.016C454.75 55.0773 457.009 54.608 459.473 54.608C461.35 54.608 463.081 54.9307 464.665 55.576C466.249 56.1627 467.627 57.0427 468.801 58.216C470.033 59.3307 470.971 60.7093 471.617 62.352C472.321 63.936 472.731 65.696 472.849 67.632ZM448.737 65.784H462.113C463.99 65.784 465.369 65.6667 466.249 65.432C467.187 65.1387 467.422 64.2 466.953 62.616C466.483 61.0907 465.662 59.712 464.489 58.48C463.374 57.248 461.673 56.632 459.385 56.632C456.569 56.632 454.222 57.4533 452.345 59.096C450.526 60.7387 449.323 62.968 448.737 65.784Z" fill="black"/>
<path d="M451.421 440.37C445.963 439.841 441.658 438.31 438.504 435.777C435.466 433.255 433.426 430.127 432.381 426.392C431.337 422.657 431.023 418.641 431.44 414.345C432.172 406.797 434.576 399.528 438.653 392.539C442.835 385.678 447.309 379.43 452.075 373.797C459.096 365.453 465.971 358.618 472.7 353.292C479.556 347.862 486.751 343.168 494.285 339.21C494.222 337.446 494.196 334.689 494.208 330.939C494.22 327.189 494.15 323.08 493.997 318.611C493.972 314.037 493.935 309.58 493.887 305.238C493.84 300.896 493.788 297.199 493.732 294.146C492.51 297.075 491.156 300.167 489.668 303.422C488.18 306.677 486.617 310.101 484.98 313.693C481.461 320.97 477.616 327.982 473.446 334.728C469.275 341.473 464.771 347.425 459.934 352.582C455.213 357.75 450.193 361.776 444.873 364.659C439.681 367.438 434.356 368.563 428.898 368.033L427.504 367.898C421.964 367.009 418.427 364.205 416.892 359.485C415.357 354.764 414.882 349.385 415.468 343.347C415.93 338.586 416.745 333.8 417.915 328.991C419.201 324.193 420.511 319.748 421.845 315.658C423.18 311.568 424.186 308.442 424.864 306.281C425.209 305.142 425.893 302.923 426.917 299.623C427.951 296.207 429.106 292.157 430.38 287.475C431.771 282.804 433.01 277.884 434.097 272.715C435.196 267.43 435.97 262.465 436.421 257.82C436.984 252.014 436.818 247.075 435.924 243.003C435.029 238.931 432.84 236.726 429.357 236.388C425.641 236.028 422.063 237.263 418.624 240.094C415.196 242.809 411.962 246.54 408.923 251.285C406.012 255.926 403.345 261.059 400.924 266.685C398.62 272.322 396.727 277.941 395.246 283.541C393.777 289.024 392.833 293.915 392.417 298.211C392.135 301.114 392.125 303.633 392.387 305.768C392.66 307.788 393.291 309.138 394.28 309.82C395.048 310.363 395.398 310.983 395.33 311.68C395.195 313.074 394.373 313.697 392.863 313.551C392.05 313.472 391.329 313.05 390.7 312.286C389.36 310.398 388.364 307.371 387.713 303.205C387.062 299.04 386.995 294.286 387.513 288.944C387.829 285.693 388.387 282.348 389.19 278.909C389.992 275.471 391.032 271.997 392.31 268.487C394.049 263.85 396.317 259.205 399.112 254.553C401.919 249.785 405.266 245.48 409.156 241.638C413.056 237.679 417.452 234.647 422.345 232.543C427.354 230.45 432.819 229.691 438.741 230.265C442.922 230.671 446.066 232.089 448.175 234.521C450.294 236.836 451.644 239.839 452.224 243.528C452.92 247.23 453.054 251.286 452.626 255.699C452.12 260.925 451.068 266.332 449.471 271.92C448.001 277.404 446.397 282.464 444.658 287.102C443.046 291.634 441.763 295.202 440.807 297.805C440.323 299.165 439.396 301.477 438.024 304.744C436.769 308.021 435.341 311.868 433.74 316.284C432.267 320.595 430.899 325.034 429.636 329.6C428.489 334.177 427.718 338.498 427.324 342.562C426.907 346.859 427.191 350.579 428.176 353.722C429.172 356.749 431.284 358.536 434.513 359.083L435.384 359.168C439.564 359.573 443.908 358.295 448.415 355.333C452.922 352.371 457.309 348.225 461.577 342.895C465.972 337.461 470.086 331.296 473.92 324.4C477.764 317.388 481.103 310.152 483.937 302.691C486.448 296.136 488.345 289.873 489.627 283.902C490.909 277.931 492.008 272.646 492.923 268.046C493.849 263.33 494.906 259.682 496.094 257.101C497.398 254.532 499.217 253.302 501.551 253.411C502.015 253.456 502.393 253.785 502.685 254.4C503.094 255.025 503.298 255.338 503.298 255.338L503.472 255.355C503.82 255.389 504.05 256.642 504.162 259.114C504.285 261.471 504.311 264.228 504.239 267.385C504.167 270.543 504.066 273.405 503.934 275.971C503.93 278.432 503.975 279.784 504.068 280.028C504.338 280.875 504.558 282.83 504.73 285.894C505.029 288.854 505.337 292.927 505.655 298.116C505.998 304.244 506.289 310.309 506.528 316.31C506.778 322.195 506.981 327.958 507.137 333.599L507.867 333.318C509.583 332.547 511.149 332.113 512.565 332.016C513.981 331.919 515.153 331.915 516.082 332.005C517.011 332.095 517.813 332.29 518.487 332.59C519.277 332.901 519.686 333.527 519.712 334.467C519.667 334.932 519.343 335.252 518.739 335.428C518.252 335.615 517.719 335.68 517.138 335.624C515.501 335.582 513.72 335.82 511.794 336.337C509.985 336.864 508.524 337.426 507.411 338.021C507.421 345.172 506.981 353.335 506.091 362.508C505.495 368.663 504.377 375.353 502.739 382.578C501.205 389.931 499.039 397.164 496.239 404.277C493.555 411.402 490.121 417.808 485.936 423.498C481.866 429.198 476.986 433.589 471.296 436.671C465.594 439.869 458.969 441.102 451.421 440.37ZM452.574 435.735C458.38 436.298 463.398 435.319 467.627 432.799C471.962 430.406 475.643 426.895 478.671 422.266C481.698 417.636 484.202 412.37 486.181 406.467C488.276 400.575 489.929 394.406 491.14 387.959C492.34 381.629 493.233 375.444 493.818 369.406C494.336 364.064 494.641 359.112 494.732 354.55C494.95 349.882 495.031 346.022 494.976 342.969C489.678 345.62 483.967 349.52 477.841 354.67C471.832 359.831 466.051 365.658 460.498 372.153C455.061 378.658 450.478 385.422 446.75 392.445C443.126 399.596 440.999 406.422 440.368 412.925C440.03 416.409 440.168 419.821 440.782 423.163C441.396 426.504 442.646 429.321 444.534 431.614C446.41 434.023 449.09 435.397 452.574 435.735ZM533.536 376.246C529.588 375.864 526.438 374.503 524.086 372.165C521.85 369.839 520.199 366.924 519.132 363.421C518.181 359.93 517.607 356.182 517.409 352.177C517.339 348.068 517.489 344.097 517.861 340.265C518.142 337.362 518.518 334.703 518.986 332.287C519.466 329.755 519.854 327.565 520.151 325.719C521.204 320.898 522.955 316.144 525.402 311.459C527.86 306.657 531.163 302.816 535.31 299.936C539.469 296.94 544.683 295.747 550.954 296.355C555.366 296.783 558.593 298.561 560.634 301.689C562.802 304.712 564.131 308.533 564.621 313.152C565.122 317.655 565.131 322.403 564.647 327.396C564.511 328.79 564.318 330.177 564.067 331.56C563.932 332.953 563.739 334.341 563.487 335.723C566.075 339.256 569.401 341.22 573.465 341.614C576.601 341.918 579.791 341.055 583.035 339.025C583.788 338.512 584.455 338.284 585.035 338.34C585.5 338.385 585.704 338.698 585.648 339.279C585.546 340.324 585.188 340.992 584.574 341.284C582.547 342.846 580.449 343.932 578.28 344.542C576.111 345.152 573.982 345.356 571.891 345.153C568.292 344.804 565.084 343.438 562.267 341.055C561.821 343.239 561.27 345.296 560.614 347.225C560.085 349.049 559.579 350.641 559.096 352C557.702 355.499 555.757 359.237 553.261 363.215C550.893 367.087 548 370.323 544.584 372.922C541.283 375.533 537.6 376.641 533.536 376.246ZM540.213 367.224C542.652 367.46 544.797 366.496 546.647 364.331C548.615 362.178 550.325 359.648 551.779 356.741C553.233 353.835 554.294 351.359 554.961 349.314C555.467 347.722 555.937 345.892 556.372 343.824C556.807 341.757 557.223 339.277 557.621 336.385C556.131 334.834 554.979 332.202 554.167 328.49C553.482 324.673 553.303 321.08 553.63 317.713C553.855 315.39 554.342 313.386 555.092 311.701C555.853 309.899 556.842 308.764 558.059 308.296C557.532 306.487 556.76 304.771 555.745 303.149C554.742 301.411 553.195 300.44 551.105 300.237C549.131 300.046 547.218 301.033 545.367 303.197C543.632 305.373 542.027 308.031 540.55 311.17C539.074 314.308 537.846 317.296 536.868 320.131C536.006 322.978 535.461 324.976 535.232 326.126C534.992 327.392 534.626 329.349 534.135 331.998C533.655 334.53 533.263 337.364 532.959 340.499C532.576 344.447 532.425 348.418 532.507 352.411C532.705 356.415 533.371 359.82 534.505 362.626C535.64 365.432 537.542 366.965 540.213 367.224ZM586.242 380.303C583.687 380.055 581.466 378.785 579.579 376.492C577.807 374.21 576.666 370.876 576.153 366.489C575.88 364.47 575.774 361.94 575.835 358.898C576.011 355.868 576.263 352.669 576.589 349.301C577.085 344.192 577.771 338.925 578.649 333.501C579.643 328.089 580.708 323.152 581.843 318.69C582.991 314.113 584.147 310.65 585.312 308.302C586.028 306.965 587.192 305.847 588.802 304.948C590.529 304.061 592.67 303.741 595.225 303.988C596.967 304.157 598.686 304.558 600.383 305.192C599.911 306.435 598.921 309.387 597.414 314.047C596.024 318.718 594.699 323.922 593.439 329.661C592.58 333.68 591.768 337.821 591.003 342.084C590.25 346.23 589.692 350.162 589.332 353.878C588.87 358.639 588.888 362.684 589.386 366.014C589.895 369.229 591.078 370.926 592.936 371.106C595.142 371.32 597.182 370.228 599.056 367.831C601.057 365.329 602.887 362.166 604.547 358.342C606.207 354.518 607.577 350.665 608.657 346.785C610.265 341.08 611.797 334.957 613.251 328.417C614.717 321.761 616.204 316.103 617.71 311.444C618.194 310.084 619.299 308.96 621.026 308.073C622.869 307.197 625.068 306.882 627.623 307.13C629.365 307.299 631.084 307.7 632.781 308.334C631.604 310.798 630.304 314.54 628.879 319.559C627.571 324.59 626.328 330.154 625.151 336.252C623.973 342.351 623.092 348.419 622.506 354.457C622.213 357.476 622.008 360.797 621.892 364.419C621.891 368.053 622.231 371.192 622.912 373.837C623.71 376.493 625.037 377.911 626.895 378.091L627.07 378.108C627.999 378.198 629.031 377.829 630.166 377.002C631.417 376.185 632.805 374.562 634.33 372.131C635.417 370.595 636.416 368.758 637.326 366.62C638.237 364.481 639.223 362.173 640.283 359.698C640.849 358.698 641.364 358.22 641.829 358.265C642.409 358.321 642.632 359.046 642.497 360.44L642.429 361.136C641.904 364.133 640.759 367.48 638.994 371.177C637.229 374.874 634.934 377.992 632.109 380.531C629.4 383.081 626.304 384.188 622.821 383.85C618.872 383.467 615.872 381.769 613.82 378.757C611.779 375.629 610.433 371.982 609.782 367.816C609.143 363.535 608.892 359.467 609.032 355.612C607.926 358.552 606.704 361.481 605.366 364.399C604.029 367.317 602.492 369.864 600.757 372.04C595.958 378.021 591.119 380.776 586.242 380.303Z" fill="#68513F"/>
</svg>
