<svg width="56" height="20" viewBox="0 0 56 20" fill="none" xmlns="http://www.w3.org/2000/svg">
<path d="M0.504 0.559999C1.288 0.559999 1.944 0.559999 2.472 0.559999C3 0.543999 3.4 0.527999 3.672 0.511999L7.08 0.319999C7.208 0.303999 7.328 0.295999 7.44 0.295999C7.568 0.295999 7.696 0.295999 7.824 0.295999C8.72 0.295999 9.488 0.423999 10.128 0.68C10.768 0.935999 11.288 1.272 11.688 1.688C12.104 2.088 12.4 2.56 12.576 3.104C12.768 3.632 12.864 4.168 12.864 4.712C12.864 5.336 12.744 5.92 12.504 6.464C12.264 7.008 11.928 7.488 11.496 7.904C11.08 8.304 10.584 8.624 10.008 8.864C9.448 9.088 8.84 9.2 8.184 9.2C7.176 9.2 6.408 8.888 5.88 8.264L6.024 8.12C6.424 8.264 6.856 8.336 7.32 8.336C7.8 8.336 8.248 8.256 8.664 8.096C9.096 7.92 9.464 7.68 9.768 7.376C10.088 7.072 10.336 6.704 10.512 6.272C10.688 5.84 10.776 5.36 10.776 4.832C10.776 4.384 10.704 3.952 10.56 3.536C10.416 3.12 10.2 2.744 9.912 2.408C9.624 2.072 9.256 1.784 8.808 1.544C8.376 1.304 7.864 1.144 7.272 1.064C6.936 1.016 6.56 0.991999 6.144 0.991999C5.6 0.991999 5.176 1.056 4.872 1.184V14.096C4.872 14.336 4.92 14.512 5.016 14.624C5.128 14.72 5.36 14.808 5.712 14.888L7.464 15.272V15.656C6.792 15.624 6.2 15.6 5.688 15.584C5.192 15.568 4.768 15.56 4.416 15.56C3.728 15.56 2.584 15.584 0.984 15.632V15.248L2.328 15.056C2.568 15.008 2.728 14.92 2.808 14.792C2.888 14.664 2.928 14.448 2.928 14.144V2.696C2.928 2.088 2.736 1.68 2.352 1.472C1.984 1.264 1.368 1.112 0.504 1.016V0.559999ZM18.4194 15.824C17.7634 15.824 17.1874 15.712 16.6914 15.488C16.1954 15.248 15.7794 14.928 15.4434 14.528C15.1234 14.128 14.8834 13.656 14.7234 13.112C14.5634 12.568 14.4834 11.984 14.4834 11.36C14.4834 10.512 14.6274 9.768 14.9154 9.128C15.2034 8.472 15.5794 7.928 16.0434 7.496C16.5074 7.064 17.0354 6.736 17.6274 6.512C18.2194 6.288 18.8194 6.176 19.4274 6.176C19.7154 6.176 19.9954 6.208 20.2674 6.272C20.5394 6.336 20.7794 6.408 20.9874 6.488C21.2274 6.568 21.4514 6.664 21.6594 6.776L22.9794 6.104L23.1954 6.176C23.1954 7.424 23.1954 8.672 23.1954 9.92C23.2114 11.168 23.2194 12.416 23.2194 13.664C23.2194 14.304 23.4914 14.608 24.0354 14.576C24.1634 14.576 24.2674 14.56 24.3474 14.528C24.4434 14.48 24.5314 14.432 24.6114 14.384C24.6914 14.32 24.7634 14.256 24.8274 14.192L25.0674 14.312C24.9554 14.6 24.8114 14.856 24.6354 15.08C24.4914 15.272 24.3074 15.448 24.0834 15.608C23.8594 15.752 23.5874 15.824 23.2674 15.824C22.7554 15.824 22.3874 15.656 22.1634 15.32C21.9394 14.984 21.8274 14.512 21.8274 13.904V13.208C21.7154 13.544 21.5634 13.872 21.3714 14.192C21.1954 14.496 20.9714 14.776 20.6994 15.032C20.4274 15.272 20.0994 15.464 19.7154 15.608C19.3474 15.752 18.9154 15.824 18.4194 15.824ZM21.8514 10.544C21.8514 9.392 21.6434 8.496 21.2274 7.856C20.8274 7.2 20.1154 6.872 19.0914 6.872C18.7394 6.872 18.3714 6.944 17.9874 7.088C17.6034 7.232 17.2514 7.464 16.9314 7.784C16.6114 8.088 16.3474 8.488 16.1394 8.984C15.9314 9.48 15.8274 10.072 15.8274 10.76C15.8274 11.304 15.8994 11.824 16.0434 12.32C16.1874 12.8 16.3874 13.232 16.6434 13.616C16.9154 13.984 17.2434 14.28 17.6274 14.504C18.0274 14.712 18.4754 14.816 18.9714 14.816C19.3714 14.816 19.7474 14.72 20.0994 14.528C20.4514 14.32 20.7554 14.04 21.0114 13.688C21.2674 13.32 21.4674 12.896 21.6114 12.416C21.7714 11.92 21.8514 11.384 21.8514 10.808V10.544ZM30.5361 15.488C29.9921 15.488 29.4801 15.384 29.0001 15.176C28.5201 14.952 28.1041 14.656 27.7521 14.288C27.4001 13.904 27.1201 13.448 26.9121 12.92C26.7201 12.392 26.6241 11.816 26.6241 11.192C26.6241 10.472 26.7441 9.808 26.9841 9.2C27.2401 8.576 27.5841 8.04 28.0161 7.592C28.4481 7.144 28.9441 6.8 29.5041 6.56C30.0801 6.304 30.6881 6.176 31.3281 6.176C31.7761 6.176 32.1681 6.208 32.5041 6.272C32.8401 6.336 33.1201 6.408 33.3441 6.488C33.6161 6.568 33.8401 6.664 34.0161 6.776L35.3601 5.888L35.5761 5.96V15.056C35.5761 15.664 35.4561 16.232 35.2161 16.76C34.9921 17.272 34.6641 17.72 34.2321 18.104C33.8161 18.488 33.3121 18.792 32.7201 19.016C32.1441 19.24 31.5041 19.352 30.8001 19.352C29.9201 19.352 29.2161 19.28 28.6881 19.136C28.1761 19.008 27.7841 18.84 27.5121 18.632C27.2561 18.44 27.0881 18.232 27.0081 18.008C26.9441 17.8 26.9121 17.624 26.9121 17.48C26.9121 17.208 26.9841 17.008 27.1281 16.88C27.2881 16.752 27.4881 16.688 27.7281 16.688C28.0961 16.688 28.3281 16.792 28.4241 17C28.5201 17.208 28.6241 17.432 28.7361 17.672C28.8481 17.928 29.0401 18.16 29.3121 18.368C29.6001 18.576 30.1201 18.68 30.8721 18.68C31.9441 18.68 32.7521 18.4 33.2961 17.84C33.8401 17.28 34.1121 16.456 34.1121 15.368V12.488C34.0001 12.856 33.8401 13.224 33.6321 13.592C33.4401 13.944 33.1921 14.264 32.8881 14.552C32.6001 14.824 32.2561 15.048 31.8561 15.224C31.4721 15.4 31.0321 15.488 30.5361 15.488ZM34.1121 10.4C34.1121 9.904 34.0641 9.44 33.9681 9.008C33.8721 8.576 33.7121 8.2 33.4881 7.88C33.2641 7.544 32.9601 7.288 32.5761 7.112C32.1921 6.92 31.7041 6.824 31.1121 6.824C30.7121 6.824 30.3281 6.912 29.9601 7.088C29.6081 7.248 29.2961 7.488 29.0241 7.808C28.7681 8.128 28.5601 8.536 28.4001 9.032C28.2401 9.512 28.1601 10.072 28.1601 10.712C28.1601 11.192 28.2081 11.672 28.3041 12.152C28.4001 12.616 28.5601 13.032 28.7841 13.4C29.0081 13.752 29.2881 14.04 29.6241 14.264C29.9761 14.488 30.4081 14.6 30.9201 14.6C31.3841 14.6 31.8081 14.488 32.1921 14.264C32.5761 14.024 32.9041 13.712 33.1761 13.328C33.4641 12.944 33.6881 12.52 33.8481 12.056C34.0081 11.576 34.0961 11.096 34.1121 10.616V10.4ZM46.2947 9.536H39.5987C39.5507 9.856 39.5267 10.176 39.5267 10.496C39.5267 11.12 39.6147 11.696 39.7907 12.224C39.9667 12.736 40.2147 13.176 40.5347 13.544C40.8707 13.912 41.2707 14.2 41.7347 14.408C42.2147 14.616 42.7427 14.72 43.3187 14.72C43.8787 14.72 44.3907 14.608 44.8547 14.384C45.3187 14.16 45.8227 13.792 46.3667 13.28L46.4627 13.856C45.3267 15.248 43.8787 15.944 42.1187 15.944C41.5427 15.944 40.9987 15.816 40.4867 15.56C39.9907 15.304 39.5587 14.96 39.1907 14.528C38.8227 14.08 38.5347 13.56 38.3267 12.968C38.1187 12.36 38.0147 11.704 38.0147 11C38.0147 10.296 38.1267 9.64 38.3507 9.032C38.5907 8.424 38.9187 7.896 39.3347 7.448C39.7507 6.984 40.2387 6.624 40.7987 6.368C41.3587 6.112 41.9747 5.984 42.6467 5.984C43.1587 5.984 43.6307 6.072 44.0627 6.248C44.4947 6.408 44.8707 6.648 45.1907 6.968C45.5267 7.272 45.7827 7.648 45.9587 8.096C46.1507 8.528 46.2627 9.008 46.2947 9.536ZM39.7187 9.032H43.3667C43.8787 9.032 44.2547 9 44.4947 8.936C44.7507 8.856 44.8147 8.6 44.6867 8.168C44.5587 7.752 44.3347 7.376 44.0147 7.04C43.7107 6.704 43.2467 6.536 42.6227 6.536C41.8547 6.536 41.2147 6.76 40.7027 7.208C40.2067 7.656 39.8787 8.264 39.7187 9.032ZM54.1341 8.648C54.0701 8.392 53.9501 8.136 53.7741 7.88C53.5981 7.624 53.3981 7.4 53.1741 7.208C52.9661 7 52.7421 6.84 52.5021 6.728C52.2621 6.6 52.0461 6.536 51.8541 6.536C50.6861 6.536 50.1021 7.072 50.1021 8.144C50.1021 8.576 50.2941 8.944 50.6781 9.248C51.0621 9.536 51.6461 9.824 52.4301 10.112C54.2381 10.816 55.1421 11.792 55.1421 13.04C55.1421 13.488 55.0541 13.896 54.8781 14.264C54.7021 14.616 54.4621 14.92 54.1581 15.176C53.8541 15.416 53.4941 15.608 53.0781 15.752C52.6781 15.88 52.2541 15.944 51.8061 15.944C50.6701 15.944 49.7261 15.736 48.9741 15.32L48.7341 12.608H49.1421C49.2541 13.04 49.4141 13.432 49.6221 13.784C49.8301 14.12 50.0621 14.416 50.3181 14.672C50.5741 14.912 50.8461 15.104 51.1341 15.248C51.4381 15.376 51.7341 15.44 52.0221 15.44C52.5981 15.44 53.0621 15.28 53.4141 14.96C53.7661 14.64 53.9421 14.224 53.9421 13.712C53.9421 12.784 53.1901 12.048 51.6861 11.504C50.6301 11.104 49.8701 10.688 49.4061 10.256C48.9581 9.808 48.7341 9.224 48.7341 8.504C48.7341 7.736 49.0461 7.128 49.6701 6.68C50.2941 6.216 51.0701 5.984 51.9981 5.984C52.9741 5.984 53.7901 6.176 54.4461 6.56L54.5901 8.648H54.1341Z" fill="black"/>
</svg>
