<svg width="156" height="53" viewBox="0 0 156 53" fill="none" xmlns="http://www.w3.org/2000/svg">
<path d="M0.676136 1.91193V0.818182H8.3125V1.91193H5.1108V11H3.87784V1.91193H0.676136ZM11.2296 6.40625V11H10.0563V0.818182H11.2296V4.55682H11.329C11.508 4.16241 11.7765 3.84919 12.1344 3.61719C12.4957 3.38187 12.9763 3.2642 13.5762 3.2642C14.0965 3.2642 14.5523 3.36861 14.9434 3.57741C15.3345 3.78291 15.6377 4.09943 15.8532 4.52699C16.0719 4.95123 16.1813 5.49148 16.1813 6.14773V11H15.008V6.22727C15.008 5.62074 14.8506 5.15175 14.5357 4.82031C14.2241 4.48556 13.7916 4.31818 13.2381 4.31818C12.8536 4.31818 12.5089 4.39938 12.204 4.56179C11.9024 4.72419 11.6638 4.96117 11.4881 5.27273C11.3158 5.58428 11.2296 5.96212 11.2296 6.40625ZM21.5295 11.1591C20.7937 11.1591 20.159 10.9967 19.6254 10.6719C19.0951 10.3438 18.6857 9.88636 18.3974 9.29972C18.1123 8.70975 17.9698 8.02367 17.9698 7.24148C17.9698 6.45928 18.1123 5.76989 18.3974 5.1733C18.6857 4.57339 19.0868 4.10606 19.6005 3.77131C20.1175 3.43324 20.7208 3.2642 21.4102 3.2642C21.8079 3.2642 22.2006 3.33049 22.5884 3.46307C22.9762 3.59564 23.3292 3.81108 23.6474 4.10938C23.9656 4.40436 24.2191 4.79545 24.408 5.28267C24.5969 5.76989 24.6914 6.36979 24.6914 7.08239V7.57955H18.805V6.56534H23.4982C23.4982 6.13447 23.4121 5.75 23.2397 5.41193C23.0707 5.07386 22.8287 4.80705 22.5138 4.61151C22.2023 4.41596 21.8344 4.31818 21.4102 4.31818C20.9428 4.31818 20.5385 4.43419 20.1971 4.66619C19.859 4.89489 19.5988 5.19318 19.4165 5.56108C19.2343 5.92898 19.1431 6.32339 19.1431 6.74432V7.42045C19.1431 7.99716 19.2425 8.48603 19.4414 8.88707C19.6436 9.2848 19.9237 9.58807 20.2816 9.79688C20.6396 10.0024 21.0555 10.1051 21.5295 10.1051C21.8377 10.1051 22.1161 10.062 22.3647 9.97585C22.6166 9.88636 22.8337 9.75379 23.016 9.57812C23.1983 9.39915 23.3391 9.17708 23.4386 8.91193L24.5721 9.23011C24.4528 9.61458 24.2522 9.95265 23.9705 10.2443C23.6888 10.5327 23.3408 10.758 22.9265 10.9205C22.5122 11.0795 22.0465 11.1591 21.5295 11.1591ZM32.1438 11L29.8171 3.36364H31.0501L32.7006 9.21023H32.7802L34.4109 3.36364H35.6637L37.2745 9.19034H37.354L39.0046 3.36364H40.2376L37.9109 11H36.7575L35.087 5.13352H34.9677L33.2972 11H32.1438ZM41.7887 11V3.36364H42.962V11H41.7887ZM42.3853 2.09091C42.1566 2.09091 41.9594 2.01302 41.7937 1.85724C41.6313 1.70147 41.5501 1.5142 41.5501 1.29545C41.5501 1.0767 41.6313 0.889441 41.7937 0.733664C41.9594 0.577888 42.1566 0.5 42.3853 0.5C42.614 0.5 42.8095 0.577888 42.9719 0.733664C43.1377 0.889441 43.2205 1.0767 43.2205 1.29545C43.2205 1.5142 43.1377 1.70147 42.9719 1.85724C42.8095 2.01302 42.614 2.09091 42.3853 2.09091ZM50.5201 5.07386L49.4661 5.37216C49.3998 5.1965 49.302 5.0258 49.1728 4.86009C49.0468 4.69105 48.8745 4.55185 48.6557 4.44247C48.437 4.3331 48.1569 4.27841 47.8155 4.27841C47.3482 4.27841 46.9587 4.38613 46.6472 4.60156C46.339 4.81368 46.1848 5.08381 46.1848 5.41193C46.1848 5.7036 46.2909 5.93395 46.503 6.10298C46.7151 6.27202 47.0466 6.41288 47.4973 6.52557L48.6309 6.80398C49.3136 6.9697 49.8224 7.22325 50.1571 7.56463C50.4919 7.9027 50.6593 8.33854 50.6593 8.87216C50.6593 9.30966 50.5333 9.70076 50.2814 10.0455C50.0328 10.3902 49.6848 10.6619 49.2374 10.8608C48.79 11.0597 48.2696 11.1591 47.6763 11.1591C46.8974 11.1591 46.2528 10.9901 45.7424 10.652C45.2319 10.3139 44.9088 9.82008 44.7729 9.17045L45.8865 8.89205C45.9926 9.30303 46.1931 9.61127 46.4881 9.81676C46.7864 10.0223 47.1758 10.125 47.6564 10.125C48.2033 10.125 48.6375 10.009 48.959 9.77699C49.2838 9.54167 49.4462 9.25994 49.4462 8.93182C49.4462 8.66667 49.3534 8.4446 49.1678 8.26562C48.9822 8.08333 48.6971 7.94744 48.3127 7.85795L47.04 7.55966C46.3406 7.39394 45.8269 7.13707 45.4988 6.78906C45.1739 6.43774 45.0115 5.99858 45.0115 5.47159C45.0115 5.04072 45.1325 4.65956 45.3745 4.32812C45.6197 3.99669 45.9528 3.73651 46.3738 3.54758C46.798 3.35866 47.2786 3.2642 47.8155 3.2642C48.5712 3.2642 49.1645 3.42992 49.5953 3.76136C50.0295 4.0928 50.3378 4.5303 50.5201 5.07386ZM55.6271 11.1591C54.8913 11.1591 54.2566 10.9967 53.723 10.6719C53.1927 10.3438 52.7834 9.88636 52.495 9.29972C52.21 8.70975 52.0675 8.02367 52.0675 7.24148C52.0675 6.45928 52.21 5.76989 52.495 5.1733C52.7834 4.57339 53.1844 4.10606 53.6982 3.77131C54.2152 3.43324 54.8184 3.2642 55.5078 3.2642C55.9055 3.2642 56.2983 3.33049 56.6861 3.46307C57.0739 3.59564 57.4268 3.81108 57.745 4.10938C58.0632 4.40436 58.3168 4.79545 58.5057 5.28267C58.6946 5.76989 58.7891 6.36979 58.7891 7.08239V7.57955H52.9027V6.56534H57.5959C57.5959 6.13447 57.5097 5.75 57.3374 5.41193C57.1683 5.07386 56.9264 4.80705 56.6115 4.61151C56.3 4.41596 55.9321 4.31818 55.5078 4.31818C55.0405 4.31818 54.6361 4.43419 54.2947 4.66619C53.9567 4.89489 53.6965 5.19318 53.5142 5.56108C53.3319 5.92898 53.2408 6.32339 53.2408 6.74432V7.42045C53.2408 7.99716 53.3402 8.48603 53.5391 8.88707C53.7412 9.2848 54.0213 9.58807 54.3793 9.79688C54.7372 10.0024 55.1532 10.1051 55.6271 10.1051C55.9354 10.1051 56.2138 10.062 56.4624 9.97585C56.7143 9.88636 56.9313 9.75379 57.1136 9.57812C57.2959 9.39915 57.4368 9.17708 57.5362 8.91193L58.6697 9.23011C58.5504 9.61458 58.3499 9.95265 58.0682 10.2443C57.7865 10.5327 57.4384 10.758 57.0241 10.9205C56.6098 11.0795 56.1442 11.1591 55.6271 11.1591ZM64.5114 11V3.36364H65.6449V4.55682H65.7443C65.9034 4.14915 66.1603 3.83262 66.5149 3.60724C66.8696 3.37855 67.2955 3.2642 67.7926 3.2642C68.2964 3.2642 68.7157 3.37855 69.0504 3.60724C69.3885 3.83262 69.652 4.14915 69.8409 4.55682H69.9205C70.116 4.16241 70.4093 3.84919 70.8004 3.61719C71.1915 3.38187 71.6605 3.2642 72.2074 3.2642C72.8902 3.2642 73.4486 3.47798 73.8828 3.90554C74.317 4.32978 74.5341 4.991 74.5341 5.8892V11H73.3608V5.8892C73.3608 5.32576 73.2067 4.92306 72.8984 4.68111C72.5902 4.43916 72.2273 4.31818 71.8097 4.31818C71.2727 4.31818 70.8568 4.48059 70.5618 4.8054C70.2668 5.12689 70.1193 5.53456 70.1193 6.02841V11H68.9261V5.76989C68.9261 5.3357 68.7853 4.98603 68.5036 4.72088C68.2218 4.45241 67.8589 4.31818 67.4148 4.31818C67.1098 4.31818 66.8248 4.39938 66.5597 4.56179C66.2978 4.72419 66.0857 4.94957 65.9233 5.23793C65.7642 5.52296 65.6847 5.85275 65.6847 6.22727V11H64.5114ZM78.9265 11.179C78.4426 11.179 78.0034 11.0878 77.609 10.9055C77.2146 10.7199 76.9014 10.4531 76.6694 10.1051C76.4374 9.75379 76.3214 9.32955 76.3214 8.83239C76.3214 8.39489 76.4076 8.04025 76.5799 7.76847C76.7522 7.49337 76.9826 7.27794 77.271 7.12216C77.5593 6.96638 77.8775 6.85038 78.2255 6.77415C78.5768 6.6946 78.9298 6.63163 79.2844 6.58523C79.7485 6.52557 80.1246 6.48082 80.413 6.45099C80.7047 6.41785 80.9168 6.36316 81.0494 6.28693C81.1853 6.2107 81.2532 6.07812 81.2532 5.8892V5.84943C81.2532 5.3589 81.119 4.97775 80.8505 4.70597C80.5853 4.43419 80.1826 4.2983 79.6424 4.2983C79.0823 4.2983 78.6431 4.42093 78.3249 4.66619C78.0067 4.91146 77.783 5.1733 77.6538 5.4517L76.5401 5.05398C76.739 4.58996 77.0041 4.22869 77.3356 3.97017C77.6703 3.70833 78.0349 3.52604 78.4293 3.4233C78.8271 3.31723 79.2182 3.2642 79.6026 3.2642C79.8479 3.2642 80.1296 3.29403 80.4478 3.35369C80.7693 3.41004 81.0792 3.5277 81.3775 3.70668C81.6791 3.88565 81.9293 4.15578 82.1282 4.51705C82.3271 4.87831 82.4265 5.36222 82.4265 5.96875V11H81.2532V9.96591H81.1935C81.114 10.1316 80.9814 10.3089 80.7958 10.4979C80.6102 10.6868 80.3633 10.8475 80.055 10.9801C79.7468 11.1127 79.3706 11.179 78.9265 11.179ZM79.1055 10.125C79.5695 10.125 79.9606 10.0339 80.2788 9.85156C80.6003 9.66927 80.8422 9.43395 81.0046 9.1456C81.1703 8.85724 81.2532 8.55398 81.2532 8.2358V7.16193C81.2035 7.22159 81.0941 7.27628 80.9251 7.32599C80.7594 7.3724 80.5671 7.41383 80.3484 7.45028C80.1329 7.48343 79.9225 7.51326 79.717 7.53977C79.5148 7.56297 79.3507 7.58286 79.2248 7.59943C78.9199 7.6392 78.6348 7.70384 78.3697 7.79332C78.1078 7.8795 77.8957 8.01042 77.7333 8.18608C77.5742 8.35843 77.4947 8.59375 77.4947 8.89205C77.4947 9.29972 77.6455 9.60795 77.9471 9.81676C78.252 10.0223 78.6381 10.125 79.1055 10.125ZM85.7413 6.40625V11H84.568V3.36364H85.7015V4.55682H85.801C85.9799 4.16903 86.2517 3.85748 86.6163 3.62216C86.9809 3.38352 87.4515 3.2642 88.0282 3.2642C88.5453 3.2642 88.9977 3.37027 89.3855 3.58239C89.7733 3.79119 90.0749 4.10938 90.2903 4.53693C90.5057 4.96117 90.6135 5.49811 90.6135 6.14773V11H89.4402V6.22727C89.4402 5.62737 89.2844 5.16004 88.9728 4.82528C88.6613 4.48722 88.2337 4.31818 87.6902 4.31818C87.3156 4.31818 86.9809 4.39938 86.6859 4.56179C86.3942 4.72419 86.1639 4.96117 85.9949 5.27273C85.8258 5.58428 85.7413 5.96212 85.7413 6.40625ZM100.016 3.36364V4.35795H96.0586V3.36364H100.016ZM97.212 1.53409H98.3853V8.8125C98.3853 9.14394 98.4334 9.39252 98.5295 9.55824C98.6289 9.72064 98.7549 9.83002 98.9073 9.88636C99.0631 9.93939 99.2272 9.96591 99.3995 9.96591C99.5288 9.96591 99.6348 9.95928 99.7177 9.94602C99.8005 9.92945 99.8668 9.91619 99.9165 9.90625L100.155 10.9602C100.076 10.9901 99.9646 11.0199 99.8221 11.0497C99.6796 11.0829 99.4989 11.0994 99.2802 11.0994C98.9487 11.0994 98.6239 11.0282 98.3058 10.8857C97.9909 10.7431 97.729 10.526 97.5202 10.2344C97.3147 9.94271 97.212 9.57481 97.212 9.13068V1.53409ZM103.118 6.40625V11H101.945V0.818182H103.118V4.55682H103.218C103.397 4.16241 103.665 3.84919 104.023 3.61719C104.384 3.38187 104.865 3.2642 105.465 3.2642C105.985 3.2642 106.441 3.36861 106.832 3.57741C107.223 3.78291 107.526 4.09943 107.742 4.52699C107.961 4.95123 108.07 5.49148 108.07 6.14773V11H106.897V6.22727C106.897 5.62074 106.739 5.15175 106.424 4.82031C106.113 4.48556 105.68 4.31818 105.127 4.31818C104.742 4.31818 104.398 4.39938 104.093 4.56179C103.791 4.72419 103.552 4.96117 103.377 5.27273C103.204 5.58428 103.118 5.96212 103.118 6.40625ZM113.418 11.1591C112.682 11.1591 112.048 10.9967 111.514 10.6719C110.984 10.3438 110.574 9.88636 110.286 9.29972C110.001 8.70975 109.858 8.02367 109.858 7.24148C109.858 6.45928 110.001 5.76989 110.286 5.1733C110.574 4.57339 110.975 4.10606 111.489 3.77131C112.006 3.43324 112.609 3.2642 113.299 3.2642C113.697 3.2642 114.089 3.33049 114.477 3.46307C114.865 3.59564 115.218 3.81108 115.536 4.10938C115.854 4.40436 116.108 4.79545 116.297 5.28267C116.486 5.76989 116.58 6.36979 116.58 7.08239V7.57955H110.694V6.56534H115.387C115.387 6.13447 115.301 5.75 115.128 5.41193C114.959 5.07386 114.717 4.80705 114.403 4.61151C114.091 4.41596 113.723 4.31818 113.299 4.31818C112.831 4.31818 112.427 4.43419 112.086 4.66619C111.748 4.89489 111.488 5.19318 111.305 5.56108C111.123 5.92898 111.032 6.32339 111.032 6.74432V7.42045C111.032 7.99716 111.131 8.48603 111.33 8.88707C111.532 9.2848 111.812 9.58807 112.17 9.79688C112.528 10.0024 112.944 10.1051 113.418 10.1051C113.726 10.1051 114.005 10.062 114.253 9.97585C114.505 9.88636 114.722 9.75379 114.905 9.57812C115.087 9.39915 115.228 9.17708 115.327 8.91193L116.461 9.23011C116.341 9.61458 116.141 9.95265 115.859 10.2443C115.577 10.5327 115.229 10.758 114.815 10.9205C114.401 11.0795 113.935 11.1591 113.418 11.1591ZM118.365 11V3.36364H119.498V4.51705H119.578C119.717 4.1392 119.969 3.83262 120.334 3.5973C120.698 3.36198 121.109 3.24432 121.567 3.24432C121.653 3.24432 121.76 3.24597 121.89 3.24929C122.019 3.2526 122.117 3.25758 122.183 3.2642V4.45739C122.143 4.44744 122.052 4.43253 121.91 4.41264C121.77 4.38944 121.623 4.37784 121.467 4.37784C121.096 4.37784 120.765 4.45573 120.473 4.61151C120.184 4.76397 119.956 4.97609 119.787 5.24787C119.621 5.51634 119.538 5.82292 119.538 6.16761V11H118.365ZM126.543 11.1591C125.807 11.1591 125.173 10.9967 124.639 10.6719C124.109 10.3438 123.699 9.88636 123.411 9.29972C123.126 8.70975 122.983 8.02367 122.983 7.24148C122.983 6.45928 123.126 5.76989 123.411 5.1733C123.699 4.57339 124.1 4.10606 124.614 3.77131C125.131 3.43324 125.734 3.2642 126.424 3.2642C126.822 3.2642 127.214 3.33049 127.602 3.46307C127.99 3.59564 128.343 3.81108 128.661 4.10938C128.979 4.40436 129.233 4.79545 129.422 5.28267C129.611 5.76989 129.705 6.36979 129.705 7.08239V7.57955H123.819V6.56534H128.512C128.512 6.13447 128.426 5.75 128.253 5.41193C128.084 5.07386 127.842 4.80705 127.528 4.61151C127.216 4.41596 126.848 4.31818 126.424 4.31818C125.956 4.31818 125.552 4.43419 125.211 4.66619C124.873 4.89489 124.613 5.19318 124.43 5.56108C124.248 5.92898 124.157 6.32339 124.157 6.74432V7.42045C124.157 7.99716 124.256 8.48603 124.455 8.88707C124.657 9.2848 124.937 9.58807 125.295 9.79688C125.653 10.0024 126.069 10.1051 126.543 10.1051C126.851 10.1051 127.13 10.062 127.378 9.97585C127.63 9.88636 127.847 9.75379 128.03 9.57812C128.212 9.39915 128.353 9.17708 128.452 8.91193L129.586 9.23011C129.466 9.61458 129.266 9.95265 128.984 10.2443C128.702 10.5327 128.354 10.758 127.94 10.9205C127.526 11.0795 127.06 11.1591 126.543 11.1591ZM134.89 3.36364V4.35795H130.774V3.36364H134.89ZM132.007 11V2.30966C132.007 1.87216 132.11 1.50758 132.315 1.21591C132.521 0.924242 132.787 0.705492 133.116 0.559658C133.444 0.413825 133.79 0.340908 134.155 0.340908C134.443 0.340908 134.678 0.364109 134.861 0.410511C135.043 0.456912 135.179 0.499999 135.268 0.539772L134.93 1.55398C134.871 1.53409 134.788 1.50923 134.682 1.4794C134.579 1.44957 134.443 1.43466 134.274 1.43466C133.886 1.43466 133.606 1.53243 133.434 1.72798C133.265 1.92353 133.18 2.21023 133.18 2.58807V11H132.007ZM139.323 11.1591C138.633 11.1591 138.028 10.995 137.508 10.6669C136.991 10.3388 136.587 9.87973 136.295 9.28977C136.007 8.69981 135.862 8.01042 135.862 7.22159C135.862 6.42614 136.007 5.73177 136.295 5.13849C136.587 4.54522 136.991 4.08452 137.508 3.75639C138.028 3.42827 138.633 3.2642 139.323 3.2642C140.012 3.2642 140.615 3.42827 141.132 3.75639C141.653 4.08452 142.057 4.54522 142.345 5.13849C142.637 5.73177 142.783 6.42614 142.783 7.22159C142.783 8.01042 142.637 8.69981 142.345 9.28977C142.057 9.87973 141.653 10.3388 141.132 10.6669C140.615 10.995 140.012 11.1591 139.323 11.1591ZM139.323 10.1051C139.846 10.1051 140.277 9.97088 140.615 9.70241C140.953 9.43395 141.204 9.08097 141.366 8.64347C141.528 8.20597 141.61 7.73201 141.61 7.22159C141.61 6.71117 141.528 6.23556 141.366 5.79474C141.204 5.35393 140.953 4.99763 140.615 4.72585C140.277 4.45407 139.846 4.31818 139.323 4.31818C138.799 4.31818 138.368 4.45407 138.03 4.72585C137.692 4.99763 137.442 5.35393 137.279 5.79474C137.117 6.23556 137.036 6.71117 137.036 7.22159C137.036 7.73201 137.117 8.20597 137.279 8.64347C137.442 9.08097 137.692 9.43395 138.03 9.70241C138.368 9.97088 138.799 10.1051 139.323 10.1051ZM144.574 11V3.36364H145.707V4.51705H145.787C145.926 4.1392 146.178 3.83262 146.543 3.5973C146.907 3.36198 147.318 3.24432 147.776 3.24432C147.862 3.24432 147.969 3.24597 148.099 3.24929C148.228 3.2526 148.326 3.25758 148.392 3.2642V4.45739C148.352 4.44744 148.261 4.43253 148.119 4.41264C147.979 4.38944 147.832 4.37784 147.676 4.37784C147.305 4.37784 146.973 4.45573 146.682 4.61151C146.393 4.76397 146.165 4.97609 145.996 5.24787C145.83 5.51634 145.747 5.82292 145.747 6.16761V11H144.574ZM152.752 11.1591C152.016 11.1591 151.382 10.9967 150.848 10.6719C150.318 10.3438 149.908 9.88636 149.62 9.29972C149.335 8.70975 149.192 8.02367 149.192 7.24148C149.192 6.45928 149.335 5.76989 149.62 5.1733C149.908 4.57339 150.309 4.10606 150.823 3.77131C151.34 3.43324 151.943 3.2642 152.633 3.2642C153.031 3.2642 153.423 3.33049 153.811 3.46307C154.199 3.59564 154.552 3.81108 154.87 4.10938C155.188 4.40436 155.442 4.79545 155.631 5.28267C155.82 5.76989 155.914 6.36979 155.914 7.08239V7.57955H150.028V6.56534H154.721C154.721 6.13447 154.635 5.75 154.462 5.41193C154.293 5.07386 154.051 4.80705 153.737 4.61151C153.425 4.41596 153.057 4.31818 152.633 4.31818C152.165 4.31818 151.761 4.43419 151.42 4.66619C151.082 4.89489 150.821 5.19318 150.639 5.56108C150.457 5.92898 150.366 6.32339 150.366 6.74432V7.42045C150.366 7.99716 150.465 8.48603 150.664 8.88707C150.866 9.2848 151.146 9.58807 151.504 9.79688C151.862 10.0024 152.278 10.1051 152.752 10.1051C153.06 10.1051 153.339 10.062 153.587 9.97585C153.839 9.88636 154.056 9.75379 154.239 9.57812C154.421 9.39915 154.562 9.17708 154.661 8.91193L155.795 9.23011C155.675 9.61458 155.475 9.95265 155.193 10.2443C154.911 10.5327 154.563 10.758 154.149 10.9205C153.735 11.0795 153.269 11.1591 152.752 11.1591ZM3.32102 30.179C2.83712 30.179 2.39796 30.0878 2.00355 29.9055C1.60914 29.7199 1.29593 29.4531 1.06392 29.1051C0.831913 28.7538 0.715909 28.3295 0.715909 27.8324C0.715909 27.3949 0.802083 27.0402 0.974432 26.7685C1.14678 26.4934 1.37713 26.2779 1.66548 26.1222C1.95384 25.9664 2.27202 25.8504 2.62003 25.7741C2.97135 25.6946 3.32434 25.6316 3.67898 25.5852C4.14299 25.5256 4.51918 25.4808 4.80753 25.451C5.0992 25.4179 5.31132 25.3632 5.44389 25.2869C5.57978 25.2107 5.64773 25.0781 5.64773 24.8892V24.8494C5.64773 24.3589 5.51349 23.9777 5.24503 23.706C4.97988 23.4342 4.57718 23.2983 4.03693 23.2983C3.4768 23.2983 3.03764 23.4209 2.71946 23.6662C2.40128 23.9115 2.17756 24.1733 2.0483 24.4517L0.934659 24.054C1.13352 23.59 1.39867 23.2287 1.73011 22.9702C2.06487 22.7083 2.42945 22.526 2.82386 22.4233C3.22159 22.3172 3.61269 22.2642 3.99716 22.2642C4.24242 22.2642 4.52415 22.294 4.84233 22.3537C5.16383 22.41 5.47372 22.5277 5.77202 22.7067C6.07363 22.8857 6.32386 23.1558 6.52273 23.517C6.72159 23.8783 6.82102 24.3622 6.82102 24.9688V30H5.64773V28.9659H5.58807C5.50852 29.1316 5.37595 29.3089 5.19034 29.4979C5.00474 29.6868 4.75781 29.8475 4.44957 29.9801C4.14134 30.1127 3.76515 30.179 3.32102 30.179ZM3.5 29.125C3.96402 29.125 4.35511 29.0339 4.6733 28.8516C4.99479 28.6693 5.23674 28.4339 5.39915 28.1456C5.56487 27.8572 5.64773 27.554 5.64773 27.2358V26.1619C5.59801 26.2216 5.48864 26.2763 5.3196 26.326C5.15388 26.3724 4.96165 26.4138 4.7429 26.4503C4.52746 26.4834 4.317 26.5133 4.11151 26.5398C3.90933 26.563 3.74527 26.5829 3.61932 26.5994C3.31439 26.6392 3.02936 26.7038 2.7642 26.7933C2.50237 26.8795 2.29025 27.0104 2.12784 27.1861C1.96875 27.3584 1.8892 27.5937 1.8892 27.892C1.8892 28.2997 2.04001 28.608 2.34162 28.8168C2.64654 29.0223 3.03267 29.125 3.5 29.125ZM10.1358 19.8182V30H8.96254V19.8182H10.1358ZM14.0149 30L11.6882 22.3636H12.9212L14.5717 28.2102H14.6513L16.282 22.3636H17.5348L19.1456 28.1903H19.2251L20.8757 22.3636H22.1087L19.782 30H18.6286L16.9581 24.1335H16.8388L15.1683 30H14.0149ZM25.907 30.179C25.4231 30.179 24.9839 30.0878 24.5895 29.9055C24.1951 29.7199 23.8819 29.4531 23.6499 29.1051C23.4179 28.7538 23.3018 28.3295 23.3018 27.8324C23.3018 27.3949 23.388 27.0402 23.5604 26.7685C23.7327 26.4934 23.9631 26.2779 24.2514 26.1222C24.5398 25.9664 24.858 25.8504 25.206 25.7741C25.5573 25.6946 25.9103 25.6316 26.2649 25.5852C26.7289 25.5256 27.1051 25.4808 27.3935 25.451C27.6851 25.4179 27.8973 25.3632 28.0298 25.2869C28.1657 25.2107 28.2337 25.0781 28.2337 24.8892V24.8494C28.2337 24.3589 28.0994 23.9777 27.831 23.706C27.5658 23.4342 27.1631 23.2983 26.6229 23.2983C26.0627 23.2983 25.6236 23.4209 25.3054 23.6662C24.9872 23.9115 24.7635 24.1733 24.6342 24.4517L23.5206 24.054C23.7195 23.59 23.9846 23.2287 24.3161 22.9702C24.6508 22.7083 25.0154 22.526 25.4098 22.4233C25.8075 22.3172 26.1986 22.2642 26.5831 22.2642C26.8284 22.2642 27.1101 22.294 27.4283 22.3537C27.7498 22.41 28.0597 22.5277 28.358 22.7067C28.6596 22.8857 28.9098 23.1558 29.1087 23.517C29.3075 23.8783 29.407 24.3622 29.407 24.9688V30H28.2337V28.9659H28.174C28.0945 29.1316 27.9619 29.3089 27.7763 29.4979C27.5907 29.6868 27.3438 29.8475 27.0355 29.9801C26.7273 30.1127 26.3511 30.179 25.907 30.179ZM26.0859 29.125C26.55 29.125 26.9411 29.0339 27.2592 28.8516C27.5807 28.6693 27.8227 28.4339 27.9851 28.1456C28.1508 27.8572 28.2337 27.554 28.2337 27.2358V26.1619C28.1839 26.2216 28.0746 26.2763 27.9055 26.326C27.7398 26.3724 27.5476 26.4138 27.3288 26.4503C27.1134 26.4834 26.9029 26.5133 26.6974 26.5398C26.4953 26.563 26.3312 26.5829 26.2053 26.5994C25.9003 26.6392 25.6153 26.7038 25.3501 26.7933C25.0883 26.8795 24.8762 27.0104 24.7138 27.1861C24.5547 27.3584 24.4751 27.5937 24.4751 27.892C24.4751 28.2997 24.6259 28.608 24.9276 28.8168C25.2325 29.0223 25.6186 29.125 26.0859 29.125ZM32.0307 32.8636C31.8319 32.8636 31.6545 32.8471 31.4988 32.8139C31.343 32.7841 31.2353 32.7543 31.1756 32.7244L31.4739 31.6903C31.7589 31.7633 32.0108 31.7898 32.2296 31.7699C32.4483 31.75 32.6422 31.6522 32.8113 31.4766C32.9836 31.3042 33.141 31.0241 33.2836 30.6364L33.5023 30.0398L30.6784 22.3636H31.9512L34.0591 28.4489H34.1387L36.2466 22.3636H37.5194L34.2779 31.1136C34.132 31.508 33.9514 31.8345 33.736 32.093C33.5205 32.3549 33.2703 32.5488 32.9853 32.6747C32.7035 32.8007 32.3854 32.8636 32.0307 32.8636ZM44.4771 24.0739L43.4231 24.3722C43.3568 24.1965 43.2591 24.0258 43.1298 23.8601C43.0038 23.6911 42.8315 23.5518 42.6127 23.4425C42.394 23.3331 42.1139 23.2784 41.7725 23.2784C41.3052 23.2784 40.9158 23.3861 40.6042 23.6016C40.296 23.8137 40.1419 24.0838 40.1419 24.4119C40.1419 24.7036 40.2479 24.9339 40.46 25.103C40.6722 25.272 41.0036 25.4129 41.4544 25.5256L42.5879 25.804C43.2707 25.9697 43.7794 26.2232 44.1142 26.5646C44.4489 26.9027 44.6163 27.3385 44.6163 27.8722C44.6163 28.3097 44.4904 28.7008 44.2385 29.0455C43.9899 29.3902 43.6419 29.6619 43.1944 29.8608C42.747 30.0597 42.2266 30.1591 41.6333 30.1591C40.8545 30.1591 40.2098 29.9901 39.6994 29.652C39.189 29.3139 38.8658 28.8201 38.7299 28.1705L39.8436 27.892C39.9496 28.303 40.1502 28.6113 40.4451 28.8168C40.7434 29.0223 41.1329 29.125 41.6135 29.125C42.1603 29.125 42.5945 29.009 42.916 28.777C43.2408 28.5417 43.4032 28.2599 43.4032 27.9318C43.4032 27.6667 43.3104 27.4446 43.1248 27.2656C42.9392 27.0833 42.6542 26.9474 42.2697 26.858L40.997 26.5597C40.2976 26.3939 39.7839 26.1371 39.4558 25.7891C39.131 25.4377 38.9686 24.9986 38.9686 24.4716C38.9686 24.0407 39.0895 23.6596 39.3315 23.3281C39.5768 22.9967 39.9099 22.7365 40.3308 22.5476C40.755 22.3587 41.2356 22.2642 41.7725 22.2642C42.5282 22.2642 43.1215 22.4299 43.5524 22.7614C43.9866 23.0928 44.2948 23.5303 44.4771 24.0739ZM51.4933 25.4062V30H50.32V19.8182H51.4933V23.5568H51.5927C51.7717 23.1624 52.0401 22.8492 52.3981 22.6172C52.7594 22.3819 53.2399 22.2642 53.8398 22.2642C54.3602 22.2642 54.8159 22.3686 55.207 22.5774C55.5981 22.7829 55.9014 23.0994 56.1168 23.527C56.3356 23.9512 56.445 24.4915 56.445 25.1477V30H55.2717V25.2273C55.2717 24.6207 55.1142 24.1518 54.7994 23.8203C54.4878 23.4856 54.0553 23.3182 53.5018 23.3182C53.1173 23.3182 52.7726 23.3994 52.4677 23.5618C52.1661 23.7242 51.9274 23.9612 51.7518 24.2727C51.5794 24.5843 51.4933 24.9621 51.4933 25.4062ZM61.6937 30.1591C61.0043 30.1591 60.3994 29.995 59.8791 29.6669C59.362 29.3388 58.9577 28.8797 58.666 28.2898C58.3777 27.6998 58.2335 27.0104 58.2335 26.2216C58.2335 25.4261 58.3777 24.7318 58.666 24.1385C58.9577 23.5452 59.362 23.0845 59.8791 22.7564C60.3994 22.4283 61.0043 22.2642 61.6937 22.2642C62.3831 22.2642 62.9863 22.4283 63.5034 22.7564C64.0237 23.0845 64.4281 23.5452 64.7164 24.1385C65.0081 24.7318 65.1539 25.4261 65.1539 26.2216C65.1539 27.0104 65.0081 27.6998 64.7164 28.2898C64.4281 28.8797 64.0237 29.3388 63.5034 29.6669C62.9863 29.995 62.3831 30.1591 61.6937 30.1591ZM61.6937 29.1051C62.2174 29.1051 62.6483 28.9709 62.9863 28.7024C63.3244 28.4339 63.5746 28.081 63.737 27.6435C63.8994 27.206 63.9806 26.732 63.9806 26.2216C63.9806 25.7112 63.8994 25.2356 63.737 24.7947C63.5746 24.3539 63.3244 23.9976 62.9863 23.7259C62.6483 23.4541 62.2174 23.3182 61.6937 23.3182C61.17 23.3182 60.7392 23.4541 60.4011 23.7259C60.063 23.9976 59.8128 24.3539 59.6504 24.7947C59.488 25.2356 59.4068 25.7112 59.4068 26.2216C59.4068 26.732 59.488 27.206 59.6504 27.6435C59.8128 28.081 60.063 28.4339 60.4011 28.7024C60.7392 28.9709 61.17 29.1051 61.6937 29.1051ZM68.1183 19.8182V30H66.945V19.8182H68.1183ZM73.1507 30.1591C72.5144 30.1591 71.9526 29.9983 71.4654 29.6768C70.9782 29.352 70.597 28.8946 70.3219 28.3047C70.0468 27.7114 69.9093 27.0104 69.9093 26.2017C69.9093 25.3996 70.0468 24.7036 70.3219 24.1136C70.597 23.5237 70.9798 23.0679 71.4703 22.7464C71.9609 22.425 72.5276 22.2642 73.1706 22.2642C73.6678 22.2642 74.0605 22.3471 74.3489 22.5128C74.6406 22.6752 74.8626 22.8608 75.0151 23.0696C75.1709 23.2751 75.2918 23.4441 75.378 23.5767H75.4775V19.8182H76.6507V30H75.5172V28.8267H75.378C75.2918 28.9659 75.1692 29.1416 75.0101 29.3537C74.851 29.5625 74.624 29.7498 74.329 29.9155C74.034 30.0779 73.6413 30.1591 73.1507 30.1591ZM73.3098 29.1051C73.7805 29.1051 74.1782 28.9825 74.503 28.7372C74.8278 28.4886 75.0748 28.1456 75.2438 27.7081C75.4128 27.2673 75.4973 26.7585 75.4973 26.1818C75.4973 25.6117 75.4145 25.1129 75.2488 24.6854C75.083 24.2545 74.8378 23.9197 74.513 23.6811C74.1882 23.4392 73.7871 23.3182 73.3098 23.3182C72.8127 23.3182 72.3984 23.4458 72.0669 23.701C71.7388 23.9529 71.4919 24.2959 71.3262 24.7301C71.1638 25.161 71.0826 25.6449 71.0826 26.1818C71.0826 26.7254 71.1654 27.2192 71.3311 27.6634C71.5002 28.1042 71.7488 28.4555 72.0769 28.7173C72.4083 28.9759 72.8193 29.1051 73.3098 29.1051ZM84.3716 24.0739L83.3176 24.3722C83.2514 24.1965 83.1536 24.0258 83.0243 23.8601C82.8984 23.6911 82.726 23.5518 82.5073 23.4425C82.2885 23.3331 82.0085 23.2784 81.6671 23.2784C81.1998 23.2784 80.8103 23.3861 80.4988 23.6016C80.1905 23.8137 80.0364 24.0838 80.0364 24.4119C80.0364 24.7036 80.1425 24.9339 80.3546 25.103C80.5667 25.272 80.8981 25.4129 81.3489 25.5256L82.4824 25.804C83.1652 25.9697 83.6739 26.2232 84.0087 26.5646C84.3435 26.9027 84.5108 27.3385 84.5108 27.8722C84.5108 28.3097 84.3849 28.7008 84.133 29.0455C83.8844 29.3902 83.5364 29.6619 83.089 29.8608C82.6415 30.0597 82.1212 30.1591 81.5279 30.1591C80.749 30.1591 80.1043 29.9901 79.5939 29.652C79.0835 29.3139 78.7604 28.8201 78.6245 28.1705L79.7381 27.892C79.8442 28.303 80.0447 28.6113 80.3397 28.8168C80.638 29.0223 81.0274 29.125 81.508 29.125C82.0549 29.125 82.4891 29.009 82.8105 28.777C83.1354 28.5417 83.2978 28.2599 83.2978 27.9318C83.2978 27.6667 83.205 27.4446 83.0194 27.2656C82.8337 27.0833 82.5487 26.9474 82.1642 26.858L80.8915 26.5597C80.1922 26.3939 79.6784 26.1371 79.3503 25.7891C79.0255 25.4377 78.8631 24.9986 78.8631 24.4716C78.8631 24.0407 78.9841 23.6596 79.226 23.3281C79.4713 22.9967 79.8044 22.7365 80.2253 22.5476C80.6496 22.3587 81.1301 22.2642 81.6671 22.2642C82.4228 22.2642 83.016 22.4299 83.4469 22.7614C83.8811 23.0928 84.1893 23.5303 84.3716 24.0739ZM90.2145 30V22.3636H91.3878V30H90.2145ZM90.8111 21.0909C90.5824 21.0909 90.3852 21.013 90.2195 20.8572C90.0571 20.7015 89.9759 20.5142 89.9759 20.2955C89.9759 20.0767 90.0571 19.8894 90.2195 19.7337C90.3852 19.5779 90.5824 19.5 90.8111 19.5C91.0398 19.5 91.2353 19.5779 91.3977 19.7337C91.5634 19.8894 91.6463 20.0767 91.6463 20.2955C91.6463 20.5142 91.5634 20.7015 91.3977 20.8572C91.2353 21.013 91.0398 21.0909 90.8111 21.0909ZM94.71 25.4062V30H93.5368V22.3636H94.6703V23.5568H94.7697C94.9487 23.169 95.2205 22.8575 95.585 22.6222C95.9496 22.3835 96.4203 22.2642 96.997 22.2642C97.514 22.2642 97.9664 22.3703 98.3542 22.5824C98.742 22.7912 99.0436 23.1094 99.2591 23.5369C99.4745 23.9612 99.5822 24.4981 99.5822 25.1477V30H98.4089V25.2273C98.4089 24.6274 98.2531 24.16 97.9416 23.8253C97.63 23.4872 97.2025 23.3182 96.6589 23.3182C96.2844 23.3182 95.9496 23.3994 95.6547 23.5618C95.363 23.7242 95.1326 23.9612 94.9636 24.2727C94.7946 24.5843 94.71 24.9621 94.71 25.4062ZM108.985 22.3636V23.358H105.027V22.3636H108.985ZM106.181 20.5341H107.354V27.8125C107.354 28.1439 107.402 28.3925 107.498 28.5582C107.598 28.7206 107.724 28.83 107.876 28.8864C108.032 28.9394 108.196 28.9659 108.368 28.9659C108.498 28.9659 108.604 28.9593 108.686 28.946C108.769 28.9295 108.836 28.9162 108.885 28.9062L109.124 29.9602C109.044 29.9901 108.933 30.0199 108.791 30.0497C108.648 30.0829 108.468 30.0994 108.249 30.0994C107.917 30.0994 107.593 30.0282 107.275 29.8857C106.96 29.7431 106.698 29.526 106.489 29.2344C106.283 28.9427 106.181 28.5748 106.181 28.1307V20.5341ZM112.087 25.4062V30H110.914V19.8182H112.087V23.5568H112.186C112.365 23.1624 112.634 22.8492 112.992 22.6172C113.353 22.3819 113.834 22.2642 114.434 22.2642C114.954 22.2642 115.41 22.3686 115.801 22.5774C116.192 22.7829 116.495 23.0994 116.711 23.527C116.929 23.9512 117.039 24.4915 117.039 25.1477V30H115.865V25.2273C115.865 24.6207 115.708 24.1518 115.393 23.8203C115.082 23.4856 114.649 23.3182 114.096 23.3182C113.711 23.3182 113.366 23.3994 113.061 23.5618C112.76 23.7242 112.521 23.9612 112.346 24.2727C112.173 24.5843 112.087 24.9621 112.087 25.4062ZM122.387 30.1591C121.651 30.1591 121.016 29.9967 120.483 29.6719C119.952 29.3438 119.543 28.8864 119.255 28.2997C118.97 27.7098 118.827 27.0237 118.827 26.2415C118.827 25.4593 118.97 24.7699 119.255 24.1733C119.543 23.5734 119.944 23.1061 120.458 22.7713C120.975 22.4332 121.578 22.2642 122.268 22.2642C122.665 22.2642 123.058 22.3305 123.446 22.4631C123.834 22.5956 124.187 22.8111 124.505 23.1094C124.823 23.4044 125.077 23.7955 125.265 24.2827C125.454 24.7699 125.549 25.3698 125.549 26.0824V26.5795H119.662V25.5653H124.356C124.356 25.1345 124.269 24.75 124.097 24.4119C123.928 24.0739 123.686 23.8071 123.371 23.6115C123.06 23.416 122.692 23.3182 122.268 23.3182C121.8 23.3182 121.396 23.4342 121.055 23.6662C120.716 23.8949 120.456 24.1932 120.274 24.5611C120.092 24.929 120.001 25.3234 120.001 25.7443V26.4205C120.001 26.9972 120.1 27.486 120.299 27.8871C120.501 28.2848 120.781 28.5881 121.139 28.7969C121.497 29.0024 121.913 29.1051 122.387 29.1051C122.695 29.1051 122.974 29.062 123.222 28.9759C123.474 28.8864 123.691 28.7538 123.873 28.5781C124.056 28.3991 124.197 28.1771 124.296 27.9119L125.43 28.2301C125.31 28.6146 125.11 28.9527 124.828 29.2443C124.546 29.5327 124.198 29.758 123.784 29.9205C123.37 30.0795 122.904 30.1591 122.387 30.1591ZM132.743 24.0739L131.689 24.3722C131.622 24.1965 131.525 24.0258 131.395 23.8601C131.269 23.6911 131.097 23.5518 130.878 23.4425C130.66 23.3331 130.38 23.2784 130.038 23.2784C129.571 23.2784 129.181 23.3861 128.87 23.6016C128.562 23.8137 128.407 24.0838 128.407 24.4119C128.407 24.7036 128.514 24.9339 128.726 25.103C128.938 25.272 129.269 25.4129 129.72 25.5256L130.854 25.804C131.536 25.9697 132.045 26.2232 132.38 26.5646C132.715 26.9027 132.882 27.3385 132.882 27.8722C132.882 28.3097 132.756 28.7008 132.504 29.0455C132.256 29.3902 131.907 29.6619 131.46 29.8608C131.013 30.0597 130.492 30.1591 129.899 30.1591C129.12 30.1591 128.475 29.9901 127.965 29.652C127.455 29.3139 127.131 28.8201 126.996 28.1705L128.109 27.892C128.215 28.303 128.416 28.6113 128.711 28.8168C129.009 29.0223 129.398 29.125 129.879 29.125C130.426 29.125 130.86 29.009 131.182 28.777C131.506 28.5417 131.669 28.2599 131.669 27.9318C131.669 27.6667 131.576 27.4446 131.39 27.2656C131.205 27.0833 130.92 26.9474 130.535 26.858L129.263 26.5597C128.563 26.3939 128.05 26.1371 127.721 25.7891C127.397 25.4377 127.234 24.9986 127.234 24.4716C127.234 24.0407 127.355 23.6596 127.597 23.3281C127.842 22.9967 128.175 22.7365 128.596 22.5476C129.021 22.3587 129.501 22.2642 130.038 22.2642C130.794 22.2642 131.387 22.4299 131.818 22.7614C132.252 23.0928 132.56 23.5303 132.743 24.0739ZM137.85 30.1591C137.114 30.1591 136.479 29.9967 135.946 29.6719C135.415 29.3438 135.006 28.8864 134.718 28.2997C134.433 27.7098 134.29 27.0237 134.29 26.2415C134.29 25.4593 134.433 24.7699 134.718 24.1733C135.006 23.5734 135.407 23.1061 135.921 22.7713C136.438 22.4332 137.041 22.2642 137.73 22.2642C138.128 22.2642 138.521 22.3305 138.909 22.4631C139.297 22.5956 139.65 22.8111 139.968 23.1094C140.286 23.4044 140.539 23.7955 140.728 24.2827C140.917 24.7699 141.012 25.3698 141.012 26.0824V26.5795H135.125V25.5653H139.819C139.819 25.1345 139.732 24.75 139.56 24.4119C139.391 24.0739 139.149 23.8071 138.834 23.6115C138.523 23.416 138.155 23.3182 137.73 23.3182C137.263 23.3182 136.859 23.4342 136.517 23.6662C136.179 23.8949 135.919 24.1932 135.737 24.5611C135.555 24.929 135.463 25.3234 135.463 25.7443V26.4205C135.463 26.9972 135.563 27.486 135.762 27.8871C135.964 28.2848 136.244 28.5881 136.602 28.7969C136.96 29.0024 137.376 29.1051 137.85 29.1051C138.158 29.1051 138.436 29.062 138.685 28.9759C138.937 28.8864 139.154 28.7538 139.336 28.5781C139.519 28.3991 139.659 28.1771 139.759 27.9119L140.892 28.2301C140.773 28.6146 140.573 28.9527 140.291 29.2443C140.009 29.5327 139.661 29.758 139.247 29.9205C138.833 30.0795 138.367 30.1591 137.85 30.1591ZM1.07386 50V42.3636H2.20739V43.5568H2.30682C2.46591 43.1491 2.72277 42.8326 3.07741 42.6072C3.43205 42.3786 3.85795 42.2642 4.35511 42.2642C4.8589 42.2642 5.27817 42.3786 5.61293 42.6072C5.95099 42.8326 6.21449 43.1491 6.40341 43.5568H6.48295C6.6785 43.1624 6.97183 42.8492 7.36293 42.6172C7.75403 42.3819 8.22301 42.2642 8.76989 42.2642C9.45265 42.2642 10.0111 42.478 10.4453 42.9055C10.8795 43.3298 11.0966 43.991 11.0966 44.8892V50H9.9233V44.8892C9.9233 44.3258 9.76918 43.9231 9.46094 43.6811C9.1527 43.4392 8.78977 43.3182 8.37216 43.3182C7.83523 43.3182 7.41927 43.4806 7.12429 43.8054C6.82931 44.1269 6.68182 44.5346 6.68182 45.0284V50H5.48864V44.7699C5.48864 44.3357 5.34777 43.986 5.06605 43.7209C4.78433 43.4524 4.4214 43.3182 3.97727 43.3182C3.67235 43.3182 3.38731 43.3994 3.12216 43.5618C2.86032 43.7242 2.6482 43.9496 2.4858 44.2379C2.3267 44.523 2.24716 44.8527 2.24716 45.2273V50H1.07386ZM15.489 50.179C15.0051 50.179 14.5659 50.0878 14.1715 49.9055C13.7771 49.7199 13.4639 49.4531 13.2319 49.1051C12.9999 48.7538 12.8839 48.3295 12.8839 47.8324C12.8839 47.3949 12.9701 47.0402 13.1424 46.7685C13.3147 46.4934 13.5451 46.2779 13.8335 46.1222C14.1218 45.9664 14.44 45.8504 14.788 45.7741C15.1393 45.6946 15.4923 45.6316 15.8469 45.5852C16.311 45.5256 16.6871 45.4808 16.9755 45.451C17.2672 45.4179 17.4793 45.3632 17.6119 45.2869C17.7478 45.2107 17.8157 45.0781 17.8157 44.8892V44.8494C17.8157 44.3589 17.6815 43.9777 17.413 43.706C17.1478 43.4342 16.7451 43.2983 16.2049 43.2983C15.6448 43.2983 15.2056 43.4209 14.8874 43.6662C14.5692 43.9115 14.3455 44.1733 14.2163 44.4517L13.1026 44.054C13.3015 43.59 13.5666 43.2287 13.8981 42.9702C14.2328 42.7083 14.5974 42.526 14.9918 42.4233C15.3896 42.3172 15.7807 42.2642 16.1651 42.2642C16.4104 42.2642 16.6921 42.294 17.0103 42.3537C17.3318 42.41 17.6417 42.5277 17.94 42.7067C18.2416 42.8857 18.4918 43.1558 18.6907 43.517C18.8896 43.8783 18.989 44.3622 18.989 44.9688V50H17.8157V48.9659H17.756C17.6765 49.1316 17.5439 49.3089 17.3583 49.4979C17.1727 49.6868 16.9258 49.8475 16.6175 49.9801C16.3093 50.1127 15.9331 50.179 15.489 50.179ZM15.668 49.125C16.132 49.125 16.5231 49.0339 16.8413 48.8516C17.1628 48.6693 17.4047 48.4339 17.5671 48.1456C17.7328 47.8572 17.8157 47.554 17.8157 47.2358V46.1619C17.766 46.2216 17.6566 46.2763 17.4876 46.326C17.3219 46.3724 17.1296 46.4138 16.9109 46.4503C16.6954 46.4834 16.485 46.5133 16.2795 46.5398C16.0773 46.563 15.9132 46.5829 15.7873 46.5994C15.4824 46.6392 15.1973 46.7038 14.9322 46.7933C14.6703 46.8795 14.4582 47.0104 14.2958 47.1861C14.1367 47.3584 14.0572 47.5937 14.0572 47.892C14.0572 48.2997 14.208 48.608 14.5096 48.8168C14.8145 49.0223 15.2006 49.125 15.668 49.125ZM24.4515 42.3636V43.358H20.4941V42.3636H24.4515ZM21.6475 40.5341H22.8208V47.8125C22.8208 48.1439 22.8689 48.3925 22.965 48.5582C23.0645 48.7206 23.1904 48.83 23.3429 48.8864C23.4986 48.9394 23.6627 48.9659 23.835 48.9659C23.9643 48.9659 24.0704 48.9593 24.1532 48.946C24.2361 48.9295 24.3024 48.9162 24.3521 48.9062L24.5907 49.9602C24.5112 49.9901 24.4002 50.0199 24.2576 50.0497C24.1151 50.0829 23.9345 50.0994 23.7157 50.0994C23.3843 50.0994 23.0595 50.0282 22.7413 49.8857C22.4264 49.7431 22.1646 49.526 21.9558 49.2344C21.7503 48.9427 21.6475 48.5748 21.6475 48.1307V40.5341ZM29.5375 42.3636V43.358H25.5801V42.3636H29.5375ZM26.7335 40.5341H27.9068V47.8125C27.9068 48.1439 27.9548 48.3925 28.051 48.5582C28.1504 48.7206 28.2763 48.83 28.4288 48.8864C28.5846 48.9394 28.7486 48.9659 28.921 48.9659C29.0502 48.9659 29.1563 48.9593 29.2392 48.946C29.322 48.9295 29.3883 48.9162 29.438 48.9062L29.6767 49.9602C29.5971 49.9901 29.4861 50.0199 29.3436 50.0497C29.2011 50.0829 29.0204 50.0994 28.8017 50.0994C28.4702 50.0994 28.1454 50.0282 27.8272 49.8857C27.5124 49.7431 27.2505 49.526 27.0417 49.2344C26.8362 48.9427 26.7335 48.5748 26.7335 48.1307V40.5341ZM34.4221 50.1591C33.6863 50.1591 33.0516 49.9967 32.5179 49.6719C31.9876 49.3438 31.5783 48.8864 31.29 48.2997C31.0049 47.7098 30.8624 47.0237 30.8624 46.2415C30.8624 45.4593 31.0049 44.7699 31.29 44.1733C31.5783 43.5734 31.9793 43.1061 32.4931 42.7713C33.0101 42.4332 33.6133 42.2642 34.3027 42.2642C34.7005 42.2642 35.0932 42.3305 35.481 42.4631C35.8688 42.5956 36.2218 42.8111 36.54 43.1094C36.8581 43.4044 37.1117 43.7955 37.3006 44.2827C37.4895 44.7699 37.584 45.3698 37.584 46.0824V46.5795H31.6976V45.5653H36.3908C36.3908 45.1345 36.3046 44.75 36.1323 44.4119C35.9632 44.0739 35.7213 43.8071 35.4064 43.6115C35.0949 43.416 34.727 43.3182 34.3027 43.3182C33.8354 43.3182 33.431 43.4342 33.0897 43.6662C32.7516 43.8949 32.4914 44.1932 32.3091 44.5611C32.1268 44.929 32.0357 45.3234 32.0357 45.7443V46.4205C32.0357 46.9972 32.1351 47.486 32.334 47.8871C32.5362 48.2848 32.8162 48.5881 33.1742 48.7969C33.5321 49.0024 33.9481 49.1051 34.4221 49.1051C34.7303 49.1051 35.0087 49.062 35.2573 48.9759C35.5092 48.8864 35.7263 48.7538 35.9086 48.5781C36.0909 48.3991 36.2317 48.1771 36.3311 47.9119L37.4647 48.2301C37.3453 48.6146 37.1448 48.9527 36.8631 49.2443C36.5814 49.5327 36.2334 49.758 35.8191 49.9205C35.4048 50.0795 34.9391 50.1591 34.4221 50.1591ZM39.3688 50V42.3636H40.5023V43.517H40.5819C40.7211 43.1392 40.973 42.8326 41.3375 42.5973C41.7021 42.362 42.1131 42.2443 42.5705 42.2443C42.6567 42.2443 42.7644 42.246 42.8936 42.2493C43.0229 42.2526 43.1207 42.2576 43.187 42.2642V43.4574C43.1472 43.4474 43.056 43.4325 42.9135 43.4126C42.7743 43.3894 42.6268 43.3778 42.4711 43.3778C42.0998 43.3778 41.7684 43.4557 41.4767 43.6115C41.1884 43.764 40.9597 43.9761 40.7907 44.2479C40.6249 44.5163 40.5421 44.8229 40.5421 45.1676V50H39.3688ZM49.9869 44.0739L48.9329 44.3722C48.8666 44.1965 48.7688 44.0258 48.6396 43.8601C48.5136 43.6911 48.3413 43.5518 48.1225 43.4425C47.9038 43.3331 47.6237 43.2784 47.2823 43.2784C46.815 43.2784 46.4255 43.3861 46.114 43.6016C45.8058 43.8137 45.6516 44.0838 45.6516 44.4119C45.6516 44.7036 45.7577 44.9339 45.9698 45.103C46.1819 45.272 46.5134 45.4129 46.9641 45.5256L48.0977 45.804C48.7804 45.9697 49.2892 46.2232 49.6239 46.5646C49.9587 46.9027 50.1261 47.3385 50.1261 47.8722C50.1261 48.3097 50.0001 48.7008 49.7482 49.0455C49.4996 49.3902 49.1516 49.6619 48.7042 49.8608C48.2567 50.0597 47.7364 50.1591 47.1431 50.1591C46.3642 50.1591 45.7196 49.9901 45.2092 49.652C44.6987 49.3139 44.3756 48.8201 44.2397 48.1705L45.3533 47.892C45.4594 48.303 45.6599 48.6113 45.9549 48.8168C46.2532 49.0223 46.6426 49.125 47.1232 49.125C47.6701 49.125 48.1043 49.009 48.4258 48.777C48.7506 48.5417 48.913 48.2599 48.913 47.9318C48.913 47.6667 48.8202 47.4446 48.6346 47.2656C48.449 47.0833 48.1639 46.9474 47.7795 46.858L46.5067 46.5597C45.8074 46.3939 45.2937 46.1371 44.9656 45.7891C44.6407 45.4377 44.4783 44.9986 44.4783 44.4716C44.4783 44.0407 44.5993 43.6596 44.8413 43.3281C45.0865 42.9967 45.4196 42.7365 45.8406 42.5476C46.2648 42.3587 46.7454 42.2642 47.2823 42.2642C48.038 42.2642 48.6313 42.4299 49.0621 42.7614C49.4963 43.0928 49.8046 43.5303 49.9869 44.0739ZM59.1507 42.3636V43.358H55.1934V42.3636H59.1507ZM56.3468 40.5341H57.5201V47.8125C57.5201 48.1439 57.5681 48.3925 57.6642 48.5582C57.7637 48.7206 57.8896 48.83 58.0421 48.8864C58.1979 48.9394 58.3619 48.9659 58.5343 48.9659C58.6635 48.9659 58.7696 48.9593 58.8525 48.946C58.9353 48.9295 59.0016 48.9162 59.0513 48.9062L59.29 49.9602C59.2104 49.9901 59.0994 50.0199 58.9569 50.0497C58.8143 50.0829 58.6337 50.0994 58.415 50.0994C58.0835 50.0994 57.7587 50.0282 57.4405 49.8857C57.1257 49.7431 56.8638 49.526 56.655 49.2344C56.4495 48.9427 56.3468 48.5748 56.3468 48.1307V40.5341ZM63.9359 50.1591C63.2465 50.1591 62.6416 49.995 62.1213 49.6669C61.6042 49.3388 61.1999 48.8797 60.9082 48.2898C60.6199 47.6998 60.4757 47.0104 60.4757 46.2216C60.4757 45.4261 60.6199 44.7318 60.9082 44.1385C61.1999 43.5452 61.6042 43.0845 62.1213 42.7564C62.6416 42.4283 63.2465 42.2642 63.9359 42.2642C64.6253 42.2642 65.2285 42.4283 65.7456 42.7564C66.2659 43.0845 66.6703 43.5452 66.9586 44.1385C67.2503 44.7318 67.3961 45.4261 67.3961 46.2216C67.3961 47.0104 67.2503 47.6998 66.9586 48.2898C66.6703 48.8797 66.2659 49.3388 65.7456 49.6669C65.2285 49.995 64.6253 50.1591 63.9359 50.1591ZM63.9359 49.1051C64.4596 49.1051 64.8904 48.9709 65.2285 48.7024C65.5666 48.4339 65.8168 48.081 65.9792 47.6435C66.1416 47.206 66.2228 46.732 66.2228 46.2216C66.2228 45.7112 66.1416 45.2356 65.9792 44.7947C65.8168 44.3539 65.5666 43.9976 65.2285 43.7259C64.8904 43.4541 64.4596 43.3182 63.9359 43.3182C63.4122 43.3182 62.9814 43.4541 62.6433 43.7259C62.3052 43.9976 62.055 44.3539 61.8926 44.7947C61.7302 45.2356 61.649 45.7112 61.649 46.2216C61.649 46.732 61.7302 47.206 61.8926 47.6435C62.055 48.081 62.3052 48.4339 62.6433 48.7024C62.9814 48.9709 63.4122 49.1051 63.9359 49.1051ZM76.4457 42.3636V43.358H72.4883V42.3636H76.4457ZM73.6417 40.5341H74.815V47.8125C74.815 48.1439 74.863 48.3925 74.9592 48.5582C75.0586 48.7206 75.1845 48.83 75.337 48.8864C75.4928 48.9394 75.6568 48.9659 75.8292 48.9659C75.9585 48.9659 76.0645 48.9593 76.1474 48.946C76.2302 48.9295 76.2965 48.9162 76.3462 48.9062L76.5849 49.9602C76.5053 49.9901 76.3943 50.0199 76.2518 50.0497C76.1093 50.0829 75.9286 50.0994 75.7099 50.0994C75.3784 50.0994 75.0536 50.0282 74.7354 49.8857C74.4206 49.7431 74.1587 49.526 73.9499 49.2344C73.7444 48.9427 73.6417 48.5748 73.6417 48.1307V40.5341ZM79.5479 45.4062V50H78.3746V39.8182H79.5479V43.5568H79.6474C79.8263 43.1624 80.0948 42.8492 80.4528 42.6172C80.814 42.3819 81.2946 42.2642 81.8945 42.2642C82.4149 42.2642 82.8706 42.3686 83.2617 42.5774C83.6528 42.7829 83.9561 43.0994 84.1715 43.527C84.3903 43.9512 84.4996 44.4915 84.4996 45.1477V50H83.3263V45.2273C83.3263 44.6207 83.1689 44.1518 82.854 43.8203C82.5425 43.4856 82.11 43.3182 81.5565 43.3182C81.172 43.3182 80.8273 43.3994 80.5224 43.5618C80.2208 43.7242 79.9821 43.9612 79.8065 44.2727C79.6341 44.5843 79.5479 44.9621 79.5479 45.4062ZM86.6461 50V42.3636H87.8194V50H86.6461ZM87.2427 41.0909C87.014 41.0909 86.8168 41.013 86.6511 40.8572C86.4887 40.7015 86.4075 40.5142 86.4075 40.2955C86.4075 40.0767 86.4887 39.8894 86.6511 39.7337C86.8168 39.5779 87.014 39.5 87.2427 39.5C87.4714 39.5 87.667 39.5779 87.8294 39.7337C87.9951 39.8894 88.0779 40.0767 88.0779 40.2955C88.0779 40.5142 87.9951 40.7015 87.8294 40.8572C87.667 41.013 87.4714 41.0909 87.2427 41.0909ZM95.3775 44.0739L94.3235 44.3722C94.2572 44.1965 94.1594 44.0258 94.0302 43.8601C93.9042 43.6911 93.7319 43.5518 93.5131 43.4425C93.2944 43.3331 93.0143 43.2784 92.6729 43.2784C92.2056 43.2784 91.8162 43.3861 91.5046 43.6016C91.1964 43.8137 91.0423 44.0838 91.0423 44.4119C91.0423 44.7036 91.1483 44.9339 91.3604 45.103C91.5726 45.272 91.904 45.4129 92.3548 45.5256L93.4883 45.804C94.171 45.9697 94.6798 46.2232 95.0146 46.5646C95.3493 46.9027 95.5167 47.3385 95.5167 47.8722C95.5167 48.3097 95.3907 48.7008 95.1388 49.0455C94.8903 49.3902 94.5423 49.6619 94.0948 49.8608C93.6474 50.0597 93.127 50.1591 92.5337 50.1591C91.7549 50.1591 91.1102 49.9901 90.5998 49.652C90.0894 49.3139 89.7662 48.8201 89.6303 48.1705L90.744 47.892C90.85 48.303 91.0505 48.6113 91.3455 48.8168C91.6438 49.0223 92.0333 49.125 92.5138 49.125C93.0607 49.125 93.4949 49.009 93.8164 48.777C94.1412 48.5417 94.3036 48.2599 94.3036 47.9318C94.3036 47.6667 94.2108 47.4446 94.0252 47.2656C93.8396 47.0833 93.5546 46.9474 93.1701 46.858L91.8974 46.5597C91.198 46.3939 90.6843 46.1371 90.3562 45.7891C90.0314 45.4377 89.869 44.9986 89.869 44.4716C89.869 44.0407 89.9899 43.6596 90.2319 43.3281C90.4772 42.9967 90.8103 42.7365 91.2312 42.5476C91.6554 42.3587 92.136 42.2642 92.6729 42.2642C93.4286 42.2642 94.0219 42.4299 94.4528 42.7614C94.887 43.0928 95.1952 43.5303 95.3775 44.0739ZM101.22 52.8636V42.3636H102.354V43.5767H102.493C102.579 43.4441 102.699 43.2751 102.851 43.0696C103.007 42.8608 103.229 42.6752 103.517 42.5128C103.809 42.3471 104.203 42.2642 104.7 42.2642C105.343 42.2642 105.91 42.425 106.401 42.7464C106.891 43.0679 107.274 43.5237 107.549 44.1136C107.824 44.7036 107.962 45.3996 107.962 46.2017C107.962 47.0104 107.824 47.7114 107.549 48.3047C107.274 48.8946 106.893 49.352 106.406 49.6768C105.919 49.9983 105.357 50.1591 104.72 50.1591C104.23 50.1591 103.837 50.0779 103.542 49.9155C103.247 49.7498 103.02 49.5625 102.861 49.3537C102.702 49.1416 102.579 48.9659 102.493 48.8267H102.394V52.8636H101.22ZM102.374 46.1818C102.374 46.7585 102.458 47.2673 102.627 47.7081C102.796 48.1456 103.043 48.4886 103.368 48.7372C103.693 48.9825 104.091 49.1051 104.561 49.1051C105.052 49.1051 105.461 48.9759 105.789 48.7173C106.121 48.4555 106.369 48.1042 106.535 47.6634C106.704 47.2192 106.789 46.7254 106.789 46.1818C106.789 45.6449 106.706 45.161 106.54 44.7301C106.378 44.2959 106.131 43.9529 105.799 43.701C105.471 43.4458 105.058 43.3182 104.561 43.3182C104.084 43.3182 103.683 43.4392 103.358 43.6811C103.033 43.9197 102.788 44.2545 102.622 44.6854C102.457 45.1129 102.374 45.6117 102.374 46.1818ZM109.752 50V42.3636H110.885V43.517H110.965C111.104 43.1392 111.356 42.8326 111.72 42.5973C112.085 42.362 112.496 42.2443 112.953 42.2443C113.039 42.2443 113.147 42.246 113.276 42.2493C113.406 42.2526 113.503 42.2576 113.57 42.2642V43.4574C113.53 43.4474 113.439 43.4325 113.296 43.4126C113.157 43.3894 113.01 43.3778 112.854 43.3778C112.483 43.3778 112.151 43.4557 111.86 43.6115C111.571 43.764 111.343 43.9761 111.173 44.2479C111.008 44.5163 110.925 44.8229 110.925 45.1676V50H109.752ZM114.961 50V42.3636H116.134V50H114.961ZM115.557 41.0909C115.328 41.0909 115.131 41.013 114.966 40.8572C114.803 40.7015 114.722 40.5142 114.722 40.2955C114.722 40.0767 114.803 39.8894 114.966 39.7337C115.131 39.5779 115.328 39.5 115.557 39.5C115.786 39.5 115.981 39.5779 116.144 39.7337C116.31 39.8894 116.392 40.0767 116.392 40.2955C116.392 40.5142 116.31 40.7015 116.144 40.8572C115.981 41.013 115.786 41.0909 115.557 41.0909ZM119.456 45.4062V50H118.283V42.3636H119.416V43.5568H119.516C119.695 43.169 119.967 42.8575 120.331 42.6222C120.696 42.3835 121.166 42.2642 121.743 42.2642C122.26 42.2642 122.713 42.3703 123.1 42.5824C123.488 42.7912 123.79 43.1094 124.005 43.5369C124.221 43.9612 124.328 44.4981 124.328 45.1477V50H123.155V45.2273C123.155 44.6274 122.999 44.16 122.688 43.8253C122.376 43.4872 121.949 43.3182 121.405 43.3182C121.03 43.3182 120.696 43.3994 120.401 43.5618C120.109 43.7242 119.879 43.9612 119.71 44.2727C119.541 44.5843 119.456 44.9621 119.456 45.4062ZM129.575 50.1591C128.859 50.1591 128.242 49.9901 127.725 49.652C127.208 49.3139 126.81 48.8482 126.532 48.255C126.254 47.6617 126.114 46.9839 126.114 46.2216C126.114 45.446 126.257 44.7616 126.542 44.1683C126.83 43.5717 127.231 43.1061 127.745 42.7713C128.262 42.4332 128.865 42.2642 129.555 42.2642C130.092 42.2642 130.576 42.3636 131.006 42.5625C131.437 42.7614 131.79 43.0398 132.065 43.3977C132.34 43.7557 132.511 44.1733 132.577 44.6506H131.404C131.315 44.3026 131.116 43.9943 130.808 43.7259C130.503 43.4541 130.092 43.3182 129.575 43.3182C129.117 43.3182 128.716 43.4375 128.371 43.6761C128.03 43.9115 127.763 44.2446 127.571 44.6754C127.382 45.103 127.288 45.6051 127.288 46.1818C127.288 46.7718 127.38 47.2855 127.566 47.723C127.755 48.1605 128.02 48.5002 128.362 48.7422C128.706 48.9841 129.111 49.1051 129.575 49.1051C129.879 49.1051 130.156 49.0521 130.405 48.946C130.653 48.84 130.864 48.6875 131.036 48.4886C131.209 48.2898 131.331 48.0511 131.404 47.7727H132.577C132.511 48.2235 132.347 48.6295 132.085 48.9908C131.827 49.3487 131.484 49.6338 131.056 49.8459C130.632 50.0547 130.138 50.1591 129.575 50.1591ZM134.293 50V42.3636H135.466V50H134.293ZM134.889 41.0909C134.661 41.0909 134.463 41.013 134.298 40.8572C134.135 40.7015 134.054 40.5142 134.054 40.2955C134.054 40.0767 134.135 39.8894 134.298 39.7337C134.463 39.5779 134.661 39.5 134.889 39.5C135.118 39.5 135.313 39.5779 135.476 39.7337C135.642 39.8894 135.724 40.0767 135.724 40.2955C135.724 40.5142 135.642 40.7015 135.476 40.8572C135.313 41.013 135.118 41.0909 134.889 41.0909ZM137.615 52.8636V42.3636H138.748V43.5767H138.888C138.974 43.4441 139.093 43.2751 139.246 43.0696C139.401 42.8608 139.623 42.6752 139.912 42.5128C140.203 42.3471 140.598 42.2642 141.095 42.2642C141.738 42.2642 142.305 42.425 142.795 42.7464C143.286 43.0679 143.669 43.5237 143.944 44.1136C144.219 44.7036 144.356 45.3996 144.356 46.2017C144.356 47.0104 144.219 47.7114 143.944 48.3047C143.669 48.8946 143.287 49.352 142.8 49.6768C142.313 49.9983 141.751 50.1591 141.115 50.1591C140.624 50.1591 140.232 50.0779 139.937 49.9155C139.642 49.7498 139.415 49.5625 139.256 49.3537C139.096 49.1416 138.974 48.9659 138.888 48.8267H138.788V52.8636H137.615ZM138.768 46.1818C138.768 46.7585 138.853 47.2673 139.022 47.7081C139.191 48.1456 139.438 48.4886 139.763 48.7372C140.087 48.9825 140.485 49.1051 140.956 49.1051C141.446 49.1051 141.856 48.9759 142.184 48.7173C142.515 48.4555 142.764 48.1042 142.93 47.6634C143.099 47.2192 143.183 46.7254 143.183 46.1818C143.183 45.6449 143.1 45.161 142.934 44.7301C142.772 44.2959 142.525 43.9529 142.194 43.701C141.866 43.4458 141.453 43.3182 140.956 43.3182C140.479 43.3182 140.077 43.4392 139.753 43.6811C139.428 43.9197 139.183 44.2545 139.017 44.6854C138.851 45.1129 138.768 45.6117 138.768 46.1818ZM147.319 39.8182V50H146.146V39.8182H147.319ZM152.67 50.1591C151.934 50.1591 151.3 49.9967 150.766 49.6719C150.236 49.3438 149.826 48.8864 149.538 48.2997C149.253 47.7098 149.11 47.0237 149.11 46.2415C149.11 45.4593 149.253 44.7699 149.538 44.1733C149.826 43.5734 150.227 43.1061 150.741 42.7713C151.258 42.4332 151.861 42.2642 152.551 42.2642C152.949 42.2642 153.341 42.3305 153.729 42.4631C154.117 42.5956 154.47 42.8111 154.788 43.1094C155.106 43.4044 155.36 43.7955 155.549 44.2827C155.738 44.7699 155.832 45.3698 155.832 46.0824V46.5795H149.946V45.5653H154.639C154.639 45.1345 154.553 44.75 154.38 44.4119C154.211 44.0739 153.969 43.8071 153.654 43.6115C153.343 43.416 152.975 43.3182 152.551 43.3182C152.083 43.3182 151.679 43.4342 151.338 43.6662C151 43.8949 150.739 44.1932 150.557 44.5611C150.375 44.929 150.284 45.3234 150.284 45.7443V46.4205C150.284 46.9972 150.383 47.486 150.582 47.8871C150.784 48.2848 151.064 48.5881 151.422 48.7969C151.78 49.0024 152.196 49.1051 152.67 49.1051C152.978 49.1051 153.257 49.062 153.505 48.9759C153.757 48.8864 153.974 48.7538 154.157 48.5781C154.339 48.3991 154.48 48.1771 154.579 47.9119L155.713 48.2301C155.593 48.6146 155.393 48.9527 155.111 49.2443C154.829 49.5327 154.481 49.758 154.067 49.9205C153.653 50.0795 153.187 50.1591 152.67 50.1591Z" fill="black"/>
</svg>
