<svg width="32" height="9" viewBox="0 0 32 9" fill="none" xmlns="http://www.w3.org/2000/svg">
<path d="M27.4999 8.33332C27.721 8.33332 27.9329 8.2454 28.0891 8.08915L31.4224 4.75582C31.7477 4.43041 31.7477 3.90291 31.4224 3.57749L28.0891 0.244166C27.9329 0.0879159 27.721 0 27.4999 0H4.16666C1.86552 0 0 1.86552 0 4.16666C0 6.4678 1.86552 8.33332 4.16666 8.33332H27.4999ZM27.2849 1.79666L29.6549 4.16666L27.2849 6.53665L26.6924 4.16666L27.2849 1.79666ZM6.66665 1.66666H25.5999L25.1833 3.33333H8.33332V4.99999H25.1833L25.5999 6.66665H6.66665V1.66666ZM1.66666 4.16666C1.66666 2.78593 2.78593 1.66666 4.16666 1.66666H4.99999V6.66665H4.16666C2.78593 6.66665 1.66666 5.54739 1.66666 4.16666Z" fill="white"/>
</svg>
