<svg width="27" height="27" viewBox="0 0 27 27" fill="none" xmlns="http://www.w3.org/2000/svg">
<path d="M1.16666 26.8333H26.1666C26.6268 26.8333 26.9999 26.4601 26.9999 25.9999V0.999993C26.9998 0.539786 26.6267 0.166766 26.1664 0.16687C25.9455 0.16687 25.7337 0.254683 25.5774 0.410828L0.577493 25.4108C0.252077 25.7363 0.252181 26.2639 0.577701 26.5893C0.733951 26.7455 0.945722 26.8333 1.16666 26.8333ZM25.3333 3.01166V5.16665H23.6666V6.83331H25.3333V8.49998H23.6666V10.1666H25.3333V11.8333H23.6666V13.5H25.3333V15.1666H23.6666V16.8333H25.3333V18.5H23.6666V20.1666H25.3333V21.8333H23.6666V23.4999H25.3333V25.1666H23.6666V23.4999H22V25.1666H20.3333V23.4999H18.6666V25.1666H17V23.4999H15.3333V25.1666H13.6666V23.4999H12V25.1666H10.3333V23.4999H8.66664V25.1666H6.99998V23.4999H5.33332V25.1666H3.17832L25.3333 3.01166Z" fill="white"/>
</svg>
