<svg width="213" height="27" viewBox="0 0 213 27" fill="none" xmlns="http://www.w3.org/2000/svg">
<path d="M14.86 11.492L18.276 19.052L22.784 7.516C23.176 6.508 23.372 5.76133 23.372 5.276C23.372 4.79067 23.1387 4.50133 22.672 4.408L21.524 4.184V3.736C21.7107 3.792 22.42 3.82 23.652 3.82C24.884 3.82 25.6587 3.792 25.976 3.736V4.184L25.136 4.436C24.856 4.52933 24.6413 4.66 24.492 4.828C24.3427 4.996 24.1933 5.28533 24.044 5.696L17.968 21.936H17.38L13.712 13.9L9.82 21.936H9.232L2.988 6.452C2.82 6.06 2.68 5.74267 2.568 5.5C2.47467 5.23867 2.372 5.04267 2.26 4.912C2.16667 4.76267 2.064 4.65067 1.952 4.576C1.85867 4.50133 1.728 4.436 1.56 4.38L0.748 4.184V3.736C1.21467 3.792 2.08267 3.82 3.352 3.82C4.64 3.82 5.62 3.792 6.292 3.736V4.184L4.976 4.436C4.82667 4.47333 4.752 4.55733 4.752 4.688C4.752 4.94933 4.95733 5.584 5.368 6.592L10.436 19.36L13.348 13.116L10.436 6.424C10.2493 6.01333 10.0907 5.68667 9.96 5.444C9.82933 5.18267 9.708 4.98667 9.596 4.856C9.50267 4.70667 9.40933 4.604 9.316 4.548C9.22267 4.492 9.12 4.45467 9.008 4.436L7.636 4.184V3.736C8.15867 3.792 9.25067 3.82 10.912 3.82C12.5547 3.82 13.5907 3.792 14.02 3.736V4.184L12.396 4.492C12.228 4.52933 12.144 4.632 12.144 4.8C12.144 5.024 12.3493 5.612 12.76 6.564L14.468 10.624L16.68 5.696C16.8293 5.39733 16.848 5.108 16.736 4.828C16.6427 4.548 16.456 4.38933 16.176 4.352L15.224 4.184V3.736C15.6907 3.792 16.568 3.82 17.856 3.82C19.1253 3.82 19.9467 3.792 20.32 3.736V4.184L19.004 4.436C18.3693 4.56667 17.884 4.996 17.548 5.724L14.86 11.492ZM37.1003 14.292H29.2883C29.2323 14.6653 29.2043 15.0387 29.2043 15.412C29.2043 16.14 29.307 16.812 29.5123 17.428C29.7176 18.0253 30.007 18.5387 30.3803 18.968C30.7723 19.3973 31.239 19.7333 31.7803 19.976C32.3403 20.2187 32.9563 20.34 33.6283 20.34C34.2816 20.34 34.879 20.2093 35.4203 19.948C35.9616 19.6867 36.5496 19.2573 37.1843 18.66L37.2963 19.332C35.971 20.956 34.2816 21.768 32.2283 21.768C31.5563 21.768 30.9216 21.6187 30.3243 21.32C29.7456 21.0213 29.2416 20.62 28.8123 20.116C28.383 19.5933 28.047 18.9867 27.8043 18.296C27.5616 17.5867 27.4403 16.8213 27.4403 16C27.4403 15.1787 27.571 14.4133 27.8323 13.704C28.1123 12.9947 28.495 12.3787 28.9803 11.856C29.4656 11.3147 30.035 10.8947 30.6883 10.596C31.3416 10.2973 32.0603 10.148 32.8443 10.148C33.4416 10.148 33.9923 10.2507 34.4963 10.456C35.0003 10.6427 35.439 10.9227 35.8123 11.296C36.2043 11.6507 36.503 12.0893 36.7083 12.612C36.9323 13.116 37.063 13.676 37.1003 14.292ZM29.4283 13.704H33.6843C34.2816 13.704 34.7203 13.6667 35.0003 13.592C35.299 13.4987 35.3736 13.2 35.2243 12.696C35.075 12.2107 34.8136 11.772 34.4403 11.38C34.0856 10.988 33.5443 10.792 32.8163 10.792C31.9203 10.792 31.1736 11.0533 30.5763 11.576C29.9976 12.0987 29.615 12.808 29.4283 13.704ZM42.4383 0.627999C42.9423 0.627999 43.3809 0.842666 43.7543 1.272C44.1276 1.70133 44.3143 2.224 44.3143 2.84C44.3143 3.43733 44.0809 4.128 43.6143 4.912C43.1663 5.696 42.5223 6.44267 41.6823 7.152C40.8609 7.86133 40.3196 8.216 40.0583 8.216C39.9649 8.216 39.8716 8.17867 39.7783 8.104C39.7036 8.01067 39.6663 7.908 39.6663 7.796C39.6663 7.66533 39.7876 7.49733 40.0303 7.292C41.6543 6.02267 42.4663 4.97733 42.4663 4.156C42.4663 3.764 42.2703 3.49333 41.8783 3.344C41.2809 3.12 40.9823 2.71867 40.9823 2.14C40.9823 1.72933 41.1129 1.37467 41.3743 1.076C41.6543 0.777332 42.0089 0.627999 42.4383 0.627999ZM46.2703 21.432V20.984L47.6703 20.732C48.0436 20.6387 48.277 20.4987 48.3703 20.312C48.4823 20.1253 48.5383 19.7893 48.5383 19.304V13.928C48.5383 13.5547 48.4543 13.284 48.2863 13.116C48.137 12.948 47.7916 12.808 47.2503 12.696L46.4943 12.528L46.5503 12.108C47.2783 11.8467 47.885 11.548 48.3703 11.212C48.8556 10.8573 49.285 10.288 49.6583 9.504H50.1623C50.1996 10.008 50.2276 10.5587 50.2463 11.156C50.265 11.7347 50.2743 12.36 50.2743 13.032C50.6476 12.3413 51.161 11.6973 51.8143 11.1C52.4676 10.4653 53.037 10.148 53.5223 10.148C53.989 10.148 54.3436 10.2787 54.5863 10.54C54.8476 10.8013 54.9783 11.1187 54.9783 11.492C54.9783 11.8467 54.8756 12.1173 54.6703 12.304C54.465 12.4907 54.213 12.584 53.9143 12.584C53.6156 12.584 53.289 12.5093 52.9343 12.36C52.5983 12.2107 52.309 12.136 52.0663 12.136C51.861 12.136 51.6463 12.2387 51.4223 12.444C51.217 12.6307 51.0303 12.864 50.8623 13.144C50.6943 13.424 50.5543 13.7133 50.4423 14.012C50.3303 14.292 50.2743 14.5253 50.2743 14.712V19.36C50.2743 19.8453 50.349 20.172 50.4983 20.34C50.6663 20.4893 51.0116 20.6013 51.5343 20.676L53.6903 20.984V21.432C53.1863 21.3947 52.6263 21.3667 52.0103 21.348C51.3943 21.3293 50.7316 21.32 50.0223 21.32H49.6583C49.005 21.32 48.3983 21.3293 47.8383 21.348C47.2783 21.3667 46.7556 21.3947 46.2703 21.432ZM66.4675 14.292H58.6555C58.5995 14.6653 58.5715 15.0387 58.5715 15.412C58.5715 16.14 58.6742 16.812 58.8795 17.428C59.0848 18.0253 59.3742 18.5387 59.7475 18.968C60.1395 19.3973 60.6062 19.7333 61.1475 19.976C61.7075 20.2187 62.3235 20.34 62.9955 20.34C63.6488 20.34 64.2462 20.2093 64.7875 19.948C65.3288 19.6867 65.9168 19.2573 66.5515 18.66L66.6635 19.332C65.3382 20.956 63.6488 21.768 61.5955 21.768C60.9235 21.768 60.2888 21.6187 59.6915 21.32C59.1128 21.0213 58.6088 20.62 58.1795 20.116C57.7502 19.5933 57.4142 18.9867 57.1715 18.296C56.9288 17.5867 56.8075 16.8213 56.8075 16C56.8075 15.1787 56.9382 14.4133 57.1995 13.704C57.4795 12.9947 57.8622 12.3787 58.3475 11.856C58.8328 11.3147 59.4022 10.8947 60.0555 10.596C60.7088 10.2973 61.4275 10.148 62.2115 10.148C62.8088 10.148 63.3595 10.2507 63.8635 10.456C64.3675 10.6427 64.8062 10.9227 65.1795 11.296C65.5715 11.6507 65.8702 12.0893 66.0755 12.612C66.2995 13.116 66.4302 13.676 66.4675 14.292ZM58.7955 13.704H63.0515C63.6488 13.704 64.0875 13.6667 64.3675 13.592C64.6662 13.4987 64.7408 13.2 64.5915 12.696C64.4422 12.2107 64.1808 11.772 63.8075 11.38C63.4528 10.988 62.9115 10.792 62.1835 10.792C61.2875 10.792 60.5408 11.0533 59.9435 11.576C59.3648 12.0987 58.9822 12.808 58.7955 13.704ZM77.5734 5.836C77.5734 5.59333 77.5454 5.388 77.4894 5.22C77.4521 5.052 77.3588 4.912 77.2094 4.8C77.0788 4.66933 76.8734 4.55733 76.5934 4.464C76.3321 4.37067 75.9681 4.27733 75.5014 4.184V3.848C76.3041 3.81067 77.3308 3.47467 78.5814 2.84H79.2534V12.724C80.6348 11.0067 82.1281 10.148 83.7334 10.148C83.8828 10.148 84.0321 10.1573 84.1814 10.176C84.3494 10.1947 84.5081 10.2227 84.6574 10.26C85.3854 10.4653 85.9641 10.8853 86.3934 11.52C86.8228 12.136 87.0374 12.948 87.0374 13.956V20.004C87.0374 20.1907 87.0748 20.34 87.1494 20.452C87.2241 20.5453 87.4201 20.6293 87.7374 20.704L88.9694 20.984V21.432C88.3908 21.3947 87.8681 21.3667 87.4014 21.348C86.9534 21.3293 86.5708 21.32 86.2534 21.32C85.9361 21.32 85.5534 21.3293 85.1054 21.348C84.6574 21.3667 84.1441 21.3947 83.5654 21.432V20.984L84.7134 20.676C84.9561 20.6013 85.1241 20.5173 85.2174 20.424C85.3294 20.3307 85.3854 20.1253 85.3854 19.808V14.012C85.3854 13.228 85.1521 12.6027 84.6854 12.136C84.2188 11.6693 83.6214 11.436 82.8934 11.436C82.1654 11.436 81.5308 11.6227 80.9894 11.996C80.4481 12.3507 79.8694 12.92 79.2534 13.704V19.808C79.2534 20.032 79.2814 20.1907 79.3374 20.284C79.4121 20.3773 79.5614 20.452 79.7854 20.508L81.6894 20.984V21.432C81.3908 21.3947 80.9801 21.3667 80.4574 21.348C79.9534 21.3293 79.3281 21.32 78.5814 21.32C77.8348 21.32 77.2001 21.3293 76.6774 21.348C76.1734 21.3667 75.7721 21.3947 75.4734 21.432V20.984L76.9854 20.676C77.2281 20.62 77.3868 20.564 77.4614 20.508C77.5361 20.4333 77.5734 20.284 77.5734 20.06V5.836ZM100.456 14.292H92.6438C92.5878 14.6653 92.5598 15.0387 92.5598 15.412C92.5598 16.14 92.6624 16.812 92.8678 17.428C93.0731 18.0253 93.3624 18.5387 93.7358 18.968C94.1278 19.3973 94.5944 19.7333 95.1358 19.976C95.6958 20.2187 96.3118 20.34 96.9838 20.34C97.6371 20.34 98.2344 20.2093 98.7758 19.948C99.3171 19.6867 99.9051 19.2573 100.54 18.66L100.652 19.332C99.3264 20.956 97.6371 21.768 95.5838 21.768C94.9118 21.768 94.2771 21.6187 93.6798 21.32C93.1011 21.0213 92.5971 20.62 92.1678 20.116C91.7384 19.5933 91.4024 18.9867 91.1598 18.296C90.9171 17.5867 90.7958 16.8213 90.7958 16C90.7958 15.1787 90.9264 14.4133 91.1878 13.704C91.4678 12.9947 91.8504 12.3787 92.3358 11.856C92.8211 11.3147 93.3904 10.8947 94.0438 10.596C94.6971 10.2973 95.4158 10.148 96.1998 10.148C96.7971 10.148 97.3478 10.2507 97.8518 10.456C98.3558 10.6427 98.7944 10.9227 99.1678 11.296C99.5598 11.6507 99.8584 12.0893 100.064 12.612C100.288 13.116 100.418 13.676 100.456 14.292ZM92.7838 13.704H97.0398C97.6371 13.704 98.0758 13.6667 98.3558 13.592C98.6544 13.4987 98.7291 13.2 98.5798 12.696C98.4304 12.2107 98.1691 11.772 97.7958 11.38C97.4411 10.988 96.8998 10.792 96.1718 10.792C95.2758 10.792 94.5291 11.0533 93.9318 11.576C93.3531 12.0987 92.9704 12.808 92.7838 13.704ZM102.462 21.432V20.984L103.862 20.732C104.235 20.6387 104.468 20.4987 104.562 20.312C104.674 20.1253 104.73 19.7893 104.73 19.304V13.928C104.73 13.5547 104.646 13.284 104.478 13.116C104.328 12.948 103.983 12.808 103.442 12.696L102.686 12.528L102.742 12.108C103.47 11.8467 104.076 11.548 104.562 11.212C105.047 10.8573 105.476 10.288 105.85 9.504H106.354C106.391 10.008 106.419 10.5587 106.438 11.156C106.456 11.7347 106.466 12.36 106.466 13.032C106.839 12.3413 107.352 11.6973 108.006 11.1C108.659 10.4653 109.228 10.148 109.714 10.148C110.18 10.148 110.535 10.2787 110.778 10.54C111.039 10.8013 111.17 11.1187 111.17 11.492C111.17 11.8467 111.067 12.1173 110.862 12.304C110.656 12.4907 110.404 12.584 110.106 12.584C109.807 12.584 109.48 12.5093 109.126 12.36C108.79 12.2107 108.5 12.136 108.258 12.136C108.052 12.136 107.838 12.2387 107.614 12.444C107.408 12.6307 107.222 12.864 107.054 13.144C106.886 13.424 106.746 13.7133 106.634 14.012C106.522 14.292 106.466 14.5253 106.466 14.712V19.36C106.466 19.8453 106.54 20.172 106.69 20.34C106.858 20.4893 107.203 20.6013 107.726 20.676L109.882 20.984V21.432C109.378 21.3947 108.818 21.3667 108.202 21.348C107.586 21.3293 106.923 21.32 106.214 21.32H105.85C105.196 21.32 104.59 21.3293 104.03 21.348C103.47 21.3667 102.947 21.3947 102.462 21.432ZM122.659 14.292H114.847C114.791 14.6653 114.763 15.0387 114.763 15.412C114.763 16.14 114.866 16.812 115.071 17.428C115.276 18.0253 115.566 18.5387 115.939 18.968C116.331 19.3973 116.798 19.7333 117.339 19.976C117.899 20.2187 118.515 20.34 119.187 20.34C119.84 20.34 120.438 20.2093 120.979 19.948C121.52 19.6867 122.108 19.2573 122.743 18.66L122.855 19.332C121.53 20.956 119.84 21.768 117.787 21.768C117.115 21.768 116.48 21.6187 115.883 21.32C115.304 21.0213 114.8 20.62 114.371 20.116C113.942 19.5933 113.606 18.9867 113.363 18.296C113.12 17.5867 112.999 16.8213 112.999 16C112.999 15.1787 113.13 14.4133 113.391 13.704C113.671 12.9947 114.054 12.3787 114.539 11.856C115.024 11.3147 115.594 10.8947 116.247 10.596C116.9 10.2973 117.619 10.148 118.403 10.148C119 10.148 119.551 10.2507 120.055 10.456C120.559 10.6427 120.998 10.9227 121.371 11.296C121.763 11.6507 122.062 12.0893 122.267 12.612C122.491 13.116 122.622 13.676 122.659 14.292ZM114.987 13.704H119.243C119.84 13.704 120.279 13.6667 120.559 13.592C120.858 13.4987 120.932 13.2 120.783 12.696C120.634 12.2107 120.372 11.772 119.999 11.38C119.644 10.988 119.103 10.792 118.375 10.792C117.479 10.792 116.732 11.0533 116.135 11.576C115.556 12.0987 115.174 12.808 114.987 13.704ZM136.005 10.596L139.645 10.68V11.66L136.061 11.772V18.8C136.061 19.9387 136.453 20.564 137.237 20.676L139.113 20.956V21.404C138.161 21.348 137.172 21.32 136.145 21.32H135.361C134.017 21.32 133 21.348 132.309 21.404V20.984L133.177 20.788C133.476 20.732 133.7 20.6667 133.849 20.592C133.998 20.5173 134.11 20.4147 134.185 20.284C134.26 20.1533 134.297 19.9947 134.297 19.808C134.316 19.6027 134.325 19.3413 134.325 19.024V12.108C133.97 12.0333 133.289 11.9773 132.281 11.94V11.52C132.692 11.352 133.028 11.2027 133.289 11.072C133.55 10.9227 133.756 10.792 133.905 10.68C134.054 10.568 134.148 10.456 134.185 10.344C134.241 10.232 134.269 10.1013 134.269 9.952C134.269 9.504 134.344 8.916 134.493 8.188C134.642 7.44133 134.894 6.69467 135.249 5.948C135.622 5.20133 136.117 4.53867 136.733 3.96C137.368 3.36267 138.161 3.008 139.113 2.896C139.244 2.87733 139.374 2.868 139.505 2.868C139.636 2.84933 139.776 2.84 139.925 2.84C141.474 2.84 142.249 3.232 142.249 4.016C142.249 4.296 142.146 4.52 141.941 4.688C141.754 4.856 141.502 4.94 141.185 4.94C141.073 4.94 140.905 4.90267 140.681 4.828C140.457 4.73467 140.214 4.64133 139.953 4.548C139.692 4.436 139.412 4.34267 139.113 4.268C138.833 4.17467 138.553 4.128 138.273 4.128C137.694 4.128 137.246 4.25867 136.929 4.52C136.612 4.78133 136.378 5.12667 136.229 5.556C136.098 5.96667 136.024 6.44267 136.005 6.984C135.986 7.52533 135.977 8.076 135.977 8.636C135.977 9.14 135.977 9.56 135.977 9.896C135.977 10.2133 135.986 10.4467 136.005 10.596ZM148.136 21.768C147.315 21.768 146.549 21.628 145.84 21.348C145.131 21.0493 144.515 20.648 143.992 20.144C143.469 19.6213 143.049 19.0053 142.732 18.296C142.433 17.5867 142.284 16.812 142.284 15.972C142.284 15.1133 142.433 14.3293 142.732 13.62C143.049 12.9107 143.479 12.304 144.02 11.8C144.561 11.2773 145.196 10.876 145.924 10.596C146.671 10.2973 147.483 10.148 148.36 10.148C149.256 10.148 150.068 10.3067 150.796 10.624C151.524 10.9227 152.149 11.3427 152.672 11.884C153.213 12.4067 153.624 13.032 153.904 13.76C154.203 14.4693 154.352 15.2253 154.352 16.028C154.352 16.8307 154.193 17.5867 153.876 18.296C153.577 18.9867 153.148 19.5933 152.588 20.116C152.047 20.62 151.393 21.0213 150.628 21.32C149.863 21.6187 149.032 21.768 148.136 21.768ZM144.3 16.196C144.3 17.764 144.664 18.996 145.392 19.892C146.12 20.788 147.072 21.236 148.248 21.236C148.827 21.236 149.368 21.1147 149.872 20.872C150.376 20.6107 150.805 20.256 151.16 19.808C151.533 19.3413 151.823 18.7907 152.028 18.156C152.233 17.5027 152.336 16.784 152.336 16C152.336 15.216 152.243 14.4973 152.056 13.844C151.869 13.1907 151.599 12.6307 151.244 12.164C150.889 11.6973 150.46 11.3333 149.956 11.072C149.452 10.8107 148.892 10.68 148.276 10.68C147.044 10.68 146.073 11.1467 145.364 12.08C144.655 13.0133 144.3 14.3853 144.3 16.196ZM156.165 21.432V20.984L157.565 20.732C157.938 20.6387 158.172 20.4987 158.265 20.312C158.377 20.1253 158.433 19.7893 158.433 19.304V13.928C158.433 13.5547 158.349 13.284 158.181 13.116C158.032 12.948 157.686 12.808 157.145 12.696L156.389 12.528L156.445 12.108C157.173 11.8467 157.78 11.548 158.265 11.212C158.75 10.8573 159.18 10.288 159.553 9.504H160.057C160.094 10.008 160.122 10.5587 160.141 11.156C160.16 11.7347 160.169 12.36 160.169 13.032C160.542 12.3413 161.056 11.6973 161.709 11.1C162.362 10.4653 162.932 10.148 163.417 10.148C163.884 10.148 164.238 10.2787 164.481 10.54C164.742 10.8013 164.873 11.1187 164.873 11.492C164.873 11.8467 164.77 12.1173 164.565 12.304C164.36 12.4907 164.108 12.584 163.809 12.584C163.51 12.584 163.184 12.5093 162.829 12.36C162.493 12.2107 162.204 12.136 161.961 12.136C161.756 12.136 161.541 12.2387 161.317 12.444C161.112 12.6307 160.925 12.864 160.757 13.144C160.589 13.424 160.449 13.7133 160.337 14.012C160.225 14.292 160.169 14.5253 160.169 14.712V19.36C160.169 19.8453 160.244 20.172 160.393 20.34C160.561 20.4893 160.906 20.6013 161.429 20.676L163.585 20.984V21.432C163.081 21.3947 162.521 21.3667 161.905 21.348C161.289 21.3293 160.626 21.32 159.917 21.32H159.553C158.9 21.32 158.293 21.3293 157.733 21.348C157.173 21.3667 156.65 21.3947 156.165 21.432ZM178.098 24.176C177.762 25.072 177.361 25.7347 176.894 26.164C176.446 26.612 175.961 26.836 175.438 26.836C175.083 26.836 174.813 26.724 174.626 26.5C174.439 26.276 174.346 26.0333 174.346 25.772C174.346 25.548 174.421 25.352 174.57 25.184C174.719 25.016 174.953 24.932 175.27 24.932C175.494 24.932 175.69 24.9507 175.858 24.988C176.026 25.0253 176.185 25.0627 176.334 25.1C176.483 25.1373 176.595 25.156 176.67 25.156C176.763 25.156 176.857 25.1093 176.95 25.016C177.006 24.96 177.053 24.9133 177.09 24.876C177.146 24.8573 177.202 24.8013 177.258 24.708C177.314 24.6333 177.379 24.512 177.454 24.344C177.547 24.176 177.65 23.924 177.762 23.588C178.005 22.8973 178.126 22.44 178.126 22.216C178.126 21.9173 178.033 21.544 177.846 21.096L174.43 12.052C174.281 11.6227 174.038 11.3613 173.702 11.268L172.666 10.96V10.512C173.842 10.6053 174.878 10.652 175.774 10.652C176.67 10.652 177.51 10.6053 178.294 10.512V10.96C178.089 10.9973 177.846 11.0347 177.566 11.072C177.305 11.0907 177.062 11.1373 176.838 11.212C176.614 11.268 176.437 11.3613 176.306 11.492C176.175 11.6227 176.157 11.8093 176.25 12.052L179.078 20.032L181.682 12.808C181.775 12.5467 181.813 12.2667 181.794 11.968C181.794 11.6507 181.635 11.4453 181.318 11.352L179.75 10.96V10.512C180.59 10.6053 181.355 10.652 182.046 10.652C182.755 10.652 183.577 10.6053 184.51 10.512V10.96L183.614 11.212C183.353 11.2867 183.129 11.4453 182.942 11.688C182.755 11.912 182.531 12.3787 182.27 13.088L178.098 24.176ZM191.23 21.768C190.408 21.768 189.643 21.628 188.934 21.348C188.224 21.0493 187.608 20.648 187.086 20.144C186.563 19.6213 186.143 19.0053 185.826 18.296C185.527 17.5867 185.378 16.812 185.378 15.972C185.378 15.1133 185.527 14.3293 185.826 13.62C186.143 12.9107 186.572 12.304 187.114 11.8C187.655 11.2773 188.29 10.876 189.018 10.596C189.764 10.2973 190.576 10.148 191.454 10.148C192.35 10.148 193.162 10.3067 193.89 10.624C194.618 10.9227 195.243 11.3427 195.766 11.884C196.307 12.4067 196.718 13.032 196.998 13.76C197.296 14.4693 197.446 15.2253 197.446 16.028C197.446 16.8307 197.287 17.5867 196.97 18.296C196.671 18.9867 196.242 19.5933 195.682 20.116C195.14 20.62 194.487 21.0213 193.722 21.32C192.956 21.6187 192.126 21.768 191.23 21.768ZM187.394 16.196C187.394 17.764 187.758 18.996 188.486 19.892C189.214 20.788 190.166 21.236 191.342 21.236C191.92 21.236 192.462 21.1147 192.966 20.872C193.47 20.6107 193.899 20.256 194.254 19.808C194.627 19.3413 194.916 18.7907 195.122 18.156C195.327 17.5027 195.43 16.784 195.43 16C195.43 15.216 195.336 14.4973 195.15 13.844C194.963 13.1907 194.692 12.6307 194.338 12.164C193.983 11.6973 193.554 11.3333 193.05 11.072C192.546 10.8107 191.986 10.68 191.37 10.68C190.138 10.68 189.167 11.1467 188.458 12.08C187.748 13.0133 187.394 14.3853 187.394 16.196ZM199.231 10.68H202.815V17.904C202.815 18.8 202.964 19.4347 203.263 19.808C203.58 20.1813 204.168 20.368 205.027 20.368C206.296 20.368 207.463 19.892 208.527 18.94V12.192C208.527 12.0053 208.489 11.856 208.415 11.744C208.359 11.632 208.237 11.548 208.051 11.492C207.883 11.4173 207.631 11.352 207.295 11.296C206.959 11.24 206.511 11.184 205.951 11.128V10.68H210.347V18.912C210.347 19.248 210.365 19.5187 210.403 19.724C210.44 19.9107 210.524 20.0507 210.655 20.144C210.804 20.2187 211 20.2747 211.243 20.312C211.504 20.3307 211.859 20.34 212.307 20.34C212.307 20.4147 212.307 20.4893 212.307 20.564C212.325 20.62 212.335 20.6853 212.335 20.76L208.527 21.768V19.64C207.687 20.3493 206.931 20.8907 206.259 21.264C205.605 21.6187 204.943 21.796 204.271 21.796C203.319 21.796 202.544 21.4507 201.947 20.76C201.349 20.0693 201.051 19.1547 201.051 18.016V12.164C201.051 11.8093 200.929 11.5667 200.687 11.436C200.463 11.3053 199.977 11.184 199.231 11.072V10.68Z" fill="black"/>
</svg>
