<svg width="92" height="25" viewBox="0 0 92 25" fill="none" xmlns="http://www.w3.org/2000/svg">
<path d="M13.536 22.848C13.056 23.28 12.456 23.616 11.736 23.856C11.04 24.072 10.308 24.18 9.54 24.18C7.764 24.18 6.396 23.7 5.436 22.74C4.476 21.78 3.996 20.424 3.996 18.672V7.224H0.612V5.064H3.996V0.923999H6.552V5.064H12.312V7.224H6.552V18.528C6.552 19.656 6.828 20.52 7.38 21.12C7.956 21.696 8.772 21.984 9.828 21.984C10.356 21.984 10.86 21.9 11.34 21.732C11.844 21.564 12.276 21.324 12.636 21.012L13.536 22.848ZM34.009 15.324H18.169C18.313 17.292 19.069 18.888 20.437 20.112C21.805 21.312 23.533 21.912 25.621 21.912C26.797 21.912 27.877 21.708 28.861 21.3C29.845 20.868 30.697 20.244 31.417 19.428L32.857 21.084C32.017 22.092 30.961 22.86 29.689 23.388C28.441 23.916 27.061 24.18 25.549 24.18C23.605 24.18 21.877 23.772 20.365 22.956C18.877 22.116 17.713 20.964 16.873 19.5C16.033 18.036 15.613 16.38 15.613 14.532C15.613 12.684 16.009 11.028 16.801 9.564C17.617 8.1 18.721 6.96 20.113 6.144C21.529 5.328 23.113 4.92 24.865 4.92C26.617 4.92 28.189 5.328 29.581 6.144C30.973 6.96 32.065 8.1 32.857 9.564C33.649 11.004 34.045 12.66 34.045 14.532L34.009 15.324ZM24.865 7.116C23.041 7.116 21.505 7.704 20.257 8.88C19.033 10.032 18.337 11.544 18.169 13.416H31.597C31.429 11.544 30.721 10.032 29.473 8.88C28.249 7.704 26.713 7.116 24.865 7.116ZM45.3443 4.92C47.8163 4.92 49.7123 5.544 51.0323 6.792C52.3523 8.016 53.0123 9.84 53.0123 12.264V24H50.5643V21.048C49.9883 22.032 49.1363 22.8 48.0083 23.352C46.9043 23.904 45.5843 24.18 44.0483 24.18C41.9363 24.18 40.2563 23.676 39.0083 22.668C37.7603 21.66 37.1363 20.328 37.1363 18.672C37.1363 17.064 37.7123 15.768 38.8643 14.784C40.0403 13.8 41.9003 13.308 44.4443 13.308H50.4563V12.156C50.4563 10.524 50.0003 9.288 49.0883 8.448C48.1763 7.584 46.8443 7.152 45.0923 7.152C43.8923 7.152 42.7403 7.356 41.6363 7.764C40.5323 8.148 39.5843 8.688 38.7923 9.384L37.6403 7.476C38.6003 6.66 39.7523 6.036 41.0963 5.604C42.4403 5.148 43.8563 4.92 45.3443 4.92ZM44.4443 22.164C45.8843 22.164 47.1203 21.84 48.1523 21.192C49.1843 20.52 49.9523 19.56 50.4563 18.312V15.216H44.5163C41.2763 15.216 39.6562 16.344 39.6562 18.6C39.6562 19.704 40.0763 20.58 40.9163 21.228C41.7563 21.852 42.9323 22.164 44.4443 22.164ZM83.5706 4.92C85.9466 4.92 87.8066 5.604 89.1506 6.972C90.5186 8.34 91.2026 10.356 91.2026 13.02V24H88.6466V13.272C88.6466 11.304 88.1666 9.804 87.2066 8.772C86.2706 7.74 84.9386 7.224 83.2106 7.224C81.2426 7.224 79.6946 7.836 78.5666 9.06C77.4386 10.26 76.8746 11.928 76.8746 14.064V24H74.3186V13.272C74.3186 11.304 73.8386 9.804 72.8786 8.772C71.9426 7.74 70.5986 7.224 68.8466 7.224C66.9026 7.224 65.3546 7.836 64.2026 9.06C63.0746 10.26 62.5106 11.928 62.5106 14.064V24H59.9546V5.064H62.4026V8.52C63.0746 7.368 64.0106 6.48 65.2106 5.856C66.4106 5.232 67.7906 4.92 69.3506 4.92C70.9346 4.92 72.3026 5.256 73.4546 5.928C74.6306 6.6 75.5066 7.596 76.0826 8.916C76.7786 7.668 77.7746 6.696 79.0706 6C80.3906 5.28 81.8906 4.92 83.5706 4.92Z" fill="#323264"/>
</svg>
